<?xml version="1.0" encoding="UTF-8"?>
<svg xmlns="http://www.w3.org/2000/svg" xmlns:xlink="http://www.w3.org/1999/xlink" width="98pt" height="74pt" viewBox="0 0 98 74" version="1.1">
<defs>
<clipPath id="clip1">
  <path d="M 0 0 L 97.050781 0 L 97.050781 74 L 0 74 Z M 0 0 "/>
</clipPath>
<clipPath id="clip2">
  <path d="M 33 12 L 97.050781 12 L 97.050781 74 L 33 74 Z M 33 12 "/>
</clipPath>
</defs>
<g id="surface1">
<path style="fill:none;stroke-width:1.594;stroke-linecap:round;stroke-linejoin:miter;stroke:rgb(29.998779%,100%,29.998779%);stroke-opacity:1;stroke-miterlimit:10;" d="M 0.00115965 0.00189205 C 0.00115965 0.00189205 1.821472 -2.103577 1.524597 -4.345764 C 1.223816 -6.591858 -1.076965 -8.080139 -1.076965 -8.080139 " transform="matrix(-1,0,0,-1,60.872253,19.630798)"/>
<path style="fill:none;stroke-width:1.594;stroke-linecap:round;stroke-linejoin:miter;stroke:rgb(29.998779%,100%,29.998779%);stroke-opacity:1;stroke-miterlimit:10;" d="M -0.00050355 0.0006561 C -0.00050355 0.0006561 0.956528 1.3405 2.597153 1.043625 C 4.241684 0.742844 5.925278 -1.077469 5.925278 -1.077469 " transform="matrix(-1,0,0,-1,51.71434,39.024094)"/>
<path style="fill:none;stroke-width:1.594;stroke-linecap:round;stroke-linejoin:miter;stroke:rgb(29.998779%,100%,29.998779%);stroke-opacity:1;stroke-miterlimit:10;" d="M 0.00154105 0.00094605 C 0.00154105 0.00094605 -2.76799 0.87204 -5.48674 2.65329 C -8.20549 4.438446 -7.432053 3.723602 -9.795334 6.426727 C -12.158615 9.125946 -14.006271 12.391571 -14.006271 12.391571 " transform="matrix(-1,0,0,-1,14.005447,21.786102)"/>
<g clip-path="url(#clip1)" clip-rule="nonzero">
<path style="fill-rule:nonzero;fill:rgb(89.99939%,89.99939%,89.99939%);fill-opacity:1;stroke-width:0.398;stroke-linecap:butt;stroke-linejoin:miter;stroke:rgb(0%,0%,0%);stroke-opacity:1;stroke-miterlimit:10;" d="M 0.00135795 -0.00001525 C 0.673233 -1.343765 3.427139 -3.562515 4.845108 -4.308609 C 6.266983 -5.054703 8.739639 -5.835953 10.231827 -5.386734 C 11.72792 -4.937515 14.200577 -2.42189 15.618545 -1.07814 C 17.04042 0.269516 19.048233 2.812485 20.466202 4.308579 C 21.88417 5.804672 24.431045 8.425766 25.85292 9.695297 C 27.270889 10.964829 29.356827 12.343735 30.700577 13.464829 C 32.044327 14.585922 34.126358 16.57811 35.548233 17.773422 C 36.966202 18.968735 39.513077 20.960922 40.934952 22.082016 C 42.35292 23.20311 44.434952 24.882797 45.778702 25.851547 C 47.126358 26.824204 49.282608 28.113266 50.626358 29.082016 C 51.970108 30.054672 54.056045 31.882797 55.474014 32.855454 C 56.895889 33.824204 59.364639 35.039047 60.860733 36.085922 C 62.356827 37.132797 64.751358 39.273422 66.247452 40.394516 C 67.739639 41.51561 70.138077 43.191391 71.630264 44.164047 C 73.126358 45.136704 75.599014 46.425766 77.016983 47.394516 C 78.438858 48.367172 80.44667 50.04686 81.864639 51.164047 C 83.286514 52.285141 85.755264 54.355454 87.251358 55.472641 C 88.743545 56.593735 91.29042 58.199204 92.638077 59.242172 C 93.981827 60.289047 95.677139 61.968735 96.94667 63.01561 C 98.216202 64.062485 100.372452 65.664047 101.794327 66.785141 C 103.212295 67.906235 105.684952 69.898422 107.177139 71.093735 C 108.673233 72.289047 111.145889 74.281235 112.563858 75.402329 C 113.985733 76.523422 116.067764 78.124985 117.411514 79.17186 C 118.75917 80.218735 120.841202 81.894516 122.25917 82.941391 C 123.677139 83.988266 126.149795 85.742172 127.645889 86.714829 C 129.138077 87.683579 131.610733 89.867172 133.032608 89.945297 C 134.450577 90.019516 136.606827 88.371079 137.876358 87.249985 C 139.149795 86.128891 141.141983 83.35936 142.188858 81.863266 C 143.231827 80.371079 144.669327 77.972641 145.419327 76.480454 C 146.16542 74.98436 146.677139 72.363266 147.57167 71.093735 C 148.470108 69.824204 150.536514 67.695297 151.880264 67.324204 C 153.22792 66.949204 155.774795 67.95311 157.266983 68.398422 C 158.763077 68.847641 161.157608 69.73436 162.653702 70.554672 C 164.149795 71.378891 166.692764 73.128891 168.04042 74.324204 C 169.38417 75.519516 171.153702 77.82811 172.349014 79.17186 C 173.544327 80.519516 175.610733 82.601547 176.657608 84.019516 C 177.704483 85.437485 179.141983 87.910141 179.888077 89.406235 C 180.63417 90.898422 182.118545 93.445297 182.044327 94.789047 C 181.966202 96.136704 180.470108 98.054672 179.349014 99.101547 C 178.22792 100.144516 175.458389 101.507797 173.962295 102.332016 C 172.470108 103.152329 170.07167 104.277329 168.579483 105.023422 C 167.083389 105.773422 164.610733 106.820297 163.192764 107.718735 C 161.770889 108.613266 159.54042 110.218735 158.345108 111.488266 C 157.149795 112.757797 155.622452 115.378891 154.575577 116.871079 C 153.528702 118.367172 152.001358 120.988266 150.806045 122.257797 C 149.610733 123.527329 147.376358 125.507797 145.958389 126.027329 C 144.536514 126.550766 142.067764 126.550766 140.57167 126.027329 C 139.075577 125.507797 136.606827 123.378891 135.184952 122.257797 C 133.766983 121.136704 131.610733 119.144516 130.337295 117.949204 C 129.067764 116.753891 127.149795 114.910141 126.028702 113.64061 C 124.907608 112.371079 122.559952 110.214829 122.25917 108.792954 C 121.962295 107.374985 124.173233 104.902329 123.876358 103.410141 C 123.575577 101.914047 121.298233 99.292954 120.106827 98.023422 C 118.907608 96.753891 116.677139 95.374985 115.25917 94.253891 C 113.837295 93.132797 111.368545 91.066391 109.872452 89.945297 C 108.376358 88.824204 105.981827 87.218735 104.485733 86.175766 C 102.989639 85.128891 100.595108 83.449204 99.099014 82.402329 C 97.606827 81.35936 95.208389 79.679672 93.716202 78.632797 C 92.220108 77.585922 89.82167 75.910141 88.329483 74.863266 C 86.833389 73.816391 84.438858 72.14061 82.942764 71.093735 C 81.44667 70.04686 78.97792 68.29686 77.556045 67.324204 C 76.138077 66.351547 74.130264 65.062485 72.708389 64.093735 C 71.29042 63.121079 68.817764 61.367172 67.32167 60.320297 C 65.829483 59.273422 63.356827 57.597641 61.938858 56.550766 C 60.516983 55.503891 58.50917 53.82811 57.091202 52.781235 C 55.669327 51.73436 53.126358 49.980454 51.704483 49.011704 C 50.286514 48.039047 48.278702 46.824204 46.856827 45.777329 C 45.438858 44.73436 42.966202 42.664047 41.470108 41.472641 C 39.97792 40.273422 37.579483 38.35936 36.083389 37.164047 C 34.591202 35.968735 32.118545 33.976547 30.700577 32.855454 C 29.278702 31.73436 27.270889 30.277329 25.85292 29.082016 C 24.431045 27.886704 21.88417 25.507797 20.466202 24.23436 C 19.048233 22.964829 16.966202 21.199204 15.618545 19.925766 C 14.274795 18.656235 12.192764 16.351547 10.770889 15.07811 C 9.35292 13.808579 6.806045 12.042954 5.38417 10.773422 C 3.966202 9.499985 1.286514 6.67186 0.54042 5.925766 C -0.20958 5.175766 0.0755767 6.207016 0.00135795 5.386704 C -0.0767671 4.562485 -0.674423 1.343735 0.00135795 -0.00001525 Z M 0.00135795 -0.00001525 " transform="matrix(-1,0,0,-1,182.684952,127.386704)"/>
</g>
<g clip-path="url(#clip2)" clip-rule="nonzero">
<path style="fill:none;stroke-width:0.797;stroke-linecap:round;stroke-linejoin:miter;stroke:rgb(59.999084%,59.999084%,59.999084%);stroke-opacity:1;stroke-miterlimit:10;" d="M -0.0014801 -0.0001831 C -0.0014801 -0.0001831 8.40477 10.792786 32.314926 29.624817 C 56.228989 48.452942 59.572739 48.284973 86.174301 67.863098 C 112.775864 87.441223 128.182114 100.175598 128.182114 100.175598 " transform="matrix(-1,0,0,-1,172.451645,123.617004)"/>
</g>
<path style="fill:none;stroke-width:0.797;stroke-linecap:round;stroke-linejoin:miter;stroke:rgb(59.999084%,59.999084%,59.999084%);stroke-opacity:1;stroke-miterlimit:10;" d="M 0.0012664 0.00189205 L 11.313766 -3.771545 L 16.161423 -3.232483 L 31.243454 -17.775452 L 25.856735 -33.939514 M 31.243454 -17.775452 L 50.637985 -12.927795 M 16.161423 -3.232483 L 16.700485 11.849548 " transform="matrix(-1,0,0,-1,55.485641,19.630798)"/>
<path style="fill:none;stroke-width:0.398;stroke-linecap:butt;stroke-linejoin:bevel;stroke:rgb(100%,39.99939%,39.99939%);stroke-opacity:1;stroke-miterlimit:10;" d="M -0.0010071 -0.00067145 L 8.620087 -3.770203 L 8.620087 -12.926453 " transform="matrix(-1,0,0,-1,58.717743,24.479797)"/>
<path style="fill:none;stroke-width:0.398;stroke-linecap:butt;stroke-linejoin:bevel;stroke:rgb(100%,39.99939%,39.99939%);stroke-opacity:1;stroke-miterlimit:10;" d="M -0.0016022 -0.00192265 L 9.158554 14.00589 L 23.16246 22.087921 " transform="matrix(-1,0,0,-1,47.404648,37.947296)"/>
<path style="fill:none;stroke-width:0.797;stroke-linecap:round;stroke-linejoin:miter;stroke:rgb(100%,0%,0%);stroke-opacity:1;stroke-miterlimit:10;" d="M -0.0010071 -0.00067145 L 8.620087 -12.926453 M 11.311493 -13.469421 L 34.475555 8.620422 " transform="matrix(-1,0,0,-1,58.717743,24.479797)"/>
</g>
</svg>
