<?xml version="1.0" encoding="UTF-8"?>
<svg xmlns="http://www.w3.org/2000/svg" xmlns:xlink="http://www.w3.org/1999/xlink" width="104pt" height="104pt" viewBox="0 0 104 104" version="1.1">
<g id="surface1">
<path style="fill-rule:nonzero;fill:rgb(79.998779%,79.998779%,79.998779%);fill-opacity:1;stroke-width:0.797;stroke-linecap:butt;stroke-linejoin:miter;stroke:rgb(50%,50%,50%);stroke-opacity:1;stroke-miterlimit:10;" d="M -0.00155625 -0.0003375 C -0.00155625 1.101225 -0.892181 1.99185 -1.993744 1.99185 C -3.0914 1.99185 -3.985931 1.101225 -3.985931 -0.0003375 C -3.985931 -1.1019 -3.0914 -1.992525 -1.993744 -1.992525 C -0.892181 -1.992525 -0.00155625 -1.1019 -0.00155625 -0.0003375 Z M -0.00155625 -0.0003375 " transform="matrix(1,0,0,-1,19.0914,62.8356)"/>
<path style="fill-rule:nonzero;fill:rgb(79.998779%,79.998779%,79.998779%);fill-opacity:1;stroke-width:0.797;stroke-linecap:butt;stroke-linejoin:miter;stroke:rgb(50%,50%,50%);stroke-opacity:1;stroke-miterlimit:10;" d="M 0.00119375 -0.00053125 C 0.00119375 1.101031 -0.893338 1.991656 -1.9949 1.991656 C -3.092556 1.991656 -3.983181 1.101031 -3.983181 -0.00053125 C -3.983181 -1.098187 -3.092556 -1.992719 -1.9949 -1.992719 C -0.893338 -1.992719 0.00119375 -1.098187 0.00119375 -0.00053125 Z M 0.00119375 -0.00053125 " transform="matrix(1,0,0,-1,21.2449,62.769)"/>
<path style="fill-rule:nonzero;fill:rgb(79.998779%,79.998779%,79.998779%);fill-opacity:1;stroke-width:0.797;stroke-linecap:butt;stroke-linejoin:miter;stroke:rgb(50%,50%,50%);stroke-opacity:1;stroke-miterlimit:10;" d="M 0.000325 0.001525 C 0.000325 1.099181 -0.8903 1.993713 -1.991863 1.993713 C -3.093425 1.993713 -3.98405 1.099181 -3.98405 0.001525 C -3.98405 -1.100037 -3.093425 -1.994569 -1.991863 -1.994569 C -0.8903 -1.994569 0.000325 -1.100037 0.000325 0.001525 Z M 0.000325 0.001525 " transform="matrix(1,0,0,-1,18.7028,43.9234)"/>
<path style="fill-rule:nonzero;fill:rgb(79.998779%,79.998779%,79.998779%);fill-opacity:1;stroke-width:0.797;stroke-linecap:butt;stroke-linejoin:miter;stroke:rgb(50%,50%,50%);stroke-opacity:1;stroke-miterlimit:10;" d="M 0.00076875 -0.00030625 C 0.00076875 1.101256 -0.893762 1.991881 -1.991419 1.991881 C -3.092981 1.991881 -3.983606 1.101256 -3.983606 -0.00030625 C -3.983606 -1.101869 -3.092981 -1.992494 -1.991419 -1.992494 C -0.893762 -1.992494 0.00076875 -1.101869 0.00076875 -0.00030625 Z M 0.00076875 -0.00030625 " transform="matrix(1,0,0,-1,27.4172,34.3786)"/>
<path style="fill-rule:nonzero;fill:rgb(79.998779%,79.998779%,79.998779%);fill-opacity:1;stroke-width:0.797;stroke-linecap:butt;stroke-linejoin:miter;stroke:rgb(50%,50%,50%);stroke-opacity:1;stroke-miterlimit:10;" d="M 0.0018 0.00075625 C 0.0018 1.098413 -0.892731 1.992944 -1.994294 1.992944 C -3.09195 1.992944 -3.986481 1.098413 -3.986481 0.00075625 C -3.986481 -1.100806 -3.09195 -1.991431 -1.994294 -1.991431 C -0.892731 -1.991431 0.0018 -1.100806 0.0018 0.00075625 Z M 0.0018 0.00075625 " transform="matrix(1,0,0,-1,20.0607,31.2781)"/>
<path style="fill-rule:nonzero;fill:rgb(79.998779%,79.998779%,79.998779%);fill-opacity:1;stroke-width:0.797;stroke-linecap:butt;stroke-linejoin:miter;stroke:rgb(50%,50%,50%);stroke-opacity:1;stroke-miterlimit:10;" d="M 0.00163125 0.00094375 C 0.00163125 1.0986 -0.8929 1.993131 -1.994462 1.993131 C -3.092119 1.993131 -3.98665 1.0986 -3.98665 0.00094375 C -3.98665 -1.100619 -3.092119 -1.991244 -1.994462 -1.991244 C -0.8929 -1.991244 0.00163125 -1.100619 0.00163125 0.00094375 Z M 0.00163125 0.00094375 " transform="matrix(1,0,0,-1,16.8304,55.9736)"/>
<path style="fill-rule:nonzero;fill:rgb(79.998779%,79.998779%,79.998779%);fill-opacity:1;stroke-width:0.797;stroke-linecap:butt;stroke-linejoin:miter;stroke:rgb(50%,50%,50%);stroke-opacity:1;stroke-miterlimit:10;" d="M 0.00135625 -0.00003125 C 0.00135625 1.101531 -0.893175 1.992156 -1.994737 1.992156 C -3.092394 1.992156 -3.986925 1.101531 -3.986925 -0.00003125 C -3.986925 -1.101594 -3.092394 -1.992219 -1.994737 -1.992219 C -0.893175 -1.992219 0.00135625 -1.101594 0.00135625 -0.00003125 Z M 0.00135625 -0.00003125 " transform="matrix(1,0,0,-1,25.7213,46.332)"/>
<path style="fill-rule:nonzero;fill:rgb(79.998779%,79.998779%,79.998779%);fill-opacity:1;stroke-width:0.797;stroke-linecap:butt;stroke-linejoin:miter;stroke:rgb(50%,50%,50%);stroke-opacity:1;stroke-miterlimit:10;" d="M 0.0001625 0.0009625 C 0.0001625 1.098619 -0.890462 1.99315 -1.992025 1.99315 C -3.093587 1.99315 -3.984212 1.098619 -3.984212 0.0009625 C -3.984212 -1.1006 -3.093587 -1.991225 -1.992025 -1.991225 C -0.890462 -1.991225 0.0001625 -1.1006 0.0001625 0.0009625 Z M 0.0001625 0.0009625 " transform="matrix(1,0,0,-1,16.0389,64.6494)"/>
<path style="fill-rule:nonzero;fill:rgb(79.998779%,79.998779%,79.998779%);fill-opacity:1;stroke-width:0.797;stroke-linecap:butt;stroke-linejoin:miter;stroke:rgb(50%,50%,50%);stroke-opacity:1;stroke-miterlimit:10;" d="M -0.001525 0.0018 C -0.001525 1.099456 -0.89215 1.993988 -1.993712 1.993988 C -3.091369 1.993988 -3.9859 1.099456 -3.9859 0.0018 C -3.9859 -1.099762 -3.091369 -1.994294 -1.993712 -1.994294 C -0.89215 -1.994294 -0.001525 -1.099762 -0.001525 0.0018 Z M -0.001525 0.0018 " transform="matrix(1,0,0,-1,42.9234,40.8768)"/>
<path style="fill-rule:nonzero;fill:rgb(79.998779%,79.998779%,79.998779%);fill-opacity:1;stroke-width:0.797;stroke-linecap:butt;stroke-linejoin:miter;stroke:rgb(50%,50%,50%);stroke-opacity:1;stroke-miterlimit:10;" d="M -0.00000625 0.00013125 C -0.00000625 1.101694 -0.890631 1.992319 -1.992194 1.992319 C -3.093756 1.992319 -3.984381 1.101694 -3.984381 0.00013125 C -3.984381 -1.101431 -3.093756 -1.992056 -1.992194 -1.992056 C -0.890631 -1.992056 -0.00000625 -1.101431 -0.00000625 0.00013125 Z M -0.00000625 0.00013125 " transform="matrix(1,0,0,-1,18.8711,52.2306)"/>
<path style="fill-rule:nonzero;fill:rgb(79.998779%,79.998779%,79.998779%);fill-opacity:1;stroke-width:0.797;stroke-linecap:butt;stroke-linejoin:miter;stroke:rgb(50%,50%,50%);stroke-opacity:1;stroke-miterlimit:10;" d="M 0.0019 -0.001175 C 0.0019 1.100388 -0.892631 1.994919 -1.994194 1.994919 C -3.09185 1.994919 -3.986381 1.100388 -3.986381 -0.001175 C -3.986381 -1.098831 -3.09185 -1.993362 -1.994194 -1.993362 C -0.892631 -1.993362 0.0019 -1.098831 0.0019 -0.001175 Z M 0.0019 -0.001175 " transform="matrix(1,0,0,-1,23.8731,65.0457)"/>
<path style="fill-rule:nonzero;fill:rgb(79.998779%,79.998779%,79.998779%);fill-opacity:1;stroke-width:0.797;stroke-linecap:butt;stroke-linejoin:miter;stroke:rgb(50%,50%,50%);stroke-opacity:1;stroke-miterlimit:10;" d="M -0.0010625 -0.0019 C -0.0010625 1.099663 -0.891687 1.994194 -1.99325 1.994194 C -3.094812 1.994194 -3.985437 1.099663 -3.985437 -0.0019 C -3.985437 -1.099556 -3.094812 -1.994087 -1.99325 -1.994087 C -0.891687 -1.994087 -0.0010625 -1.099556 -0.0010625 -0.0019 Z M -0.0010625 -0.0019 " transform="matrix(1,0,0,-1,28.712,66.7481)"/>
<path style="fill-rule:nonzero;fill:rgb(79.998779%,79.998779%,79.998779%);fill-opacity:1;stroke-width:0.797;stroke-linecap:butt;stroke-linejoin:miter;stroke:rgb(50%,50%,50%);stroke-opacity:1;stroke-miterlimit:10;" d="M 0.00065625 0.00010625 C 0.00065625 1.101669 -0.893875 1.992294 -1.991531 1.992294 C -3.093094 1.992294 -3.983719 1.101669 -3.983719 0.00010625 C -3.983719 -1.101456 -3.093094 -1.992081 -1.991531 -1.992081 C -0.893875 -1.992081 0.00065625 -1.101456 0.00065625 0.00010625 Z M 0.00065625 0.00010625 " transform="matrix(1,0,0,-1,41.222,61.1837)"/>
<path style="fill-rule:nonzero;fill:rgb(79.998779%,79.998779%,79.998779%);fill-opacity:1;stroke-width:0.797;stroke-linecap:butt;stroke-linejoin:miter;stroke:rgb(50%,50%,50%);stroke-opacity:1;stroke-miterlimit:10;" d="M -0.00083125 0.000025 C -0.00083125 1.101587 -0.891456 1.992212 -1.993019 1.992212 C -3.094581 1.992212 -3.985206 1.101587 -3.985206 0.000025 C -3.985206 -1.101538 -3.094581 -1.992163 -1.993019 -1.992163 C -0.891456 -1.992163 -0.00083125 -1.101538 -0.00083125 0.000025 Z M -0.00083125 0.000025 " transform="matrix(1,0,0,-1,22.6063,54.7344)"/>
<path style="fill-rule:nonzero;fill:rgb(79.998779%,79.998779%,79.998779%);fill-opacity:1;stroke-width:0.797;stroke-linecap:butt;stroke-linejoin:miter;stroke:rgb(50%,50%,50%);stroke-opacity:1;stroke-miterlimit:10;" d="M 0.000325 -0.00099375 C 0.000325 1.100569 -0.8903 1.991194 -1.991863 1.991194 C -3.093425 1.991194 -3.98405 1.100569 -3.98405 -0.00099375 C -3.98405 -1.09865 -3.093425 -1.993181 -1.991863 -1.993181 C -0.8903 -1.993181 0.000325 -1.09865 0.000325 -0.00099375 Z M 0.000325 -0.00099375 " transform="matrix(1,0,0,-1,29.3278,58.9326)"/>
<path style="fill-rule:nonzero;fill:rgb(79.998779%,79.998779%,79.998779%);fill-opacity:1;stroke-width:0.797;stroke-linecap:butt;stroke-linejoin:miter;stroke:rgb(50%,50%,50%);stroke-opacity:1;stroke-miterlimit:10;" d="M -0.001375 -0.0008 C -0.001375 1.100763 -0.892 1.991388 -1.993562 1.991388 C -3.091219 1.991388 -3.98575 1.100763 -3.98575 -0.0008 C -3.98575 -1.098456 -3.091219 -1.992987 -1.993562 -1.992987 C -0.892 -1.992987 -0.001375 -1.098456 -0.001375 -0.0008 Z M -0.001375 -0.0008 " transform="matrix(1,0,0,-1,12.2045,40.1867)"/>
<path style="fill-rule:nonzero;fill:rgb(79.998779%,79.998779%,79.998779%);fill-opacity:1;stroke-width:0.797;stroke-linecap:butt;stroke-linejoin:miter;stroke:rgb(50%,50%,50%);stroke-opacity:1;stroke-miterlimit:10;" d="M 0.00064375 0.00043125 C 0.00064375 1.098088 -0.893887 1.992619 -1.991544 1.992619 C -3.093106 1.992619 -3.983731 1.098088 -3.983731 0.00043125 C -3.983731 -1.101131 -3.093106 -1.991756 -1.991544 -1.991756 C -0.893887 -1.991756 0.00064375 -1.101131 0.00064375 0.00043125 Z M 0.00064375 0.00043125 " transform="matrix(1,0,0,-1,34.2767,88.9809)"/>
<path style="fill-rule:nonzero;fill:rgb(79.998779%,79.998779%,79.998779%);fill-opacity:1;stroke-width:0.797;stroke-linecap:butt;stroke-linejoin:miter;stroke:rgb(50%,50%,50%);stroke-opacity:1;stroke-miterlimit:10;" d="M 0.0002625 -0.00035625 C 0.0002625 1.101206 -0.890362 1.991831 -1.991925 1.991831 C -3.093487 1.991831 -3.984112 1.101206 -3.984112 -0.00035625 C -3.984112 -1.101919 -3.093487 -1.992544 -1.991925 -1.992544 C -0.890362 -1.992544 0.0002625 -1.101919 0.0002625 -0.00035625 Z M 0.0002625 -0.00035625 " transform="matrix(1,0,0,-1,51.7888,66.0973)"/>
<path style="fill-rule:nonzero;fill:rgb(79.998779%,79.998779%,79.998779%);fill-opacity:1;stroke-width:0.797;stroke-linecap:butt;stroke-linejoin:miter;stroke:rgb(50%,50%,50%);stroke-opacity:1;stroke-miterlimit:10;" d="M -0.0013875 -0.00159375 C -0.0013875 1.099969 -0.892012 1.9945 -1.993575 1.9945 C -3.091231 1.9945 -3.985762 1.099969 -3.985762 -0.00159375 C -3.985762 -1.09925 -3.091231 -1.993781 -1.993575 -1.993781 C -0.892012 -1.993781 -0.0013875 -1.09925 -0.0013875 -0.00159375 Z M -0.0013875 -0.00159375 " transform="matrix(1,0,0,-1,20.5717,41.8695)"/>
<path style="fill-rule:nonzero;fill:rgb(79.998779%,79.998779%,79.998779%);fill-opacity:1;stroke-width:0.797;stroke-linecap:butt;stroke-linejoin:miter;stroke:rgb(50%,50%,50%);stroke-opacity:1;stroke-miterlimit:10;" d="M -0.00000625 -0.0012625 C -0.00000625 1.1003 -0.890631 1.994831 -1.992194 1.994831 C -3.093756 1.994831 -3.984381 1.1003 -3.984381 -0.0012625 C -3.984381 -1.098919 -3.093756 -1.99345 -1.992194 -1.99345 C -0.890631 -1.99345 -0.00000625 -1.098919 -0.00000625 -0.0012625 Z M -0.00000625 -0.0012625 " transform="matrix(1,0,0,-1,26.9961,40.9753)"/>
<path style="fill-rule:nonzero;fill:rgb(79.998779%,79.998779%,79.998779%);fill-opacity:1;stroke-width:0.797;stroke-linecap:butt;stroke-linejoin:miter;stroke:rgb(50%,50%,50%);stroke-opacity:1;stroke-miterlimit:10;" d="M -0.00151875 -0.00005625 C -0.00151875 1.101506 -0.892144 1.992131 -1.993706 1.992131 C -3.091363 1.992131 -3.985894 1.101506 -3.985894 -0.00005625 C -3.985894 -1.101619 -3.091363 -1.992244 -1.993706 -1.992244 C -0.892144 -1.992244 -0.00151875 -1.101619 -0.00151875 -0.00005625 Z M -0.00151875 -0.00005625 " transform="matrix(1,0,0,-1,56.7398,78.2226)"/>
<path style="fill-rule:nonzero;fill:rgb(79.998779%,79.998779%,79.998779%);fill-opacity:1;stroke-width:0.797;stroke-linecap:butt;stroke-linejoin:miter;stroke:rgb(50%,50%,50%);stroke-opacity:1;stroke-miterlimit:10;" d="M -0.0016 -0.0019125 C -0.0016 1.09965 -0.892225 1.994181 -1.993787 1.994181 C -3.091444 1.994181 -3.985975 1.09965 -3.985975 -0.0019125 C -3.985975 -1.099569 -3.091444 -1.9941 -1.993787 -1.9941 C -0.892225 -1.9941 -0.0016 -1.099569 -0.0016 -0.0019125 Z M -0.0016 -0.0019125 " transform="matrix(1,0,0,-1,50.3766,83.1934)"/>
<path style="fill-rule:nonzero;fill:rgb(79.998779%,79.998779%,79.998779%);fill-opacity:1;stroke-width:0.797;stroke-linecap:butt;stroke-linejoin:miter;stroke:rgb(50%,50%,50%);stroke-opacity:1;stroke-miterlimit:10;" d="M 0.0010875 -0.00066875 C 0.0010875 1.100894 -0.893444 1.991519 -1.9911 1.991519 C -3.092663 1.991519 -3.983288 1.100894 -3.983288 -0.00066875 C -3.983288 -1.098325 -3.092663 -1.992856 -1.9911 -1.992856 C -0.893444 -1.992856 0.0010875 -1.098325 0.0010875 -0.00066875 Z M 0.0010875 -0.00066875 " transform="matrix(1,0,0,-1,50.5536,53.8548)"/>
<path style="fill-rule:nonzero;fill:rgb(79.998779%,79.998779%,79.998779%);fill-opacity:1;stroke-width:0.797;stroke-linecap:butt;stroke-linejoin:miter;stroke:rgb(50%,50%,50%);stroke-opacity:1;stroke-miterlimit:10;" d="M 0.00115 -0.00065 C 0.00115 1.100913 -0.893381 1.991538 -1.994944 1.991538 C -3.0926 1.991538 -3.983225 1.100913 -3.983225 -0.00065 C -3.983225 -1.098306 -3.0926 -1.992837 -1.994944 -1.992837 C -0.893381 -1.992837 0.00115 -1.098306 0.00115 -0.00065 Z M 0.00115 -0.00065 " transform="matrix(1,0,0,-1,70.4676,90.0931)"/>
<path style="fill-rule:nonzero;fill:rgb(79.998779%,79.998779%,79.998779%);fill-opacity:1;stroke-width:0.797;stroke-linecap:butt;stroke-linejoin:miter;stroke:rgb(50%,50%,50%);stroke-opacity:1;stroke-miterlimit:10;" d="M 0.00161875 -0.00174375 C 0.00161875 1.099819 -0.892913 1.99435 -1.994475 1.99435 C -3.092131 1.99435 -3.986663 1.099819 -3.986663 -0.00174375 C -3.986663 -1.0994 -3.092131 -1.993931 -1.994475 -1.993931 C -0.892913 -1.993931 0.00161875 -1.0994 0.00161875 -0.00174375 Z M 0.00161875 -0.00174375 " transform="matrix(1,0,0,-1,41.9476,74.6506)"/>
<path style="fill-rule:nonzero;fill:rgb(79.998779%,79.998779%,79.998779%);fill-opacity:1;stroke-width:0.797;stroke-linecap:butt;stroke-linejoin:miter;stroke:rgb(50%,50%,50%);stroke-opacity:1;stroke-miterlimit:10;" d="M 0.00008125 -0.000225 C 0.00008125 1.101337 -0.890544 1.991962 -1.992106 1.991962 C -3.093669 1.991962 -3.984294 1.101337 -3.984294 -0.000225 C -3.984294 -1.101788 -3.093669 -1.992413 -1.992106 -1.992413 C -0.890544 -1.992413 0.00008125 -1.101788 0.00008125 -0.000225 Z M 0.00008125 -0.000225 " transform="matrix(1,0,0,-1,48.6132,87.8279)"/>
<path style="fill-rule:nonzero;fill:rgb(79.998779%,79.998779%,79.998779%);fill-opacity:1;stroke-width:0.797;stroke-linecap:butt;stroke-linejoin:miter;stroke:rgb(50%,50%,50%);stroke-opacity:1;stroke-miterlimit:10;" d="M 0.00081875 0.00064375 C 0.00081875 1.0983 -0.893712 1.992831 -1.991369 1.992831 C -3.092931 1.992831 -3.983556 1.0983 -3.983556 0.00064375 C -3.983556 -1.100919 -3.092931 -1.991544 -1.991369 -1.991544 C -0.893712 -1.991544 0.00081875 -1.100919 0.00081875 0.00064375 Z M 0.00081875 0.00064375 " transform="matrix(1,0,0,-1,49.0109,86.3483)"/>
<path style="fill-rule:nonzero;fill:rgb(79.998779%,79.998779%,79.998779%);fill-opacity:1;stroke-width:0.797;stroke-linecap:butt;stroke-linejoin:miter;stroke:rgb(50%,50%,50%);stroke-opacity:1;stroke-miterlimit:10;" d="M -0.00170625 0.0008875 C -0.00170625 1.098544 -0.892331 1.993075 -1.993894 1.993075 C -3.09155 1.993075 -3.986081 1.098544 -3.986081 0.0008875 C -3.986081 -1.100675 -3.09155 -1.9913 -1.993894 -1.9913 C -0.892331 -1.9913 -0.00170625 -1.100675 -0.00170625 0.0008875 Z M -0.00170625 0.0008875 " transform="matrix(1,0,0,-1,63.9978,87.8837)"/>
<path style="fill-rule:nonzero;fill:rgb(79.998779%,79.998779%,79.998779%);fill-opacity:1;stroke-width:0.797;stroke-linecap:butt;stroke-linejoin:miter;stroke:rgb(50%,50%,50%);stroke-opacity:1;stroke-miterlimit:10;" d="M -0.00181875 -0.00109375 C -0.00181875 1.100469 -0.892444 1.991094 -1.994006 1.991094 C -3.091663 1.991094 -3.986194 1.100469 -3.986194 -0.00109375 C -3.986194 -1.09875 -3.091663 -1.993281 -1.994006 -1.993281 C -0.892444 -1.993281 -0.00181875 -1.09875 -0.00181875 -0.00109375 Z M -0.00181875 -0.00109375 " transform="matrix(1,0,0,-1,52.0526,88.4325)"/>
<path style="fill-rule:nonzero;fill:rgb(79.998779%,79.998779%,79.998779%);fill-opacity:1;stroke-width:0.797;stroke-linecap:butt;stroke-linejoin:miter;stroke:rgb(50%,50%,50%);stroke-opacity:1;stroke-miterlimit:10;" d="M 0.0015125 0.00171875 C 0.0015125 1.099375 -0.893019 1.993906 -1.994581 1.993906 C -3.092238 1.993906 -3.986769 1.099375 -3.986769 0.00171875 C -3.986769 -1.099844 -3.092238 -1.994375 -1.994581 -1.994375 C -0.893019 -1.994375 0.0015125 -1.099844 0.0015125 0.00171875 Z M 0.0015125 0.00171875 " transform="matrix(1,0,0,-1,48.8188,79.49)"/>
<path style="fill-rule:nonzero;fill:rgb(79.998779%,79.998779%,79.998779%);fill-opacity:1;stroke-width:0.797;stroke-linecap:butt;stroke-linejoin:miter;stroke:rgb(50%,50%,50%);stroke-opacity:1;stroke-miterlimit:10;" d="M -0.0019375 0.0016 C -0.0019375 1.099256 -0.892562 1.993787 -1.994125 1.993787 C -3.091781 1.993787 -3.986312 1.099256 -3.986312 0.0016 C -3.986312 -1.099963 -3.091781 -1.994494 -1.994125 -1.994494 C -0.892562 -1.994494 -0.0019375 -1.099963 -0.0019375 0.0016 Z M -0.0019375 0.0016 " transform="matrix(1,0,0,-1,62.916,76.4391)"/>
<path style="fill-rule:nonzero;fill:rgb(79.998779%,79.998779%,79.998779%);fill-opacity:1;stroke-width:0.797;stroke-linecap:butt;stroke-linejoin:miter;stroke:rgb(50%,50%,50%);stroke-opacity:1;stroke-miterlimit:10;" d="M 0.0016375 0.0018625 C 0.0016375 1.099519 -0.892894 1.99405 -1.994456 1.99405 C -3.092112 1.99405 -3.986644 1.099519 -3.986644 0.0018625 C -3.986644 -1.0997 -3.092112 -1.994231 -1.994456 -1.994231 C -0.892894 -1.994231 0.0016375 -1.0997 0.0016375 0.0018625 Z M 0.0016375 0.0018625 " transform="matrix(1,0,0,-1,45.3968,83.4628)"/>
<path style="fill-rule:nonzero;fill:rgb(79.998779%,79.998779%,79.998779%);fill-opacity:1;stroke-width:0.797;stroke-linecap:butt;stroke-linejoin:miter;stroke:rgb(50%,50%,50%);stroke-opacity:1;stroke-miterlimit:10;" d="M 0.00055 0.0007125 C 0.00055 1.098369 -0.890075 1.9929 -1.991638 1.9929 C -3.0932 1.9929 -3.983825 1.098369 -3.983825 0.0007125 C -3.983825 -1.10085 -3.0932 -1.991475 -1.991638 -1.991475 C -0.890075 -1.991475 0.00055 -1.10085 0.00055 0.0007125 Z M 0.00055 0.0007125 " transform="matrix(1,0,0,-1,53.1557,87.4929)"/>
<path style="fill-rule:nonzero;fill:rgb(79.998779%,79.998779%,79.998779%);fill-opacity:1;stroke-width:0.797;stroke-linecap:butt;stroke-linejoin:miter;stroke:rgb(50%,50%,50%);stroke-opacity:1;stroke-miterlimit:10;" d="M 0.000275 0.0019375 C 0.000275 1.099594 -0.89035 1.994125 -1.991912 1.994125 C -3.093475 1.994125 -3.9841 1.099594 -3.9841 0.0019375 C -3.9841 -1.099625 -3.093475 -1.994156 -1.991912 -1.994156 C -0.89035 -1.994156 0.000275 -1.099625 0.000275 0.0019375 Z M 0.000275 0.0019375 " transform="matrix(1,0,0,-1,57.7341,71.041)"/>
<path style="fill-rule:nonzero;fill:rgb(79.998779%,79.998779%,79.998779%);fill-opacity:1;stroke-width:0.797;stroke-linecap:butt;stroke-linejoin:miter;stroke:rgb(50%,50%,50%);stroke-opacity:1;stroke-miterlimit:10;" d="M -0.00095625 0.00035625 C -0.00095625 1.101919 -0.891581 1.992544 -1.993144 1.992544 C -3.094706 1.992544 -3.985331 1.101919 -3.985331 0.00035625 C -3.985331 -1.101206 -3.094706 -1.991831 -1.993144 -1.991831 C -0.891581 -1.991831 -0.00095625 -1.101206 -0.00095625 0.00035625 Z M -0.00095625 0.00035625 " transform="matrix(1,0,0,-1,54.4033,92.3402)"/>
<path style="fill-rule:nonzero;fill:rgb(79.998779%,79.998779%,79.998779%);fill-opacity:1;stroke-width:0.797;stroke-linecap:butt;stroke-linejoin:miter;stroke:rgb(50%,50%,50%);stroke-opacity:1;stroke-miterlimit:10;" d="M -0.00095 0.0001625 C -0.00095 1.101725 -0.891575 1.99235 -1.993138 1.99235 C -3.0947 1.99235 -3.985325 1.101725 -3.985325 0.0001625 C -3.985325 -1.1014 -3.0947 -1.992025 -1.993138 -1.992025 C -0.891575 -1.992025 -0.00095 -1.1014 -0.00095 0.0001625 Z M -0.00095 0.0001625 " transform="matrix(1,0,0,-1,69.2197,76.6486)"/>
<path style="fill-rule:nonzero;fill:rgb(79.998779%,79.998779%,79.998779%);fill-opacity:1;stroke-width:0.797;stroke-linecap:butt;stroke-linejoin:miter;stroke:rgb(50%,50%,50%);stroke-opacity:1;stroke-miterlimit:10;" d="M 0.00071875 0.00155 C 0.00071875 1.099206 -0.893812 1.993738 -1.991469 1.993738 C -3.093031 1.993738 -3.983656 1.099206 -3.983656 0.00155 C -3.983656 -1.100012 -3.093031 -1.994544 -1.991469 -1.994544 C -0.893812 -1.994544 0.00071875 -1.100012 0.00071875 0.00155 Z M 0.00071875 0.00155 " transform="matrix(1,0,0,-1,45.3235,70.7203)"/>
<path style="fill-rule:nonzero;fill:rgb(79.998779%,79.998779%,79.998779%);fill-opacity:1;stroke-width:0.797;stroke-linecap:butt;stroke-linejoin:miter;stroke:rgb(50%,50%,50%);stroke-opacity:1;stroke-miterlimit:10;" d="M -0.00161875 0.0008625 C -0.00161875 1.098519 -0.892244 1.99305 -1.993806 1.99305 C -3.091463 1.99305 -3.985994 1.098519 -3.985994 0.0008625 C -3.985994 -1.1007 -3.091463 -1.991325 -1.993806 -1.991325 C -0.892244 -1.991325 -0.00161875 -1.1007 -0.00161875 0.0008625 Z M -0.00161875 0.0008625 " transform="matrix(1,0,0,-1,56.3649,96.6493)"/>
<path style="fill-rule:nonzero;fill:rgb(79.998779%,79.998779%,79.998779%);fill-opacity:1;stroke-width:0.797;stroke-linecap:butt;stroke-linejoin:miter;stroke:rgb(50%,50%,50%);stroke-opacity:1;stroke-miterlimit:10;" d="M -0.0007125 -0.00105625 C -0.0007125 1.100506 -0.891338 1.991131 -1.9929 1.991131 C -3.094463 1.991131 -3.985088 1.100506 -3.985088 -0.00105625 C -3.985088 -1.098712 -3.094463 -1.993244 -1.9929 -1.993244 C -0.891338 -1.993244 -0.0007125 -1.098712 -0.0007125 -0.00105625 Z M -0.0007125 -0.00105625 " transform="matrix(1,0,0,-1,51.8054,65.5966)"/>
<path style="fill-rule:nonzero;fill:rgb(79.998779%,79.998779%,79.998779%);fill-opacity:1;stroke-width:0.797;stroke-linecap:butt;stroke-linejoin:miter;stroke:rgb(50%,50%,50%);stroke-opacity:1;stroke-miterlimit:10;" d="M -0.00149375 -0.00025 C -0.00149375 1.101313 -0.892119 1.991938 -1.993681 1.991938 C -3.091338 1.991938 -3.985869 1.101313 -3.985869 -0.00025 C -3.985869 -1.101812 -3.091338 -1.992437 -1.993681 -1.992437 C -0.892119 -1.992437 -0.00149375 -1.101812 -0.00149375 -0.00025 Z M -0.00149375 -0.00025 " transform="matrix(1,0,0,-1,66.5679,71.031)"/>
<path style="fill-rule:nonzero;fill:rgb(79.998779%,79.998779%,79.998779%);fill-opacity:1;stroke-width:0.797;stroke-linecap:butt;stroke-linejoin:miter;stroke:rgb(50%,50%,50%);stroke-opacity:1;stroke-miterlimit:10;" d="M 0.00008125 0.00055625 C 0.00008125 1.098213 -0.890544 1.992744 -1.992106 1.992744 C -3.093669 1.992744 -3.984294 1.098213 -3.984294 0.00055625 C -3.984294 -1.101006 -3.093669 -1.991631 -1.992106 -1.991631 C -0.890544 -1.991631 0.00008125 -1.101006 0.00008125 0.00055625 Z M 0.00008125 0.00055625 " transform="matrix(1,0,0,-1,95.3632,39.9029)"/>
<path style="fill-rule:nonzero;fill:rgb(79.998779%,79.998779%,79.998779%);fill-opacity:1;stroke-width:0.797;stroke-linecap:butt;stroke-linejoin:miter;stroke:rgb(50%,50%,50%);stroke-opacity:1;stroke-miterlimit:10;" d="M -0.00158125 0.00146875 C -0.00158125 1.099125 -0.892206 1.993656 -1.993769 1.993656 C -3.091425 1.993656 -3.985956 1.099125 -3.985956 0.00146875 C -3.985956 -1.100094 -3.091425 -1.994625 -1.993769 -1.994625 C -0.892206 -1.994625 -0.00158125 -1.100094 -0.00158125 0.00146875 Z M -0.00158125 0.00146875 " transform="matrix(1,0,0,-1,71.0133,13.0835)"/>
<path style="fill-rule:nonzero;fill:rgb(79.998779%,79.998779%,79.998779%);fill-opacity:1;stroke-width:0.797;stroke-linecap:butt;stroke-linejoin:miter;stroke:rgb(50%,50%,50%);stroke-opacity:1;stroke-miterlimit:10;" d="M 0.00125 0.00054375 C 0.00125 1.0982 -0.893281 1.992731 -1.994844 1.992731 C -3.0925 1.992731 -3.983125 1.0982 -3.983125 0.00054375 C -3.983125 -1.101019 -3.0925 -1.991644 -1.994844 -1.991644 C -0.893281 -1.991644 0.00125 -1.101019 0.00125 0.00054375 Z M 0.00125 0.00054375 " transform="matrix(1,0,0,-1,90.405,19.9732)"/>
<path style="fill-rule:nonzero;fill:rgb(79.998779%,79.998779%,79.998779%);fill-opacity:1;stroke-width:0.797;stroke-linecap:butt;stroke-linejoin:miter;stroke:rgb(50%,50%,50%);stroke-opacity:1;stroke-miterlimit:10;" d="M 0.00163125 -0.00088125 C 0.00163125 1.100681 -0.8929 1.991306 -1.994462 1.991306 C -3.092119 1.991306 -3.98665 1.100681 -3.98665 -0.00088125 C -3.98665 -1.098537 -3.092119 -1.993069 -1.994462 -1.993069 C -0.8929 -1.993069 0.00163125 -1.098537 0.00163125 -0.00088125 Z M 0.00163125 -0.00088125 " transform="matrix(1,0,0,-1,77.4554,3.2999)"/>
<path style="fill-rule:nonzero;fill:rgb(79.998779%,79.998779%,79.998779%);fill-opacity:1;stroke-width:0.797;stroke-linecap:butt;stroke-linejoin:miter;stroke:rgb(50%,50%,50%);stroke-opacity:1;stroke-miterlimit:10;" d="M 0.0015125 -0.000175 C 0.0015125 1.101388 -0.893019 1.992013 -1.994581 1.992013 C -3.092238 1.992013 -3.986769 1.101388 -3.986769 -0.000175 C -3.986769 -1.101737 -3.092238 -1.992362 -1.994581 -1.992362 C -0.893019 -1.992362 0.0015125 -1.101737 0.0015125 -0.000175 Z M 0.0015125 -0.000175 " transform="matrix(1,0,0,-1,70.2563,14.6717)"/>
<path style="fill-rule:nonzero;fill:rgb(79.998779%,79.998779%,79.998779%);fill-opacity:1;stroke-width:0.797;stroke-linecap:butt;stroke-linejoin:miter;stroke:rgb(50%,50%,50%);stroke-opacity:1;stroke-miterlimit:10;" d="M 0.0010875 0.00075 C 0.0010875 1.098406 -0.893444 1.992938 -1.9911 1.992938 C -3.092662 1.992938 -3.983287 1.098406 -3.983287 0.00075 C -3.983287 -1.100812 -3.092662 -1.991437 -1.9911 -1.991437 C -0.893444 -1.991437 0.0010875 -1.100812 0.0010875 0.00075 Z M 0.0010875 0.00075 " transform="matrix(1,0,0,-1,77.3036,8.782)"/>
<path style="fill-rule:nonzero;fill:rgb(79.998779%,79.998779%,79.998779%);fill-opacity:1;stroke-width:0.797;stroke-linecap:butt;stroke-linejoin:miter;stroke:rgb(50%,50%,50%);stroke-opacity:1;stroke-miterlimit:10;" d="M 0.00164375 -0.00055625 C 0.00164375 1.101006 -0.892888 1.991631 -1.99445 1.991631 C -3.092106 1.991631 -3.986638 1.101006 -3.986638 -0.00055625 C -3.986638 -1.098212 -3.092106 -1.992744 -1.99445 -1.992744 C -0.892888 -1.992744 0.00164375 -1.098212 0.00164375 -0.00055625 Z M 0.00164375 -0.00055625 " transform="matrix(1,0,0,-1,80.9007,40.4721)"/>
<path style="fill-rule:nonzero;fill:rgb(79.998779%,79.998779%,79.998779%);fill-opacity:1;stroke-width:0.797;stroke-linecap:butt;stroke-linejoin:miter;stroke:rgb(50%,50%,50%);stroke-opacity:1;stroke-miterlimit:10;" d="M -0.001425 -0.00015625 C -0.001425 1.101406 -0.89205 1.992031 -1.993613 1.992031 C -3.091269 1.992031 -3.9858 1.101406 -3.9858 -0.00015625 C -3.9858 -1.101719 -3.091269 -1.992344 -1.993613 -1.992344 C -0.89205 -1.992344 -0.001425 -1.101719 -0.001425 -0.00015625 Z M -0.001425 -0.00015625 " transform="matrix(1,0,0,-1,99.1108,18.535)"/>
<path style="fill-rule:nonzero;fill:rgb(79.998779%,79.998779%,79.998779%);fill-opacity:1;stroke-width:0.797;stroke-linecap:butt;stroke-linejoin:miter;stroke:rgb(50%,50%,50%);stroke-opacity:1;stroke-miterlimit:10;" d="M 0.00063125 -0.0010875 C 0.00063125 1.100475 -0.8939 1.9911 -1.991556 1.9911 C -3.093119 1.9911 -3.983744 1.100475 -3.983744 -0.0010875 C -3.983744 -1.098744 -3.093119 -1.993275 -1.991556 -1.993275 C -0.8939 -1.993275 0.00063125 -1.098744 0.00063125 -0.0010875 Z M 0.00063125 -0.0010875 " transform="matrix(1,0,0,-1,97.2689,15.8661)"/>
<path style="fill-rule:nonzero;fill:rgb(79.998779%,79.998779%,79.998779%);fill-opacity:1;stroke-width:0.797;stroke-linecap:butt;stroke-linejoin:miter;stroke:rgb(50%,50%,50%);stroke-opacity:1;stroke-miterlimit:10;" d="M 0.000625 -0.00035625 C 0.000625 1.101206 -0.893906 1.991831 -1.991562 1.991831 C -3.093125 1.991831 -3.98375 1.101206 -3.98375 -0.00035625 C -3.98375 -1.101919 -3.093125 -1.992544 -1.991562 -1.992544 C -0.893906 -1.992544 0.000625 -1.101919 0.000625 -0.00035625 Z M 0.000625 -0.00035625 " transform="matrix(1,0,0,-1,83.515,13.5348)"/>
<path style="fill-rule:nonzero;fill:rgb(79.998779%,79.998779%,79.998779%);fill-opacity:1;stroke-width:0.797;stroke-linecap:butt;stroke-linejoin:miter;stroke:rgb(50%,50%,50%);stroke-opacity:1;stroke-miterlimit:10;" d="M 0.0009125 -0.0004375 C 0.0009125 1.101125 -0.893619 1.99175 -1.991275 1.99175 C -3.092837 1.99175 -3.983462 1.101125 -3.983462 -0.0004375 C -3.983462 -1.098094 -3.092837 -1.992625 -1.991275 -1.992625 C -0.893619 -1.992625 0.0009125 -1.098094 0.0009125 -0.0004375 Z M 0.0009125 -0.0004375 " transform="matrix(1,0,0,-1,92.9444,30.148)"/>
<path style="fill-rule:nonzero;fill:rgb(79.998779%,79.998779%,79.998779%);fill-opacity:1;stroke-width:0.797;stroke-linecap:butt;stroke-linejoin:miter;stroke:rgb(50%,50%,50%);stroke-opacity:1;stroke-miterlimit:10;" d="M -0.00046875 -0.000575 C -0.00046875 1.100988 -0.891094 1.991613 -1.992656 1.991613 C -3.094219 1.991613 -3.984844 1.100988 -3.984844 -0.000575 C -3.984844 -1.098231 -3.094219 -1.992762 -1.992656 -1.992762 C -0.891094 -1.992762 -0.00046875 -1.098231 -0.00046875 -0.000575 Z M -0.00046875 -0.000575 " transform="matrix(1,0,0,-1,92.0825,25.7963)"/>
<path style="fill-rule:nonzero;fill:rgb(79.998779%,79.998779%,79.998779%);fill-opacity:1;stroke-width:0.797;stroke-linecap:butt;stroke-linejoin:miter;stroke:rgb(50%,50%,50%);stroke-opacity:1;stroke-miterlimit:10;" d="M -0.00185625 0.00159375 C -0.00185625 1.09925 -0.892481 1.993781 -1.994044 1.993781 C -3.0917 1.993781 -3.986231 1.09925 -3.986231 0.00159375 C -3.986231 -1.099969 -3.0917 -1.9945 -1.994044 -1.9945 C -0.892481 -1.9945 -0.00185625 -1.099969 -0.00185625 0.00159375 Z M -0.00185625 0.00159375 " transform="matrix(1,0,0,-1,96.4042,25.443)"/>
<path style="fill-rule:nonzero;fill:rgb(79.998779%,79.998779%,79.998779%);fill-opacity:1;stroke-width:0.797;stroke-linecap:butt;stroke-linejoin:miter;stroke:rgb(50%,50%,50%);stroke-opacity:1;stroke-miterlimit:10;" d="M -0.0009875 0.00145 C -0.0009875 1.099106 -0.891612 1.993637 -1.993175 1.993637 C -3.094737 1.993637 -3.985362 1.099106 -3.985362 0.00145 C -3.985362 -1.100113 -3.094737 -1.994644 -1.993175 -1.994644 C -0.891612 -1.994644 -0.0009875 -1.100113 -0.0009875 0.00145 Z M -0.0009875 0.00145 " transform="matrix(1,0,0,-1,55.4463,14.6577)"/>
<path style="fill-rule:nonzero;fill:rgb(79.998779%,79.998779%,79.998779%);fill-opacity:1;stroke-width:0.797;stroke-linecap:butt;stroke-linejoin:miter;stroke:rgb(50%,50%,50%);stroke-opacity:1;stroke-miterlimit:10;" d="M -0.00013125 -0.0004 C -0.00013125 1.101162 -0.890756 1.991787 -1.992319 1.991787 C -3.093881 1.991787 -3.984506 1.101162 -3.984506 -0.0004 C -3.984506 -1.098056 -3.093881 -1.992588 -1.992319 -1.992588 C -0.890756 -1.992588 -0.00013125 -1.098056 -0.00013125 -0.0004 Z M -0.00013125 -0.0004 " transform="matrix(1,0,0,-1,66.7306,20.9996)"/>
<path style="fill-rule:nonzero;fill:rgb(79.998779%,79.998779%,79.998779%);fill-opacity:1;stroke-width:0.797;stroke-linecap:butt;stroke-linejoin:miter;stroke:rgb(50%,50%,50%);stroke-opacity:1;stroke-miterlimit:10;" d="M -0.00081875 -0.0007625 C -0.00081875 1.1008 -0.891444 1.991425 -1.993006 1.991425 C -3.094569 1.991425 -3.985194 1.1008 -3.985194 -0.0007625 C -3.985194 -1.098419 -3.094569 -1.99295 -1.993006 -1.99295 C -0.891444 -1.99295 -0.00081875 -1.098419 -0.00081875 -0.0007625 Z M -0.00081875 -0.0007625 " transform="matrix(1,0,0,-1,76.9891,11.0383)"/>
<path style="fill-rule:nonzero;fill:rgb(79.998779%,79.998779%,79.998779%);fill-opacity:1;stroke-width:0.797;stroke-linecap:butt;stroke-linejoin:miter;stroke:rgb(50%,50%,50%);stroke-opacity:1;stroke-miterlimit:10;" d="M -0.00183125 -0.00159375 C -0.00183125 1.099969 -0.892456 1.9945 -1.994019 1.9945 C -3.091675 1.9945 -3.986206 1.099969 -3.986206 -0.00159375 C -3.986206 -1.09925 -3.091675 -1.993781 -1.994019 -1.993781 C -0.892456 -1.993781 -0.00183125 -1.09925 -0.00183125 -0.00159375 Z M -0.00183125 -0.00159375 " transform="matrix(1,0,0,-1,67.1698,23.6195)"/>
<path style="fill-rule:nonzero;fill:rgb(79.998779%,79.998779%,79.998779%);fill-opacity:1;stroke-width:0.797;stroke-linecap:butt;stroke-linejoin:miter;stroke:rgb(50%,50%,50%);stroke-opacity:1;stroke-miterlimit:10;" d="M 0.00190625 -0.00133125 C 0.00190625 1.100231 -0.892625 1.994763 -1.994187 1.994763 C -3.091844 1.994763 -3.986375 1.100231 -3.986375 -0.00133125 C -3.986375 -1.098987 -3.091844 -1.993519 -1.994187 -1.993519 C -0.892625 -1.993519 0.00190625 -1.098987 0.00190625 -0.00133125 Z M 0.00190625 -0.00133125 " transform="matrix(1,0,0,-1,77.127,41.2682)"/>
<path style="fill-rule:nonzero;fill:rgb(79.998779%,79.998779%,79.998779%);fill-opacity:1;stroke-width:0.797;stroke-linecap:butt;stroke-linejoin:miter;stroke:rgb(50%,50%,50%);stroke-opacity:1;stroke-miterlimit:10;" d="M 0.0017375 0.00144375 C 0.0017375 1.0991 -0.892794 1.993631 -1.994356 1.993631 C -3.092013 1.993631 -3.986544 1.0991 -3.986544 0.00144375 C -3.986544 -1.100119 -3.092013 -1.99465 -1.994356 -1.99465 C -0.892794 -1.99465 0.0017375 -1.100119 0.0017375 0.00144375 Z M 0.0017375 0.00144375 " transform="matrix(1,0,0,-1,83.6467,30.2866)"/>
<path style="fill-rule:nonzero;fill:rgb(79.998779%,79.998779%,79.998779%);fill-opacity:1;stroke-width:0.797;stroke-linecap:butt;stroke-linejoin:miter;stroke:rgb(50%,50%,50%);stroke-opacity:1;stroke-miterlimit:10;" d="M 0.001 -0.00194375 C 0.001 1.099619 -0.893531 1.99415 -1.991187 1.99415 C -3.09275 1.99415 -3.983375 1.099619 -3.983375 -0.00194375 C -3.983375 -1.0996 -3.09275 -1.994131 -1.991187 -1.994131 C -0.893531 -1.994131 0.001 -1.0996 0.001 -0.00194375 Z M 0.001 -0.00194375 " transform="matrix(1,0,0,-1,94.8115,25.0879)"/>
<path style="fill-rule:nonzero;fill:rgb(100%,96.939087%,40.000916%);fill-opacity:0.5;stroke-width:0.797;stroke-linecap:butt;stroke-linejoin:miter;stroke:rgb(100%,94.898987%,0%);stroke-opacity:0.5;stroke-miterlimit:10;" d="M 6.702125 25.967094 L 12.682594 25.967094 L 12.682594 31.947563 L 6.702125 31.947563 Z M 6.702125 25.967094 " transform="matrix(1,0,0,-1,3.626,100.221)"/>
<path style="fill-rule:nonzero;fill:rgb(100%,96.939087%,40.000916%);fill-opacity:0.5;stroke-width:0.797;stroke-linecap:butt;stroke-linejoin:miter;stroke:rgb(100%,94.898987%,0%);stroke-opacity:0.5;stroke-miterlimit:10;" d="M 16.393531 25.967094 L 22.374 25.967094 L 22.374 31.947563 L 16.393531 31.947563 Z M 16.393531 25.967094 " transform="matrix(1,0,0,-1,3.626,100.221)"/>
<path style="fill-rule:nonzero;fill:rgb(100%,96.939087%,40.000916%);fill-opacity:0.5;stroke-width:0.797;stroke-linecap:butt;stroke-linejoin:miter;stroke:rgb(100%,94.898987%,0%);stroke-opacity:0.5;stroke-miterlimit:10;" d="M 26.088844 25.967094 L 32.065406 25.967094 L 32.065406 31.947563 L 26.088844 31.947563 Z M 26.088844 25.967094 " transform="matrix(1,0,0,-1,3.626,100.221)"/>
<path style="fill-rule:nonzero;fill:rgb(100%,96.939087%,40.000916%);fill-opacity:0.5;stroke-width:0.797;stroke-linecap:butt;stroke-linejoin:miter;stroke:rgb(100%,94.898987%,0%);stroke-opacity:0.5;stroke-miterlimit:10;" d="M -2.989281 35.619438 L 2.987281 35.619438 L 2.987281 41.599906 L -2.989281 41.599906 Z M -2.989281 35.619438 " transform="matrix(1,0,0,-1,3.626,100.221)"/>
<path style="fill-rule:nonzero;fill:rgb(100%,96.939087%,40.000916%);fill-opacity:0.5;stroke-width:0.797;stroke-linecap:butt;stroke-linejoin:miter;stroke:rgb(100%,94.898987%,0%);stroke-opacity:0.5;stroke-miterlimit:10;" d="M 6.702125 35.619438 L 12.682594 35.619438 L 12.682594 41.599906 L 6.702125 41.599906 Z M 6.702125 35.619438 " transform="matrix(1,0,0,-1,3.626,100.221)"/>
<path style="fill-rule:nonzero;fill:rgb(100%,96.939087%,40.000916%);fill-opacity:0.5;stroke-width:0.797;stroke-linecap:butt;stroke-linejoin:miter;stroke:rgb(100%,94.898987%,0%);stroke-opacity:0.5;stroke-miterlimit:10;" d="M 16.393531 35.619438 L 22.374 35.619438 L 22.374 41.599906 L 16.393531 41.599906 Z M 16.393531 35.619438 " transform="matrix(1,0,0,-1,3.626,100.221)"/>
<path style="fill-rule:nonzero;fill:rgb(100%,96.939087%,40.000916%);fill-opacity:0.5;stroke-width:0.797;stroke-linecap:butt;stroke-linejoin:miter;stroke:rgb(100%,94.898987%,0%);stroke-opacity:0.5;stroke-miterlimit:10;" d="M 26.088844 35.619438 L 32.065406 35.619438 L 32.065406 41.599906 L 26.088844 41.599906 Z M 26.088844 35.619438 " transform="matrix(1,0,0,-1,3.626,100.221)"/>
<path style="fill-rule:nonzero;fill:rgb(100%,96.939087%,40.000916%);fill-opacity:0.5;stroke-width:0.797;stroke-linecap:butt;stroke-linejoin:miter;stroke:rgb(100%,94.898987%,0%);stroke-opacity:0.5;stroke-miterlimit:10;" d="M 35.78025 35.619438 L 41.756813 35.619438 L 41.756813 41.599906 L 35.78025 41.599906 Z M 35.78025 35.619438 " transform="matrix(1,0,0,-1,3.626,100.221)"/>
<path style="fill-rule:nonzero;fill:rgb(100%,96.939087%,40.000916%);fill-opacity:0.5;stroke-width:0.797;stroke-linecap:butt;stroke-linejoin:miter;stroke:rgb(100%,94.898987%,0%);stroke-opacity:0.5;stroke-miterlimit:10;" d="M -2.989281 45.271781 L 2.987281 45.271781 L 2.987281 51.25225 L -2.989281 51.25225 Z M -2.989281 45.271781 " transform="matrix(1,0,0,-1,3.626,100.221)"/>
<path style="fill-rule:nonzero;fill:rgb(100%,96.939087%,40.000916%);fill-opacity:0.5;stroke-width:0.797;stroke-linecap:butt;stroke-linejoin:miter;stroke:rgb(100%,94.898987%,0%);stroke-opacity:0.5;stroke-miterlimit:10;" d="M 6.702125 45.271781 L 12.682594 45.271781 L 12.682594 51.25225 L 6.702125 51.25225 Z M 6.702125 45.271781 " transform="matrix(1,0,0,-1,3.626,100.221)"/>
<path style="fill-rule:nonzero;fill:rgb(100%,96.939087%,40.000916%);fill-opacity:0.5;stroke-width:0.797;stroke-linecap:butt;stroke-linejoin:miter;stroke:rgb(100%,94.898987%,0%);stroke-opacity:0.5;stroke-miterlimit:10;" d="M 16.393531 45.271781 L 22.374 45.271781 L 22.374 51.25225 L 16.393531 51.25225 Z M 16.393531 45.271781 " transform="matrix(1,0,0,-1,3.626,100.221)"/>
<path style="fill-rule:nonzero;fill:rgb(100%,96.939087%,40.000916%);fill-opacity:0.5;stroke-width:0.797;stroke-linecap:butt;stroke-linejoin:miter;stroke:rgb(100%,94.898987%,0%);stroke-opacity:0.5;stroke-miterlimit:10;" d="M 26.088844 45.271781 L 32.065406 45.271781 L 32.065406 51.25225 L 26.088844 51.25225 Z M 26.088844 45.271781 " transform="matrix(1,0,0,-1,3.626,100.221)"/>
<path style="fill-rule:nonzero;fill:rgb(100%,96.939087%,40.000916%);fill-opacity:0.5;stroke-width:0.797;stroke-linecap:butt;stroke-linejoin:miter;stroke:rgb(100%,94.898987%,0%);stroke-opacity:0.5;stroke-miterlimit:10;" d="M 35.78025 45.271781 L 41.756813 45.271781 L 41.756813 51.25225 L 35.78025 51.25225 Z M 35.78025 45.271781 " transform="matrix(1,0,0,-1,3.626,100.221)"/>
<path style="fill-rule:nonzero;fill:rgb(100%,96.939087%,40.000916%);fill-opacity:0.5;stroke-width:0.797;stroke-linecap:butt;stroke-linejoin:miter;stroke:rgb(100%,94.898987%,0%);stroke-opacity:0.5;stroke-miterlimit:10;" d="M -2.989281 54.924125 L 2.987281 54.924125 L 2.987281 60.904594 L -2.989281 60.904594 Z M -2.989281 54.924125 " transform="matrix(1,0,0,-1,3.626,100.221)"/>
<path style="fill-rule:nonzero;fill:rgb(100%,96.939087%,40.000916%);fill-opacity:0.5;stroke-width:0.797;stroke-linecap:butt;stroke-linejoin:miter;stroke:rgb(100%,94.898987%,0%);stroke-opacity:0.5;stroke-miterlimit:10;" d="M 6.702125 54.924125 L 12.682594 54.924125 L 12.682594 60.904594 L 6.702125 60.904594 Z M 6.702125 54.924125 " transform="matrix(1,0,0,-1,3.626,100.221)"/>
<path style="fill-rule:nonzero;fill:rgb(100%,96.939087%,40.000916%);fill-opacity:0.5;stroke-width:0.797;stroke-linecap:butt;stroke-linejoin:miter;stroke:rgb(100%,94.898987%,0%);stroke-opacity:0.5;stroke-miterlimit:10;" d="M 16.393531 54.924125 L 22.374 54.924125 L 22.374 60.904594 L 16.393531 60.904594 Z M 16.393531 54.924125 " transform="matrix(1,0,0,-1,3.626,100.221)"/>
<path style="fill-rule:nonzero;fill:rgb(100%,96.939087%,40.000916%);fill-opacity:0.5;stroke-width:0.797;stroke-linecap:butt;stroke-linejoin:miter;stroke:rgb(100%,94.898987%,0%);stroke-opacity:0.5;stroke-miterlimit:10;" d="M 26.088844 54.924125 L 32.065406 54.924125 L 32.065406 60.904594 L 26.088844 60.904594 Z M 26.088844 54.924125 " transform="matrix(1,0,0,-1,3.626,100.221)"/>
<path style="fill-rule:nonzero;fill:rgb(100%,96.939087%,40.000916%);fill-opacity:0.5;stroke-width:0.797;stroke-linecap:butt;stroke-linejoin:miter;stroke:rgb(100%,94.898987%,0%);stroke-opacity:0.5;stroke-miterlimit:10;" d="M 35.78025 54.924125 L 41.756813 54.924125 L 41.756813 60.904594 L 35.78025 60.904594 Z M 35.78025 54.924125 " transform="matrix(1,0,0,-1,3.626,100.221)"/>
<path style="fill-rule:nonzero;fill:rgb(100%,96.939087%,40.000916%);fill-opacity:0.5;stroke-width:0.797;stroke-linecap:butt;stroke-linejoin:miter;stroke:rgb(100%,94.898987%,0%);stroke-opacity:0.5;stroke-miterlimit:10;" d="M 6.702125 64.576469 L 12.682594 64.576469 L 12.682594 70.556938 L 6.702125 70.556938 Z M 6.702125 64.576469 " transform="matrix(1,0,0,-1,3.626,100.221)"/>
<path style="fill-rule:nonzero;fill:rgb(100%,96.939087%,40.000916%);fill-opacity:0.5;stroke-width:0.797;stroke-linecap:butt;stroke-linejoin:miter;stroke:rgb(100%,94.898987%,0%);stroke-opacity:0.5;stroke-miterlimit:10;" d="M 16.393531 64.576469 L 22.374 64.576469 L 22.374 70.556938 L 16.393531 70.556938 Z M 16.393531 64.576469 " transform="matrix(1,0,0,-1,3.626,100.221)"/>
<path style="fill-rule:nonzero;fill:rgb(100%,96.939087%,40.000916%);fill-opacity:0.5;stroke-width:0.797;stroke-linecap:butt;stroke-linejoin:miter;stroke:rgb(100%,94.898987%,0%);stroke-opacity:0.5;stroke-miterlimit:10;" d="M 26.088844 64.576469 L 32.065406 64.576469 L 32.065406 70.556938 L 26.088844 70.556938 Z M 26.088844 64.576469 " transform="matrix(1,0,0,-1,3.626,100.221)"/>
<path style="fill-rule:nonzero;fill:rgb(100%,96.939087%,40.000916%);fill-opacity:0.5;stroke-width:0.797;stroke-linecap:butt;stroke-linejoin:miter;stroke:rgb(100%,94.898987%,0%);stroke-opacity:0.5;stroke-miterlimit:10;" d="M 35.78025 -2.989937 L 41.756813 -2.989937 L 41.756813 2.990531 L 35.78025 2.990531 Z M 35.78025 -2.989937 " transform="matrix(1,0,0,-1,3.626,100.221)"/>
<path style="fill-rule:nonzero;fill:rgb(100%,96.939087%,40.000916%);fill-opacity:0.5;stroke-width:0.797;stroke-linecap:butt;stroke-linejoin:miter;stroke:rgb(100%,94.898987%,0%);stroke-opacity:0.5;stroke-miterlimit:10;" d="M 45.471656 -2.989937 L 51.448219 -2.989937 L 51.448219 2.990531 L 45.471656 2.990531 Z M 45.471656 -2.989937 " transform="matrix(1,0,0,-1,3.626,100.221)"/>
<path style="fill-rule:nonzero;fill:rgb(100%,96.939087%,40.000916%);fill-opacity:0.5;stroke-width:0.797;stroke-linecap:butt;stroke-linejoin:miter;stroke:rgb(100%,94.898987%,0%);stroke-opacity:0.5;stroke-miterlimit:10;" d="M 55.163063 -2.989937 L 61.139625 -2.989937 L 61.139625 2.990531 L 55.163063 2.990531 Z M 55.163063 -2.989937 " transform="matrix(1,0,0,-1,3.626,100.221)"/>
<path style="fill-rule:nonzero;fill:rgb(100%,96.939087%,40.000916%);fill-opacity:0.5;stroke-width:0.797;stroke-linecap:butt;stroke-linejoin:miter;stroke:rgb(100%,94.898987%,0%);stroke-opacity:0.5;stroke-miterlimit:10;" d="M 26.088844 6.662406 L 32.065406 6.662406 L 32.065406 12.642875 L 26.088844 12.642875 Z M 26.088844 6.662406 " transform="matrix(1,0,0,-1,3.626,100.221)"/>
<path style="fill-rule:nonzero;fill:rgb(100%,96.939087%,40.000916%);fill-opacity:0.5;stroke-width:0.797;stroke-linecap:butt;stroke-linejoin:miter;stroke:rgb(100%,94.898987%,0%);stroke-opacity:0.5;stroke-miterlimit:10;" d="M 35.78025 6.662406 L 41.756813 6.662406 L 41.756813 12.642875 L 35.78025 12.642875 Z M 35.78025 6.662406 " transform="matrix(1,0,0,-1,3.626,100.221)"/>
<path style="fill-rule:nonzero;fill:rgb(100%,96.939087%,40.000916%);fill-opacity:0.5;stroke-width:0.797;stroke-linecap:butt;stroke-linejoin:miter;stroke:rgb(100%,94.898987%,0%);stroke-opacity:0.5;stroke-miterlimit:10;" d="M 45.471656 6.662406 L 51.448219 6.662406 L 51.448219 12.642875 L 45.471656 12.642875 Z M 45.471656 6.662406 " transform="matrix(1,0,0,-1,3.626,100.221)"/>
<path style="fill-rule:nonzero;fill:rgb(100%,96.939087%,40.000916%);fill-opacity:0.5;stroke-width:0.797;stroke-linecap:butt;stroke-linejoin:miter;stroke:rgb(100%,94.898987%,0%);stroke-opacity:0.5;stroke-miterlimit:10;" d="M 55.163063 6.662406 L 61.139625 6.662406 L 61.139625 12.642875 L 55.163063 12.642875 Z M 55.163063 6.662406 " transform="matrix(1,0,0,-1,3.626,100.221)"/>
<path style="fill-rule:nonzero;fill:rgb(100%,96.939087%,40.000916%);fill-opacity:0.5;stroke-width:0.797;stroke-linecap:butt;stroke-linejoin:miter;stroke:rgb(100%,94.898987%,0%);stroke-opacity:0.5;stroke-miterlimit:10;" d="M 64.854469 6.662406 L 70.834938 6.662406 L 70.834938 12.642875 L 64.854469 12.642875 Z M 64.854469 6.662406 " transform="matrix(1,0,0,-1,3.626,100.221)"/>
<path style="fill-rule:nonzero;fill:rgb(100%,96.939087%,40.000916%);fill-opacity:0.5;stroke-width:0.797;stroke-linecap:butt;stroke-linejoin:miter;stroke:rgb(100%,94.898987%,0%);stroke-opacity:0.5;stroke-miterlimit:10;" d="M 26.088844 16.31475 L 32.065406 16.31475 L 32.065406 22.295219 L 26.088844 22.295219 Z M 26.088844 16.31475 " transform="matrix(1,0,0,-1,3.626,100.221)"/>
<path style="fill-rule:nonzero;fill:rgb(100%,96.939087%,40.000916%);fill-opacity:0.5;stroke-width:0.797;stroke-linecap:butt;stroke-linejoin:miter;stroke:rgb(100%,94.898987%,0%);stroke-opacity:0.5;stroke-miterlimit:10;" d="M 35.78025 16.31475 L 41.756813 16.31475 L 41.756813 22.295219 L 35.78025 22.295219 Z M 35.78025 16.31475 " transform="matrix(1,0,0,-1,3.626,100.221)"/>
<path style="fill-rule:nonzero;fill:rgb(100%,96.939087%,40.000916%);fill-opacity:0.5;stroke-width:0.797;stroke-linecap:butt;stroke-linejoin:miter;stroke:rgb(100%,94.898987%,0%);stroke-opacity:0.5;stroke-miterlimit:10;" d="M 45.471656 16.31475 L 51.448219 16.31475 L 51.448219 22.295219 L 45.471656 22.295219 Z M 45.471656 16.31475 " transform="matrix(1,0,0,-1,3.626,100.221)"/>
<path style="fill-rule:nonzero;fill:rgb(100%,96.939087%,40.000916%);fill-opacity:0.5;stroke-width:0.797;stroke-linecap:butt;stroke-linejoin:miter;stroke:rgb(100%,94.898987%,0%);stroke-opacity:0.5;stroke-miterlimit:10;" d="M 55.163063 16.31475 L 61.139625 16.31475 L 61.139625 22.295219 L 55.163063 22.295219 Z M 55.163063 16.31475 " transform="matrix(1,0,0,-1,3.626,100.221)"/>
<path style="fill-rule:nonzero;fill:rgb(100%,96.939087%,40.000916%);fill-opacity:0.5;stroke-width:0.797;stroke-linecap:butt;stroke-linejoin:miter;stroke:rgb(100%,94.898987%,0%);stroke-opacity:0.5;stroke-miterlimit:10;" d="M 64.854469 16.31475 L 70.834938 16.31475 L 70.834938 22.295219 L 64.854469 22.295219 Z M 64.854469 16.31475 " transform="matrix(1,0,0,-1,3.626,100.221)"/>
<path style="fill-rule:nonzero;fill:rgb(100%,96.939087%,40.000916%);fill-opacity:0.5;stroke-width:0.797;stroke-linecap:butt;stroke-linejoin:miter;stroke:rgb(100%,94.898987%,0%);stroke-opacity:0.5;stroke-miterlimit:10;" d="M 26.088844 25.967094 L 32.065406 25.967094 L 32.065406 31.947563 L 26.088844 31.947563 Z M 26.088844 25.967094 " transform="matrix(1,0,0,-1,3.626,100.221)"/>
<path style="fill-rule:nonzero;fill:rgb(100%,96.939087%,40.000916%);fill-opacity:0.5;stroke-width:0.797;stroke-linecap:butt;stroke-linejoin:miter;stroke:rgb(100%,94.898987%,0%);stroke-opacity:0.5;stroke-miterlimit:10;" d="M 35.78025 25.967094 L 41.756813 25.967094 L 41.756813 31.947563 L 35.78025 31.947563 Z M 35.78025 25.967094 " transform="matrix(1,0,0,-1,3.626,100.221)"/>
<path style="fill-rule:nonzero;fill:rgb(100%,96.939087%,40.000916%);fill-opacity:0.5;stroke-width:0.797;stroke-linecap:butt;stroke-linejoin:miter;stroke:rgb(100%,94.898987%,0%);stroke-opacity:0.5;stroke-miterlimit:10;" d="M 45.471656 25.967094 L 51.448219 25.967094 L 51.448219 31.947563 L 45.471656 31.947563 Z M 45.471656 25.967094 " transform="matrix(1,0,0,-1,3.626,100.221)"/>
<path style="fill-rule:nonzero;fill:rgb(100%,96.939087%,40.000916%);fill-opacity:0.5;stroke-width:0.797;stroke-linecap:butt;stroke-linejoin:miter;stroke:rgb(100%,94.898987%,0%);stroke-opacity:0.5;stroke-miterlimit:10;" d="M 55.163063 25.967094 L 61.139625 25.967094 L 61.139625 31.947563 L 55.163063 31.947563 Z M 55.163063 25.967094 " transform="matrix(1,0,0,-1,3.626,100.221)"/>
<path style="fill-rule:nonzero;fill:rgb(100%,96.939087%,40.000916%);fill-opacity:0.5;stroke-width:0.797;stroke-linecap:butt;stroke-linejoin:miter;stroke:rgb(100%,94.898987%,0%);stroke-opacity:0.5;stroke-miterlimit:10;" d="M 64.854469 25.967094 L 70.834938 25.967094 L 70.834938 31.947563 L 64.854469 31.947563 Z M 64.854469 25.967094 " transform="matrix(1,0,0,-1,3.626,100.221)"/>
<path style="fill-rule:nonzero;fill:rgb(100%,96.939087%,40.000916%);fill-opacity:0.5;stroke-width:0.797;stroke-linecap:butt;stroke-linejoin:miter;stroke:rgb(100%,94.898987%,0%);stroke-opacity:0.5;stroke-miterlimit:10;" d="M 35.78025 35.619438 L 41.756813 35.619438 L 41.756813 41.599906 L 35.78025 41.599906 Z M 35.78025 35.619438 " transform="matrix(1,0,0,-1,3.626,100.221)"/>
<path style="fill-rule:nonzero;fill:rgb(100%,96.939087%,40.000916%);fill-opacity:0.5;stroke-width:0.797;stroke-linecap:butt;stroke-linejoin:miter;stroke:rgb(100%,94.898987%,0%);stroke-opacity:0.5;stroke-miterlimit:10;" d="M 45.471656 35.619438 L 51.448219 35.619438 L 51.448219 41.599906 L 45.471656 41.599906 Z M 45.471656 35.619438 " transform="matrix(1,0,0,-1,3.626,100.221)"/>
<path style="fill-rule:nonzero;fill:rgb(100%,96.939087%,40.000916%);fill-opacity:0.5;stroke-width:0.797;stroke-linecap:butt;stroke-linejoin:miter;stroke:rgb(100%,94.898987%,0%);stroke-opacity:0.5;stroke-miterlimit:10;" d="M 55.163063 35.619438 L 61.139625 35.619438 L 61.139625 41.599906 L 55.163063 41.599906 Z M 55.163063 35.619438 " transform="matrix(1,0,0,-1,3.626,100.221)"/>
<path style="fill-rule:nonzero;fill:rgb(100%,96.939087%,40.000916%);fill-opacity:0.5;stroke-width:0.797;stroke-linecap:butt;stroke-linejoin:miter;stroke:rgb(100%,94.898987%,0%);stroke-opacity:0.5;stroke-miterlimit:10;" d="M 64.854469 54.924125 L 70.834938 54.924125 L 70.834938 60.904594 L 64.854469 60.904594 Z M 64.854469 54.924125 " transform="matrix(1,0,0,-1,3.626,100.221)"/>
<path style="fill-rule:nonzero;fill:rgb(100%,96.939087%,40.000916%);fill-opacity:0.5;stroke-width:0.797;stroke-linecap:butt;stroke-linejoin:miter;stroke:rgb(100%,94.898987%,0%);stroke-opacity:0.5;stroke-miterlimit:10;" d="M 74.545875 54.924125 L 80.526344 54.924125 L 80.526344 60.904594 L 74.545875 60.904594 Z M 74.545875 54.924125 " transform="matrix(1,0,0,-1,3.626,100.221)"/>
<path style="fill-rule:nonzero;fill:rgb(100%,96.939087%,40.000916%);fill-opacity:0.5;stroke-width:0.797;stroke-linecap:butt;stroke-linejoin:miter;stroke:rgb(100%,94.898987%,0%);stroke-opacity:0.5;stroke-miterlimit:10;" d="M 84.237281 54.924125 L 90.21775 54.924125 L 90.21775 60.904594 L 84.237281 60.904594 Z M 84.237281 54.924125 " transform="matrix(1,0,0,-1,3.626,100.221)"/>
<path style="fill-rule:nonzero;fill:rgb(100%,96.939087%,40.000916%);fill-opacity:0.5;stroke-width:0.797;stroke-linecap:butt;stroke-linejoin:miter;stroke:rgb(100%,94.898987%,0%);stroke-opacity:0.5;stroke-miterlimit:10;" d="M 55.163063 64.576469 L 61.139625 64.576469 L 61.139625 70.556938 L 55.163063 70.556938 Z M 55.163063 64.576469 " transform="matrix(1,0,0,-1,3.626,100.221)"/>
<path style="fill-rule:nonzero;fill:rgb(100%,96.939087%,40.000916%);fill-opacity:0.5;stroke-width:0.797;stroke-linecap:butt;stroke-linejoin:miter;stroke:rgb(100%,94.898987%,0%);stroke-opacity:0.5;stroke-miterlimit:10;" d="M 64.854469 64.576469 L 70.834938 64.576469 L 70.834938 70.556938 L 64.854469 70.556938 Z M 64.854469 64.576469 " transform="matrix(1,0,0,-1,3.626,100.221)"/>
<path style="fill-rule:nonzero;fill:rgb(100%,96.939087%,40.000916%);fill-opacity:0.5;stroke-width:0.797;stroke-linecap:butt;stroke-linejoin:miter;stroke:rgb(100%,94.898987%,0%);stroke-opacity:0.5;stroke-miterlimit:10;" d="M 74.545875 64.576469 L 80.526344 64.576469 L 80.526344 70.556938 L 74.545875 70.556938 Z M 74.545875 64.576469 " transform="matrix(1,0,0,-1,3.626,100.221)"/>
<path style="fill-rule:nonzero;fill:rgb(100%,96.939087%,40.000916%);fill-opacity:0.5;stroke-width:0.797;stroke-linecap:butt;stroke-linejoin:miter;stroke:rgb(100%,94.898987%,0%);stroke-opacity:0.5;stroke-miterlimit:10;" d="M 84.237281 64.576469 L 90.21775 64.576469 L 90.21775 70.556938 L 84.237281 70.556938 Z M 84.237281 64.576469 " transform="matrix(1,0,0,-1,3.626,100.221)"/>
<path style="fill-rule:nonzero;fill:rgb(100%,96.939087%,40.000916%);fill-opacity:0.5;stroke-width:0.797;stroke-linecap:butt;stroke-linejoin:miter;stroke:rgb(100%,94.898987%,0%);stroke-opacity:0.5;stroke-miterlimit:10;" d="M 93.932594 64.576469 L 99.909156 64.576469 L 99.909156 70.556938 L 93.932594 70.556938 Z M 93.932594 64.576469 " transform="matrix(1,0,0,-1,3.626,100.221)"/>
<path style="fill-rule:nonzero;fill:rgb(100%,96.939087%,40.000916%);fill-opacity:0.5;stroke-width:0.797;stroke-linecap:butt;stroke-linejoin:miter;stroke:rgb(100%,94.898987%,0%);stroke-opacity:0.5;stroke-miterlimit:10;" d="M 55.163063 74.228813 L 61.139625 74.228813 L 61.139625 80.209281 L 55.163063 80.209281 Z M 55.163063 74.228813 " transform="matrix(1,0,0,-1,3.626,100.221)"/>
<path style="fill-rule:nonzero;fill:rgb(100%,96.939087%,40.000916%);fill-opacity:0.5;stroke-width:0.797;stroke-linecap:butt;stroke-linejoin:miter;stroke:rgb(100%,94.898987%,0%);stroke-opacity:0.5;stroke-miterlimit:10;" d="M 64.854469 74.228813 L 70.834938 74.228813 L 70.834938 80.209281 L 64.854469 80.209281 Z M 64.854469 74.228813 " transform="matrix(1,0,0,-1,3.626,100.221)"/>
<path style="fill-rule:nonzero;fill:rgb(100%,96.939087%,40.000916%);fill-opacity:0.5;stroke-width:0.797;stroke-linecap:butt;stroke-linejoin:miter;stroke:rgb(100%,94.898987%,0%);stroke-opacity:0.5;stroke-miterlimit:10;" d="M 74.545875 74.228813 L 80.526344 74.228813 L 80.526344 80.209281 L 74.545875 80.209281 Z M 74.545875 74.228813 " transform="matrix(1,0,0,-1,3.626,100.221)"/>
<path style="fill-rule:nonzero;fill:rgb(100%,96.939087%,40.000916%);fill-opacity:0.5;stroke-width:0.797;stroke-linecap:butt;stroke-linejoin:miter;stroke:rgb(100%,94.898987%,0%);stroke-opacity:0.5;stroke-miterlimit:10;" d="M 84.237281 74.228813 L 90.21775 74.228813 L 90.21775 80.209281 L 84.237281 80.209281 Z M 84.237281 74.228813 " transform="matrix(1,0,0,-1,3.626,100.221)"/>
<path style="fill-rule:nonzero;fill:rgb(100%,96.939087%,40.000916%);fill-opacity:0.5;stroke-width:0.797;stroke-linecap:butt;stroke-linejoin:miter;stroke:rgb(100%,94.898987%,0%);stroke-opacity:0.5;stroke-miterlimit:10;" d="M 93.932594 74.228813 L 99.909156 74.228813 L 99.909156 80.209281 L 93.932594 80.209281 Z M 93.932594 74.228813 " transform="matrix(1,0,0,-1,3.626,100.221)"/>
<path style="fill-rule:nonzero;fill:rgb(100%,96.939087%,40.000916%);fill-opacity:0.5;stroke-width:0.797;stroke-linecap:butt;stroke-linejoin:miter;stroke:rgb(100%,94.898987%,0%);stroke-opacity:0.5;stroke-miterlimit:10;" d="M 55.163063 83.881156 L 61.139625 83.881156 L 61.139625 89.861625 L 55.163063 89.861625 Z M 55.163063 83.881156 " transform="matrix(1,0,0,-1,3.626,100.221)"/>
<path style="fill-rule:nonzero;fill:rgb(100%,96.939087%,40.000916%);fill-opacity:0.5;stroke-width:0.797;stroke-linecap:butt;stroke-linejoin:miter;stroke:rgb(100%,94.898987%,0%);stroke-opacity:0.5;stroke-miterlimit:10;" d="M 64.854469 83.881156 L 70.834938 83.881156 L 70.834938 89.861625 L 64.854469 89.861625 Z M 64.854469 83.881156 " transform="matrix(1,0,0,-1,3.626,100.221)"/>
<path style="fill-rule:nonzero;fill:rgb(100%,96.939087%,40.000916%);fill-opacity:0.5;stroke-width:0.797;stroke-linecap:butt;stroke-linejoin:miter;stroke:rgb(100%,94.898987%,0%);stroke-opacity:0.5;stroke-miterlimit:10;" d="M 74.545875 83.881156 L 80.526344 83.881156 L 80.526344 89.861625 L 74.545875 89.861625 Z M 74.545875 83.881156 " transform="matrix(1,0,0,-1,3.626,100.221)"/>
<path style="fill-rule:nonzero;fill:rgb(100%,96.939087%,40.000916%);fill-opacity:0.5;stroke-width:0.797;stroke-linecap:butt;stroke-linejoin:miter;stroke:rgb(100%,94.898987%,0%);stroke-opacity:0.5;stroke-miterlimit:10;" d="M 84.237281 83.881156 L 90.21775 83.881156 L 90.21775 89.861625 L 84.237281 89.861625 Z M 84.237281 83.881156 " transform="matrix(1,0,0,-1,3.626,100.221)"/>
<path style="fill-rule:nonzero;fill:rgb(100%,96.939087%,40.000916%);fill-opacity:0.5;stroke-width:0.797;stroke-linecap:butt;stroke-linejoin:miter;stroke:rgb(100%,94.898987%,0%);stroke-opacity:0.5;stroke-miterlimit:10;" d="M 93.932594 83.881156 L 99.909156 83.881156 L 99.909156 89.861625 L 93.932594 89.861625 Z M 93.932594 83.881156 " transform="matrix(1,0,0,-1,3.626,100.221)"/>
<path style="fill-rule:nonzero;fill:rgb(100%,96.939087%,40.000916%);fill-opacity:0.5;stroke-width:0.797;stroke-linecap:butt;stroke-linejoin:miter;stroke:rgb(100%,94.898987%,0%);stroke-opacity:0.5;stroke-miterlimit:10;" d="M 64.854469 93.5335 L 70.834938 93.5335 L 70.834938 99.513969 L 64.854469 99.513969 Z M 64.854469 93.5335 " transform="matrix(1,0,0,-1,3.626,100.221)"/>
<path style="fill-rule:nonzero;fill:rgb(100%,96.939087%,40.000916%);fill-opacity:0.5;stroke-width:0.797;stroke-linecap:butt;stroke-linejoin:miter;stroke:rgb(100%,94.898987%,0%);stroke-opacity:0.5;stroke-miterlimit:10;" d="M 74.545875 93.5335 L 80.526344 93.5335 L 80.526344 99.513969 L 74.545875 99.513969 Z M 74.545875 93.5335 " transform="matrix(1,0,0,-1,3.626,100.221)"/>
<path style="fill-rule:nonzero;fill:rgb(100%,96.939087%,40.000916%);fill-opacity:0.5;stroke-width:0.797;stroke-linecap:butt;stroke-linejoin:miter;stroke:rgb(100%,94.898987%,0%);stroke-opacity:0.5;stroke-miterlimit:10;" d="M 84.237281 93.5335 L 90.21775 93.5335 L 90.21775 99.513969 L 84.237281 99.513969 Z M 84.237281 93.5335 " transform="matrix(1,0,0,-1,3.626,100.221)"/>
<path style="fill-rule:nonzero;fill:rgb(39.99939%,39.99939%,100%);fill-opacity:0.3;stroke-width:0.797;stroke-linecap:butt;stroke-linejoin:miter;stroke:rgb(0%,0%,100%);stroke-opacity:0.3;stroke-miterlimit:10;" d="M -0.00159375 -0.0016375 C -0.00159375 9.904612 -8.028937 17.931956 -17.931281 17.931956 C -27.837531 17.931956 -35.864875 9.904612 -35.864875 -0.0016375 C -35.864875 -9.903981 -27.837531 -17.931325 -17.931281 -17.931325 C -8.028937 -17.931325 -0.00159375 -9.903981 -0.00159375 -0.0016375 Z M -0.00159375 -0.0016375 " transform="matrix(1,0,0,-1,40.943,51.9593)"/>
<path style="fill-rule:nonzero;fill:rgb(39.99939%,39.99939%,100%);fill-opacity:0.3;stroke-width:0.797;stroke-linecap:butt;stroke-linejoin:miter;stroke:rgb(0%,0%,100%);stroke-opacity:0.3;stroke-miterlimit:10;" d="M 0.00043125 -0.00166875 C 0.00043125 9.904581 -8.030819 17.931925 -17.933162 17.931925 C -27.835506 17.931925 -35.866756 9.904581 -35.866756 -0.00166875 C -35.866756 -9.904012 -27.835506 -17.931356 -17.933162 -17.931356 C -8.030819 -17.931356 0.00043125 -9.904012 0.00043125 -0.00166875 Z M 0.00043125 -0.00166875 " transform="matrix(1,0,0,-1,70.0191,80.9163)"/>
<path style="fill-rule:nonzero;fill:rgb(39.99939%,39.99939%,100%);fill-opacity:0.3;stroke-width:0.797;stroke-linecap:butt;stroke-linejoin:miter;stroke:rgb(0%,0%,100%);stroke-opacity:0.3;stroke-miterlimit:10;" d="M -0.00135 -0.00170625 C -0.00135 9.904544 -8.028694 17.931888 -17.934944 17.931888 C -27.837288 17.931888 -35.864631 9.904544 -35.864631 -0.00170625 C -35.864631 -9.90405 -27.837288 -17.931394 -17.934944 -17.931394 C -8.028694 -17.931394 -0.00135 -9.90405 -0.00135 -0.00170625 Z M -0.00135 -0.00170625 " transform="matrix(1,0,0,-1,99.0951,23.0022)"/>
<path style="fill-rule:nonzero;fill:rgb(100%,39.99939%,39.99939%);fill-opacity:1;stroke-width:0.797;stroke-linecap:butt;stroke-linejoin:miter;stroke:rgb(100%,0%,0%);stroke-opacity:1;stroke-miterlimit:10;" d="M 0.00130625 -0.0016375 C 0.00130625 1.099925 -0.893225 1.994456 -1.994788 1.994456 C -3.092444 1.994456 -3.983069 1.099925 -3.983069 -0.0016375 C -3.983069 -1.099294 -3.092444 -1.993825 -1.994788 -1.993825 C -0.893225 -1.993825 0.00130625 -1.099294 0.00130625 -0.0016375 Z M 0.00130625 -0.0016375 " transform="matrix(1,0,0,-1,25.0026,51.9593)"/>
<path style="fill-rule:nonzero;fill:rgb(100%,39.99939%,39.99939%);fill-opacity:1;stroke-width:0.797;stroke-linecap:butt;stroke-linejoin:miter;stroke:rgb(100%,0%,0%);stroke-opacity:1;stroke-miterlimit:10;" d="M -0.000475 -0.00166875 C -0.000475 1.099894 -0.8911 1.994425 -1.992662 1.994425 C -3.094225 1.994425 -3.98485 1.099894 -3.98485 -0.00166875 C -3.98485 -1.099325 -3.094225 -1.993856 -1.992662 -1.993856 C -0.8911 -1.993856 -0.000475 -1.099325 -0.000475 -0.00166875 Z M -0.000475 -0.00166875 " transform="matrix(1,0,0,-1,54.0786,80.9163)"/>
<path style="fill-rule:nonzero;fill:rgb(100%,39.99939%,39.99939%);fill-opacity:1;stroke-width:0.797;stroke-linecap:butt;stroke-linejoin:miter;stroke:rgb(100%,0%,0%);stroke-opacity:1;stroke-miterlimit:10;" d="M 0.00155 -0.00170625 C 0.00155 1.099856 -0.892981 1.994388 -1.994544 1.994388 C -3.0922 1.994388 -3.986731 1.099856 -3.986731 -0.00170625 C -3.986731 -1.099362 -3.0922 -1.993894 -1.994544 -1.993894 C -0.892981 -1.993894 0.00155 -1.099362 0.00155 -0.00170625 Z M 0.00155 -0.00170625 " transform="matrix(1,0,0,-1,83.1547,23.0022)"/>
</g>
</svg>
