<?xml version="1.0" encoding="UTF-8"?>
<svg xmlns="http://www.w3.org/2000/svg" xmlns:xlink="http://www.w3.org/1999/xlink" width="113pt" height="107pt" viewBox="0 0 113 107" version="1.1">
<g id="surface1">
<path style="fill:none;stroke-width:0.398;stroke-linecap:butt;stroke-linejoin:miter;stroke:rgb(0%,0%,0%);stroke-opacity:1;stroke-miterlimit:10;" d="M 0.0000875 -0.00175 C 0.0000875 1.088094 -0.882725 1.974812 -1.972569 1.974812 C -3.062412 1.974812 -3.945225 1.088094 -3.945225 -0.00175 C -3.945225 -1.087688 -3.062412 -1.974406 -1.972569 -1.974406 C -0.882725 -1.974406 0.0000875 -1.087688 0.0000875 -0.00175 Z M 0.0000875 -0.00175 " transform="matrix(1,0,0,-1,23.4296,24.967)"/>
<path style="fill:none;stroke-width:0.398;stroke-linecap:butt;stroke-linejoin:miter;stroke:rgb(0%,0%,0%);stroke-opacity:1;stroke-miterlimit:10;" d="M -0.000925 0.00055 C -0.000925 1.090394 -0.883738 1.973206 -1.973581 1.973206 C -3.063425 1.973206 -3.946238 1.090394 -3.946238 0.00055 C -3.946238 -1.089294 -3.063425 -1.972106 -1.973581 -1.972106 C -0.883738 -1.972106 -0.000925 -1.089294 -0.000925 0.00055 Z M -0.000925 0.00055 " transform="matrix(1,0,0,-1,34.4853,21.2818)"/>
<path style="fill:none;stroke-width:0.398;stroke-linecap:butt;stroke-linejoin:miter;stroke:rgb(0%,0%,0%);stroke-opacity:1;stroke-miterlimit:10;" d="M -0.00151875 0.00114375 C -0.00151875 1.087081 -0.884331 1.9738 -1.974175 1.9738 C -3.060112 1.9738 -3.946831 1.087081 -3.946831 0.00114375 C -3.946831 -1.0887 -3.060112 -1.971512 -1.974175 -1.971512 C -0.884331 -1.971512 -0.00151875 -1.0887 -0.00151875 0.00114375 Z M -0.00151875 0.00114375 " transform="matrix(1,0,0,-1,27.1148,13.9113)"/>
<path style="fill:none;stroke-width:0.398;stroke-linecap:butt;stroke-linejoin:miter;stroke:rgb(0%,0%,0%);stroke-opacity:1;stroke-miterlimit:10;" d="M 0.00078125 0.0018375 C 0.00078125 1.087775 -0.882031 1.974494 -1.971875 1.974494 C -3.061719 1.974494 -3.944531 1.087775 -3.944531 0.0018375 C -3.944531 -1.088006 -3.061719 -1.974725 -1.971875 -1.974725 C -0.882031 -1.974725 0.00078125 -1.088006 0.00078125 0.0018375 Z M 0.00078125 0.0018375 " transform="matrix(1,0,0,-1,30.8,6.5409)"/>
<path style="fill-rule:nonzero;fill:rgb(0%,69.999695%,0%);fill-opacity:1;stroke-width:0.398;stroke-linecap:butt;stroke-linejoin:miter;stroke:rgb(0%,0%,0%);stroke-opacity:1;stroke-miterlimit:10;" d="M 0.001375 0.00114375 C 0.001375 1.087081 -0.881437 1.9738 -1.971281 1.9738 C -3.061125 1.9738 -3.943937 1.087081 -3.943937 0.00114375 C -3.943937 -1.0887 -3.061125 -1.971512 -1.971281 -1.971512 C -0.881437 -1.971512 0.001375 -1.0887 0.001375 0.00114375 Z M 0.001375 0.00114375 " transform="matrix(1,0,0,-1,38.1705,13.9113)"/>
<path style="fill:none;stroke-width:0.398;stroke-linecap:butt;stroke-linejoin:miter;stroke:rgb(0%,0%,0%);stroke-opacity:1;stroke-miterlimit:10;" d="M -0.0018375 0.00055 C -0.0018375 1.090394 -0.88465 1.973206 -1.974494 1.973206 C -3.060431 1.973206 -3.943244 1.090394 -3.943244 0.00055 C -3.943244 -1.089294 -3.060431 -1.972106 -1.974494 -1.972106 C -0.88465 -1.972106 -0.0018375 -1.089294 -0.0018375 0.00055 Z M -0.0018375 0.00055 " transform="matrix(1,0,0,-1,45.5409,21.2818)"/>
<path style="fill:none;stroke-width:0.398;stroke-linecap:butt;stroke-linejoin:miter;stroke:rgb(0%,0%,0%);stroke-opacity:1;stroke-miterlimit:10;" d="M 0.0003625 -0.0004625 C 0.0003625 1.089381 -0.88245 1.972194 -1.972294 1.972194 C -3.062138 1.972194 -3.94495 1.089381 -3.94495 -0.0004625 C -3.94495 -1.090306 -3.062138 -1.973119 -1.972294 -1.973119 C -0.88245 -1.973119 0.0003625 -1.090306 0.0003625 -0.0004625 Z M 0.0003625 -0.0004625 " transform="matrix(1,0,0,-1,49.2262,10.2261)"/>
<path style="fill-rule:nonzero;fill:rgb(100%,59.999084%,19.999695%);fill-opacity:1;stroke-width:0.398;stroke-linecap:butt;stroke-linejoin:miter;stroke:rgb(0%,0%,0%);stroke-opacity:1;stroke-miterlimit:10;" d="M -0.00060625 -0.0004625 C -0.00060625 1.089381 -0.883419 1.972194 -1.973263 1.972194 C -3.063106 1.972194 -3.945919 1.089381 -3.945919 -0.0004625 C -3.945919 -1.090306 -3.063106 -1.973119 -1.973263 -1.973119 C -0.883419 -1.973119 -0.00060625 -1.090306 -0.00060625 -0.0004625 Z M -0.00060625 -0.0004625 " transform="matrix(1,0,0,-1,16.0592,10.2261)"/>
<path style="fill:none;stroke-width:0.398;stroke-linecap:butt;stroke-linejoin:miter;stroke:rgb(0%,0%,0%);stroke-opacity:1;stroke-miterlimit:10;" d="M 0.00040625 0.00114375 C 0.00040625 1.087081 -0.882406 1.9738 -1.97225 1.9738 C -3.062094 1.9738 -3.944906 1.087081 -3.944906 0.00114375 C -3.944906 -1.0887 -3.062094 -1.971512 -1.97225 -1.971512 C -0.882406 -1.971512 0.00040625 -1.0887 0.00040625 0.00114375 Z M 0.00040625 0.00114375 " transform="matrix(1,0,0,-1,5.0035,13.9113)"/>
<path style="fill:none;stroke-width:0.398;stroke-linecap:butt;stroke-linejoin:miter;stroke:rgb(0%,0%,0%);stroke-opacity:1;stroke-miterlimit:10;" d="M -0.0012 0.00023125 C -0.0012 1.090075 -0.884013 1.972888 -1.973856 1.972888 C -3.0637 1.972888 -3.946513 1.090075 -3.946513 0.00023125 C -3.946513 -1.089612 -3.0637 -1.972425 -1.973856 -1.972425 C -0.884013 -1.972425 -0.0012 -1.089612 -0.0012 0.00023125 Z M -0.0012 0.00023125 " transform="matrix(1,0,0,-1,8.6887,2.8557)"/>
<path style="fill-rule:nonzero;fill:rgb(100%,0%,0%);fill-opacity:1;stroke-width:0.398;stroke-linecap:butt;stroke-linejoin:miter;stroke:rgb(0%,0%,0%);stroke-opacity:1;stroke-miterlimit:10;" d="M 0.00169375 -0.0007375 C 0.00169375 1.089106 -0.881119 1.971919 -1.974869 1.971919 C -3.060806 1.971919 -3.943619 1.089106 -3.943619 -0.0007375 C -3.943619 -1.090581 -3.060806 -1.973394 -1.974869 -1.973394 C -0.881119 -1.973394 0.00169375 -1.090581 0.00169375 -0.0007375 Z M 0.00169375 -0.0007375 " transform="matrix(1,0,0,-1,19.7444,36.0227)"/>
<path style="fill:none;stroke-width:0.398;stroke-linecap:butt;stroke-linejoin:miter;stroke:rgb(0%,0%,0%);stroke-opacity:1;stroke-miterlimit:10;" d="M 0.001 0.0014625 C 0.001 1.0874 -0.881812 1.974119 -1.971656 1.974119 C -3.0615 1.974119 -3.944312 1.0874 -3.944312 0.0014625 C -3.944312 -1.088381 -3.0615 -1.971194 -1.971656 -1.971194 C -0.881812 -1.971194 0.001 -1.088381 0.001 0.0014625 Z M 0.001 0.0014625 " transform="matrix(1,0,0,-1,12.374,32.3374)"/>
<path style="fill:none;stroke-width:0.398;stroke-linecap:butt;stroke-linejoin:miter;stroke:rgb(0%,0%,0%);stroke-opacity:1;stroke-miterlimit:10;" d="M 0.00169375 0.000175 C 0.00169375 1.090019 -0.881119 1.972831 -1.974869 1.972831 C -3.060806 1.972831 -3.943619 1.090019 -3.943619 0.000175 C -3.943619 -1.089669 -3.060806 -1.972481 -1.974869 -1.972481 C -0.881119 -1.972481 0.00169375 -1.089669 0.00169375 0.000175 Z M 0.00169375 0.000175 " transform="matrix(1,0,0,-1,19.7444,47.0783)"/>
<path style="fill:none;stroke-width:0.398;stroke-linecap:butt;stroke-linejoin:miter;stroke:rgb(0%,0%,0%);stroke-opacity:1;stroke-miterlimit:10;" d="M 0.001375 0.0014625 C 0.001375 1.0874 -0.881437 1.974119 -1.971281 1.974119 C -3.061125 1.974119 -3.943937 1.0874 -3.943937 0.0014625 C -3.943937 -1.088381 -3.061125 -1.971194 -1.971281 -1.971194 C -0.881437 -1.971194 0.001375 -1.088381 0.001375 0.0014625 Z M 0.001375 0.0014625 " transform="matrix(1,0,0,-1,38.1705,32.3374)"/>
<path style="fill:none;stroke-width:0.398;stroke-linecap:butt;stroke-linejoin:miter;stroke:rgb(0%,0%,0%);stroke-opacity:1;stroke-miterlimit:10;" d="M 0.00078125 0.00086875 C 0.00078125 1.090712 -0.882031 1.973525 -1.971875 1.973525 C -3.061719 1.973525 -3.944531 1.090712 -3.944531 0.00086875 C -3.944531 -1.088975 -3.061719 -1.971788 -1.971875 -1.971788 C -0.882031 -1.971788 0.00078125 -1.088975 0.00078125 0.00086875 Z M 0.00078125 0.00086875 " transform="matrix(1,0,0,-1,30.8,39.7079)"/>
<path style="fill:none;stroke-width:0.398;stroke-linecap:butt;stroke-linejoin:miter;stroke:rgb(0%,0%,0%);stroke-opacity:1;stroke-miterlimit:10;" d="M -0.0018375 -0.00143125 C -0.0018375 1.088413 -0.88465 1.971225 -1.974494 1.971225 C -3.060431 1.971225 -3.943244 1.088413 -3.943244 -0.00143125 C -3.943244 -1.087369 -3.060431 -1.974087 -1.974494 -1.974087 C -0.88465 -1.974087 -0.0018375 -1.087369 -0.0018375 -0.00143125 Z M -0.0018375 -0.00143125 " transform="matrix(1,0,0,-1,45.5409,43.3931)"/>
<path style="fill:none;stroke-width:0.398;stroke-linecap:butt;stroke-linejoin:miter;stroke:rgb(0%,0%,0%);stroke-opacity:1;stroke-miterlimit:10;" d="M -0.000275 -0.00055 L 7.312225 2.43695 M 10.066131 4.827575 L 11.988006 8.667419 M 14.26535 9.038513 L 18.847381 4.456481 M 20.866912 4.933044 L 23.304412 12.245544 M 22.054412 13.495544 L 14.741912 11.054138 M 11.476287 11.827575 L 6.894256 16.409606 M 4.616912 16.038513 L 2.695037 12.198669 M 1.191131 8.56195 L -1.246369 1.24945 M -0.0588688 11.054138 L -7.371369 13.495544 M -11.113556 13.495544 L -18.426056 11.054138 M -19.566681 8.601013 L -13.660431 -6.164612 M -11.285431 -6.898987 L -3.511994 -1.7193 M -11.164338 -8.87555 L -7.320588 -10.797425 M -3.683869 -12.305237 L 3.628631 -14.742737 M 6.894256 -13.9693 L 11.476287 -9.391175 M 12.245819 -6.121644 L 9.808319 1.190856 M -10.636994 15.511169 L -15.219025 20.0932 M -5.558869 -13.652894 L -5.558869 -20.762269 M 7.413787 -15.8443 L 18.32785 -18.574769 " transform="matrix(1,0,0,-1,23.3284,24.3432)"/>
<path style="fill:none;stroke-width:0.398;stroke-linecap:butt;stroke-linejoin:miter;stroke:rgb(0%,0%,0%);stroke-opacity:1;stroke-miterlimit:10;" d="M 0.00165 -0.00175 C 0.00165 1.088094 -0.881162 1.974812 -1.974912 1.974812 C -3.06085 1.974812 -3.943662 1.088094 -3.943662 -0.00175 C -3.943662 -1.087688 -3.06085 -1.974406 -1.974912 -1.974406 C -0.881162 -1.974406 0.00165 -1.087688 0.00165 -0.00175 Z M 0.00165 -0.00175 " transform="matrix(1,0,0,-1,86.0296,24.967)"/>
<path style="fill-rule:nonzero;fill:rgb(0%,69.999695%,0%);fill-opacity:0.2;stroke-width:0.398;stroke-linecap:butt;stroke-linejoin:miter;stroke:rgb(0%,0%,0%);stroke-opacity:1;stroke-miterlimit:10;" d="M 0.0006375 0.00055 C 0.0006375 1.090394 -0.882175 1.973206 -1.972019 1.973206 C -3.061863 1.973206 -3.944675 1.090394 -3.944675 0.00055 C -3.944675 -1.089294 -3.061863 -1.972106 -1.972019 -1.972106 C -0.882175 -1.972106 0.0006375 -1.089294 0.0006375 0.00055 Z M 0.0006375 0.00055 " transform="matrix(1,0,0,-1,97.0853,21.2818)"/>
<path style="fill-rule:nonzero;fill:rgb(100%,59.999084%,19.999695%);fill-opacity:0.2;stroke-width:0.398;stroke-linecap:butt;stroke-linejoin:miter;stroke:rgb(0%,0%,0%);stroke-opacity:1;stroke-miterlimit:10;" d="M 0.00004375 0.00114375 C 0.00004375 1.087081 -0.882769 1.9738 -1.972612 1.9738 C -3.062456 1.9738 -3.945269 1.087081 -3.945269 0.00114375 C -3.945269 -1.0887 -3.062456 -1.971512 -1.972612 -1.971512 C -0.882769 -1.971512 0.00004375 -1.0887 0.00004375 0.00114375 Z M 0.00004375 0.00114375 " transform="matrix(1,0,0,-1,89.7148,13.9113)"/>
<path style="fill-rule:nonzero;fill:rgb(0%,69.999695%,0%);fill-opacity:0.2;stroke-width:0.398;stroke-linecap:butt;stroke-linejoin:miter;stroke:rgb(0%,0%,0%);stroke-opacity:1;stroke-miterlimit:10;" d="M -0.0015625 0.0018375 C -0.0015625 1.087775 -0.884375 1.974494 -1.974219 1.974494 C -3.060156 1.974494 -3.946875 1.087775 -3.946875 0.0018375 C -3.946875 -1.088006 -3.060156 -1.974725 -1.974219 -1.974725 C -0.884375 -1.974725 -0.0015625 -1.088006 -0.0015625 0.0018375 Z M -0.0015625 0.0018375 " transform="matrix(1,0,0,-1,93.4,6.5409)"/>
<path style="fill-rule:nonzero;fill:rgb(0%,69.999695%,0%);fill-opacity:1;stroke-width:0.398;stroke-linecap:butt;stroke-linejoin:miter;stroke:rgb(0%,0%,0%);stroke-opacity:1;stroke-miterlimit:10;" d="M -0.00096875 0.00114375 C -0.00096875 1.087081 -0.883781 1.9738 -1.973625 1.9738 C -3.063469 1.9738 -3.946281 1.087081 -3.946281 0.00114375 C -3.946281 -1.0887 -3.063469 -1.971512 -1.973625 -1.971512 C -0.883781 -1.971512 -0.00096875 -1.0887 -0.00096875 0.00114375 Z M -0.00096875 0.00114375 " transform="matrix(1,0,0,-1,100.7705,13.9113)"/>
<path style="fill-rule:nonzero;fill:rgb(0%,69.999695%,0%);fill-opacity:0.5;stroke-width:0.398;stroke-linecap:butt;stroke-linejoin:miter;stroke:rgb(0%,0%,0%);stroke-opacity:1;stroke-miterlimit:10;" d="M -0.000275 0.00055 C -0.000275 1.090394 -0.883087 1.973206 -1.972931 1.973206 C -3.062775 1.973206 -3.945587 1.090394 -3.945587 0.00055 C -3.945587 -1.089294 -3.062775 -1.972106 -1.972931 -1.972106 C -0.883087 -1.972106 -0.000275 -1.089294 -0.000275 0.00055 Z M -0.000275 0.00055 " transform="matrix(1,0,0,-1,108.1409,21.2818)"/>
<path style="fill-rule:nonzero;fill:rgb(0%,69.999695%,0%);fill-opacity:0.5;stroke-width:0.398;stroke-linecap:butt;stroke-linejoin:miter;stroke:rgb(0%,0%,0%);stroke-opacity:1;stroke-miterlimit:10;" d="M 0.001925 -0.0004625 C 0.001925 1.089381 -0.884794 1.972194 -1.974638 1.972194 C -3.060575 1.972194 -3.943388 1.089381 -3.943388 -0.0004625 C -3.943388 -1.090306 -3.060575 -1.973119 -1.974638 -1.973119 C -0.884794 -1.973119 0.001925 -1.090306 0.001925 -0.0004625 Z M 0.001925 -0.0004625 " transform="matrix(1,0,0,-1,111.8262,10.2261)"/>
<path style="fill-rule:nonzero;fill:rgb(100%,59.999084%,19.999695%);fill-opacity:1;stroke-width:0.398;stroke-linecap:butt;stroke-linejoin:miter;stroke:rgb(0%,0%,0%);stroke-opacity:1;stroke-miterlimit:10;" d="M 0.00095625 -0.0004625 C 0.00095625 1.089381 -0.881856 1.972194 -1.9717 1.972194 C -3.061544 1.972194 -3.944356 1.089381 -3.944356 -0.0004625 C -3.944356 -1.090306 -3.061544 -1.973119 -1.9717 -1.973119 C -0.881856 -1.973119 0.00095625 -1.090306 0.00095625 -0.0004625 Z M 0.00095625 -0.0004625 " transform="matrix(1,0,0,-1,78.6592,10.2261)"/>
<path style="fill-rule:nonzero;fill:rgb(100%,59.999084%,19.999695%);fill-opacity:0.5;stroke-width:0.398;stroke-linecap:butt;stroke-linejoin:miter;stroke:rgb(0%,0%,0%);stroke-opacity:1;stroke-miterlimit:10;" d="M -0.0019375 0.00114375 C -0.0019375 1.087081 -0.88475 1.9738 -1.974594 1.9738 C -3.060531 1.9738 -3.943344 1.087081 -3.943344 0.00114375 C -3.943344 -1.0887 -3.060531 -1.971512 -1.974594 -1.971512 C -0.88475 -1.971512 -0.0019375 -1.0887 -0.0019375 0.00114375 Z M -0.0019375 0.00114375 " transform="matrix(1,0,0,-1,67.6035,13.9113)"/>
<path style="fill-rule:nonzero;fill:rgb(100%,59.999084%,19.999695%);fill-opacity:0.5;stroke-width:0.398;stroke-linecap:butt;stroke-linejoin:miter;stroke:rgb(0%,0%,0%);stroke-opacity:1;stroke-miterlimit:10;" d="M 0.0003625 0.00023125 C 0.0003625 1.090075 -0.88245 1.972888 -1.972294 1.972888 C -3.062138 1.972888 -3.94495 1.090075 -3.94495 0.00023125 C -3.94495 -1.089612 -3.062138 -1.972425 -1.972294 -1.972425 C -0.88245 -1.972425 0.0003625 -1.089612 0.0003625 0.00023125 Z M 0.0003625 0.00023125 " transform="matrix(1,0,0,-1,71.2887,2.8557)"/>
<path style="fill-rule:nonzero;fill:rgb(100%,0%,0%);fill-opacity:1;stroke-width:0.398;stroke-linecap:butt;stroke-linejoin:miter;stroke:rgb(0%,0%,0%);stroke-opacity:1;stroke-miterlimit:10;" d="M -0.00065 -0.0007375 C -0.00065 1.089106 -0.883463 1.971919 -1.973306 1.971919 C -3.06315 1.971919 -3.945963 1.089106 -3.945963 -0.0007375 C -3.945963 -1.090581 -3.06315 -1.973394 -1.973306 -1.973394 C -0.883463 -1.973394 -0.00065 -1.090581 -0.00065 -0.0007375 Z M -0.00065 -0.0007375 " transform="matrix(1,0,0,-1,82.3444,36.0227)"/>
<path style="fill-rule:nonzero;fill:rgb(100%,0%,0%);fill-opacity:0.5;stroke-width:0.398;stroke-linecap:butt;stroke-linejoin:miter;stroke:rgb(0%,0%,0%);stroke-opacity:1;stroke-miterlimit:10;" d="M -0.00134375 0.0014625 C -0.00134375 1.0874 -0.884156 1.974119 -1.974 1.974119 C -3.063844 1.974119 -3.946656 1.0874 -3.946656 0.0014625 C -3.946656 -1.088381 -3.063844 -1.971194 -1.974 -1.971194 C -0.884156 -1.971194 -0.00134375 -1.088381 -0.00134375 0.0014625 Z M -0.00134375 0.0014625 " transform="matrix(1,0,0,-1,74.974,32.3374)"/>
<path style="fill-rule:nonzero;fill:rgb(100%,0%,0%);fill-opacity:0.5;stroke-width:0.398;stroke-linecap:butt;stroke-linejoin:miter;stroke:rgb(0%,0%,0%);stroke-opacity:1;stroke-miterlimit:10;" d="M -0.00065 0.000175 C -0.00065 1.090019 -0.883463 1.972831 -1.973306 1.972831 C -3.06315 1.972831 -3.945963 1.090019 -3.945963 0.000175 C -3.945963 -1.089669 -3.06315 -1.972481 -1.973306 -1.972481 C -0.883463 -1.972481 -0.00065 -1.089669 -0.00065 0.000175 Z M -0.00065 0.000175 " transform="matrix(1,0,0,-1,82.3444,47.0783)"/>
<path style="fill-rule:nonzero;fill:rgb(100%,0%,0%);fill-opacity:0.2;stroke-width:0.398;stroke-linecap:butt;stroke-linejoin:miter;stroke:rgb(0%,0%,0%);stroke-opacity:1;stroke-miterlimit:10;" d="M -0.00096875 0.0014625 C -0.00096875 1.0874 -0.883781 1.974119 -1.973625 1.974119 C -3.063469 1.974119 -3.946281 1.0874 -3.946281 0.0014625 C -3.946281 -1.088381 -3.063469 -1.971194 -1.973625 -1.971194 C -0.883781 -1.971194 -0.00096875 -1.088381 -0.00096875 0.0014625 Z M -0.00096875 0.0014625 " transform="matrix(1,0,0,-1,100.7705,32.3374)"/>
<path style="fill-rule:nonzero;fill:rgb(100%,0%,0%);fill-opacity:0.5;stroke-width:0.398;stroke-linecap:butt;stroke-linejoin:miter;stroke:rgb(0%,0%,0%);stroke-opacity:1;stroke-miterlimit:10;" d="M -0.0015625 0.00086875 C -0.0015625 1.090712 -0.884375 1.973525 -1.974219 1.973525 C -3.060156 1.973525 -3.946875 1.090712 -3.946875 0.00086875 C -3.946875 -1.088975 -3.060156 -1.971788 -1.974219 -1.971788 C -0.884375 -1.971788 -0.0015625 -1.088975 -0.0015625 0.00086875 Z M -0.0015625 0.00086875 " transform="matrix(1,0,0,-1,93.4,39.7079)"/>
<path style="fill:none;stroke-width:0.398;stroke-linecap:butt;stroke-linejoin:miter;stroke:rgb(0%,0%,0%);stroke-opacity:1;stroke-miterlimit:10;" d="M -0.000275 -0.00143125 C -0.000275 1.088413 -0.883087 1.971225 -1.972931 1.971225 C -3.062775 1.971225 -3.945587 1.088413 -3.945587 -0.00143125 C -3.945587 -1.087369 -3.062775 -1.974087 -1.972931 -1.974087 C -0.883087 -1.974087 -0.000275 -1.087369 -0.000275 -0.00143125 Z M -0.000275 -0.00143125 " transform="matrix(1,0,0,-1,108.1409,43.3931)"/>
<path style="fill:none;stroke-width:0.398;stroke-linecap:butt;stroke-linejoin:miter;stroke:rgb(0%,0%,0%);stroke-opacity:1;stroke-miterlimit:10;" d="M 0.0012875 -0.00055 L 7.313787 2.43695 M 10.067694 4.827575 L 11.989569 8.667419 M 14.266912 9.038513 L 18.845037 4.456481 M 20.864569 4.933044 L 23.302069 12.245544 M 22.055975 13.495544 L 14.743475 11.054138 M 11.47785 11.827575 L 6.895819 16.409606 M 4.618475 16.038513 L 2.6966 12.198669 M 1.188787 8.56195 L -1.248713 1.24945 M -0.0573063 11.054138 L -7.369806 13.495544 M -11.1159 13.495544 L -18.4284 11.054138 M -19.565119 8.601013 L -13.658869 -6.164612 M -11.287775 -6.898987 L -3.514338 -1.7193 M -11.162775 -8.87555 L -7.322931 -10.797425 M -3.686213 -12.305237 L 3.626287 -14.742737 M 6.895819 -13.9693 L 11.47785 -9.391175 M 12.247381 -6.121644 L 9.809881 1.190856 M -10.635431 15.511169 L -15.217463 20.0932 M -5.557306 -13.652894 L -5.557306 -20.762269 M 7.411444 -15.8443 L 18.325506 -18.574769 " transform="matrix(1,0,0,-1,85.9284,24.3432)"/>
<path style="fill-rule:nonzero;fill:rgb(100%,59.999084%,19.999695%);fill-opacity:1;stroke-width:0.398;stroke-linecap:butt;stroke-linejoin:miter;stroke:rgb(0%,0%,0%);stroke-opacity:1;stroke-miterlimit:10;" d="M -0.0012 0.00169375 C -0.0012 1.087631 -0.884013 1.97435 -1.973856 1.97435 C -3.0637 1.97435 -3.946513 1.087631 -3.946513 0.00169375 C -3.946513 -1.08815 -3.0637 -1.974869 -1.973856 -1.974869 C -0.884013 -1.974869 -0.0012 -1.08815 -0.0012 0.00169375 Z M -0.0012 0.00169375 " transform="matrix(1,0,0,-1,8.6887,75.3181)"/>
<path style="fill-rule:nonzero;fill:rgb(100%,0%,0%);fill-opacity:1;stroke-width:0.398;stroke-linecap:butt;stroke-linejoin:miter;stroke:rgb(0%,0%,0%);stroke-opacity:1;stroke-miterlimit:10;" d="M 0.0000875 0.00169375 C 0.0000875 1.087631 -0.882725 1.97435 -1.972569 1.97435 C -3.062412 1.97435 -3.945225 1.087631 -3.945225 0.00169375 C -3.945225 -1.08815 -3.062412 -1.974869 -1.972569 -1.974869 C -0.882725 -1.974869 0.0000875 -1.08815 0.0000875 0.00169375 Z M 0.0000875 0.00169375 " transform="matrix(1,0,0,-1,23.4296,75.3181)"/>
<path style="fill-rule:nonzero;fill:rgb(0%,69.999695%,0%);fill-opacity:1;stroke-width:0.398;stroke-linecap:butt;stroke-linejoin:miter;stroke:rgb(0%,0%,0%);stroke-opacity:1;stroke-miterlimit:10;" d="M 0.001375 0.00169375 C 0.001375 1.087631 -0.881437 1.97435 -1.971281 1.97435 C -3.061125 1.97435 -3.943937 1.087631 -3.943937 0.00169375 C -3.943937 -1.08815 -3.061125 -1.974869 -1.971281 -1.974869 C -0.881437 -1.974869 0.001375 -1.08815 0.001375 0.00169375 Z M 0.001375 0.00169375 " transform="matrix(1,0,0,-1,38.1705,75.3181)"/>
<path style="fill-rule:nonzero;fill:rgb(100%,59.999084%,19.999695%);fill-opacity:1;stroke-width:0.398;stroke-linecap:butt;stroke-linejoin:miter;stroke:rgb(0%,0%,0%);stroke-opacity:1;stroke-miterlimit:10;" d="M -0.0012 -0.0012 C -0.0012 1.088644 -0.884013 1.971456 -1.973856 1.971456 C -3.0637 1.971456 -3.946513 1.088644 -3.946513 -0.0012 C -3.946513 -1.087138 -3.0637 -1.973856 -1.973856 -1.973856 C -0.884013 -1.973856 -0.0012 -1.087138 -0.0012 -0.0012 Z M -0.0012 -0.0012 " transform="matrix(1,0,0,-1,8.6887,86.3738)"/>
<path style="fill-rule:nonzero;fill:rgb(100%,0%,0%);fill-opacity:1;stroke-width:0.398;stroke-linecap:butt;stroke-linejoin:miter;stroke:rgb(0%,0%,0%);stroke-opacity:1;stroke-miterlimit:10;" d="M 0.0000875 -0.0012 C 0.0000875 1.088644 -0.882725 1.971456 -1.972569 1.971456 C -3.062412 1.971456 -3.945225 1.088644 -3.945225 -0.0012 C -3.945225 -1.087138 -3.062412 -1.973856 -1.972569 -1.973856 C -0.882725 -1.973856 0.0000875 -1.087138 0.0000875 -0.0012 Z M 0.0000875 -0.0012 " transform="matrix(1,0,0,-1,23.4296,86.3738)"/>
<path style="fill-rule:nonzero;fill:rgb(0%,69.999695%,0%);fill-opacity:1;stroke-width:0.398;stroke-linecap:butt;stroke-linejoin:miter;stroke:rgb(0%,0%,0%);stroke-opacity:1;stroke-miterlimit:10;" d="M 0.001375 -0.0012 C 0.001375 1.088644 -0.881437 1.971456 -1.971281 1.971456 C -3.061125 1.971456 -3.943937 1.088644 -3.943937 -0.0012 C -3.943937 -1.087138 -3.061125 -1.973856 -1.971281 -1.973856 C -0.881437 -1.973856 0.001375 -1.087138 0.001375 -0.0012 Z M 0.001375 -0.0012 " transform="matrix(1,0,0,-1,38.1705,86.3738)"/>
<path style=" stroke:none;fill-rule:nonzero;fill:rgb(100%,59.999084%,19.999695%);fill-opacity:0.7;" d="M 8.6875 93.746094 C 8.6875 92.65625 7.804688 91.769531 6.714844 91.769531 C 5.625 91.769531 4.742188 92.65625 4.742188 93.746094 C 4.742188 94.832031 5.625 95.71875 6.714844 95.71875 C 7.804688 95.71875 8.6875 94.832031 8.6875 93.746094 Z M 8.6875 93.746094 "/>
<path style=" stroke:none;fill-rule:nonzero;fill:rgb(100%,0%,0%);fill-opacity:0.7;" d="M 23.429688 93.746094 C 23.429688 92.65625 22.546875 91.769531 21.457031 91.769531 C 20.367188 91.769531 19.484375 92.65625 19.484375 93.746094 C 19.484375 94.832031 20.367188 95.71875 21.457031 95.71875 C 22.546875 95.71875 23.429688 94.832031 23.429688 93.746094 Z M 23.429688 93.746094 "/>
<path style=" stroke:none;fill-rule:nonzero;fill:rgb(0%,69.999695%,0%);fill-opacity:0.7;" d="M 38.171875 93.746094 C 38.171875 92.65625 37.289062 91.769531 36.199219 91.769531 C 35.109375 91.769531 34.226562 92.65625 34.226562 93.746094 C 34.226562 94.832031 35.109375 95.71875 36.199219 95.71875 C 37.289062 95.71875 38.171875 94.832031 38.171875 93.746094 Z M 38.171875 93.746094 "/>
<path style=" stroke:none;fill-rule:nonzero;fill:rgb(100%,59.999084%,19.999695%);fill-opacity:0.4;" d="M 8.6875 101.113281 C 8.6875 100.027344 7.804688 99.140625 6.714844 99.140625 C 5.625 99.140625 4.742188 100.027344 4.742188 101.113281 C 4.742188 102.203125 5.625 103.085938 6.714844 103.085938 C 7.804688 103.085938 8.6875 102.203125 8.6875 101.113281 Z M 8.6875 101.113281 "/>
<path style=" stroke:none;fill-rule:nonzero;fill:rgb(100%,0%,0%);fill-opacity:0.4;" d="M 23.429688 101.113281 C 23.429688 100.027344 22.546875 99.140625 21.457031 99.140625 C 20.367188 99.140625 19.484375 100.027344 19.484375 101.113281 C 19.484375 102.203125 20.367188 103.085938 21.457031 103.085938 C 22.546875 103.085938 23.429688 102.203125 23.429688 101.113281 Z M 23.429688 101.113281 "/>
<path style=" stroke:none;fill-rule:nonzero;fill:rgb(0%,69.999695%,0%);fill-opacity:0.4;" d="M 38.171875 101.113281 C 38.171875 100.027344 37.289062 99.140625 36.199219 99.140625 C 35.109375 99.140625 34.226562 100.027344 34.226562 101.113281 C 34.226562 102.203125 35.109375 103.085938 36.199219 103.085938 C 37.289062 103.085938 38.171875 102.203125 38.171875 101.113281 Z M 38.171875 101.113281 "/>
<path style="fill:none;stroke-width:0.398;stroke-linecap:butt;stroke-linejoin:miter;stroke:rgb(0%,0%,0%);stroke-opacity:1;stroke-miterlimit:10;" d="M -0.0008 0.0012375 L -0.0008 -11.057356 L 40.538263 -11.057356 L 40.538263 0.0012375 Z M -0.0008 -11.057356 L -0.0008 -36.850325 L 40.538263 -36.850325 L 40.538263 -11.057356 Z M -0.0008 -11.057356 " transform="matrix(1,0,0,-1,1.1883,69.7903)"/>
<path style="fill-rule:nonzero;fill:rgb(100%,59.999084%,19.999695%);fill-opacity:1;stroke-width:0.398;stroke-linecap:butt;stroke-linejoin:miter;stroke:rgb(0%,0%,0%);stroke-opacity:1;stroke-miterlimit:10;" d="M 0.0003625 0.00169375 C 0.0003625 1.087631 -0.88245 1.97435 -1.972294 1.97435 C -3.062138 1.97435 -3.94495 1.087631 -3.94495 0.00169375 C -3.94495 -1.08815 -3.062138 -1.974869 -1.972294 -1.974869 C -0.88245 -1.974869 0.0003625 -1.08815 0.0003625 0.00169375 Z M 0.0003625 0.00169375 " transform="matrix(1,0,0,-1,71.2887,75.3181)"/>
<path style="fill-rule:nonzero;fill:rgb(100%,0%,0%);fill-opacity:1;stroke-width:0.398;stroke-linecap:butt;stroke-linejoin:miter;stroke:rgb(0%,0%,0%);stroke-opacity:1;stroke-miterlimit:10;" d="M 0.00165 0.00169375 C 0.00165 1.087631 -0.881162 1.97435 -1.974912 1.97435 C -3.06085 1.97435 -3.943662 1.087631 -3.943662 0.00169375 C -3.943662 -1.08815 -3.06085 -1.974869 -1.974912 -1.974869 C -0.881162 -1.974869 0.00165 -1.08815 0.00165 0.00169375 Z M 0.00165 0.00169375 " transform="matrix(1,0,0,-1,86.0296,75.3181)"/>
<path style="fill-rule:nonzero;fill:rgb(0%,69.999695%,0%);fill-opacity:1;stroke-width:0.398;stroke-linecap:butt;stroke-linejoin:miter;stroke:rgb(0%,0%,0%);stroke-opacity:1;stroke-miterlimit:10;" d="M -0.00096875 0.00169375 C -0.00096875 1.087631 -0.883781 1.97435 -1.973625 1.97435 C -3.063469 1.97435 -3.946281 1.087631 -3.946281 0.00169375 C -3.946281 -1.08815 -3.063469 -1.974869 -1.973625 -1.974869 C -0.883781 -1.974869 -0.00096875 -1.08815 -0.00096875 0.00169375 Z M -0.00096875 0.00169375 " transform="matrix(1,0,0,-1,100.7705,75.3181)"/>
<path style=" stroke:none;fill-rule:nonzero;fill:rgb(100%,59.999084%,19.999695%);fill-opacity:0.7;" d="M 71.289062 86.375 C 71.289062 85.285156 70.40625 84.402344 69.316406 84.402344 C 68.226562 84.402344 67.34375 85.285156 67.34375 86.375 C 67.34375 87.460938 68.226562 88.347656 69.316406 88.347656 C 70.40625 88.347656 71.289062 87.460938 71.289062 86.375 Z M 71.289062 86.375 "/>
<path style=" stroke:none;fill-rule:nonzero;fill:rgb(100%,0%,0%);fill-opacity:1;" d="M 86.03125 86.375 C 86.03125 85.285156 85.148438 84.402344 84.054688 84.402344 C 82.96875 84.402344 82.085938 85.285156 82.085938 86.375 C 82.085938 87.460938 82.96875 88.347656 84.054688 88.347656 C 85.148438 88.347656 86.03125 87.460938 86.03125 86.375 Z M 86.03125 86.375 "/>
<path style=" stroke:none;fill-rule:nonzero;fill:rgb(0%,69.999695%,0%);fill-opacity:0.4;" d="M 100.769531 86.375 C 100.769531 85.285156 99.886719 84.402344 98.796875 84.402344 C 97.707031 84.402344 96.824219 85.285156 96.824219 86.375 C 96.824219 87.460938 97.707031 88.347656 98.796875 88.347656 C 99.886719 88.347656 100.769531 87.460938 100.769531 86.375 Z M 100.769531 86.375 "/>
<path style=" stroke:none;fill-rule:nonzero;fill:rgb(100%,59.999084%,19.999695%);fill-opacity:1;" d="M 71.289062 93.746094 C 71.289062 92.65625 70.40625 91.769531 69.316406 91.769531 C 68.226562 91.769531 67.34375 92.65625 67.34375 93.746094 C 67.34375 94.832031 68.226562 95.71875 69.316406 95.71875 C 70.40625 95.71875 71.289062 94.832031 71.289062 93.746094 Z M 71.289062 93.746094 "/>
<path style=" stroke:none;fill-rule:nonzero;fill:rgb(100%,0%,0%);fill-opacity:0.4;" d="M 86.03125 93.746094 C 86.03125 92.65625 85.148438 91.769531 84.054688 91.769531 C 82.96875 91.769531 82.085938 92.65625 82.085938 93.746094 C 82.085938 94.832031 82.96875 95.71875 84.054688 95.71875 C 85.148438 95.71875 86.03125 94.832031 86.03125 93.746094 Z M 86.03125 93.746094 "/>
<path style=" stroke:none;fill-rule:nonzero;fill:rgb(0%,69.999695%,0%);fill-opacity:0.7;" d="M 100.769531 93.746094 C 100.769531 92.65625 99.886719 91.769531 98.796875 91.769531 C 97.707031 91.769531 96.824219 92.65625 96.824219 93.746094 C 96.824219 94.832031 97.707031 95.71875 98.796875 95.71875 C 99.886719 95.71875 100.769531 94.832031 100.769531 93.746094 Z M 100.769531 93.746094 "/>
<path style=" stroke:none;fill-rule:nonzero;fill:rgb(100%,59.999084%,19.999695%);fill-opacity:0.4;" d="M 71.289062 101.113281 C 71.289062 100.027344 70.40625 99.140625 69.316406 99.140625 C 68.226562 99.140625 67.34375 100.027344 67.34375 101.113281 C 67.34375 102.203125 68.226562 103.085938 69.316406 103.085938 C 70.40625 103.085938 71.289062 102.203125 71.289062 101.113281 Z M 71.289062 101.113281 "/>
<path style=" stroke:none;fill-rule:nonzero;fill:rgb(100%,0%,0%);fill-opacity:0.7;" d="M 86.03125 101.113281 C 86.03125 100.027344 85.148438 99.140625 84.054688 99.140625 C 82.96875 99.140625 82.085938 100.027344 82.085938 101.113281 C 82.085938 102.203125 82.96875 103.085938 84.054688 103.085938 C 85.148438 103.085938 86.03125 102.203125 86.03125 101.113281 Z M 86.03125 101.113281 "/>
<path style=" stroke:none;fill-rule:nonzero;fill:rgb(0%,69.999695%,0%);fill-opacity:1;" d="M 100.769531 101.113281 C 100.769531 100.027344 99.886719 99.140625 98.796875 99.140625 C 97.707031 99.140625 96.824219 100.027344 96.824219 101.113281 C 96.824219 102.203125 97.707031 103.085938 98.796875 103.085938 C 99.886719 103.085938 100.769531 102.203125 100.769531 101.113281 Z M 100.769531 101.113281 "/>
<path style="fill:none;stroke-width:0.398;stroke-linecap:butt;stroke-linejoin:miter;stroke:rgb(0%,0%,0%);stroke-opacity:1;stroke-miterlimit:10;" d="M 0.0007625 0.0012375 L 0.0007625 -11.057356 L 40.535919 -11.057356 L 40.535919 0.0012375 Z M 0.0007625 -11.057356 L 0.0007625 -36.850325 L 40.535919 -36.850325 L 40.535919 -11.057356 Z M 0.0007625 -11.057356 " transform="matrix(1,0,0,-1,63.7883,69.7903)"/>
<path style="fill:none;stroke-width:0.398;stroke-linecap:butt;stroke-linejoin:miter;stroke:rgb(0%,0%,0%);stroke-opacity:1;stroke-miterlimit:10;" d="M 0.0006125 -0.00044375 L 17.981081 -0.00044375 " transform="matrix(1,0,0,-1,47.2572,24.9644)"/>
<path style="fill:none;stroke-width:0.398;stroke-linecap:round;stroke-linejoin:round;stroke:rgb(0%,0%,0%);stroke-opacity:1;stroke-miterlimit:10;" d="M -0.00155875 -0.00082875 C 0.377347 -1.434423 1.221097 -2.110204 2.07266 -2.391454 C 1.221097 -2.668798 0.377347 -3.348485 -0.00155875 -4.782079 " transform="matrix(1,0,0,-1,63.36484,22.57339)"/>
<path style="fill:none;stroke-width:0.398;stroke-linecap:butt;stroke-linejoin:miter;stroke:rgb(0%,0%,0%);stroke-opacity:1;stroke-miterlimit:10;" d="M -0.001 0.00068125 L -0.001 -14.944631 " transform="matrix(1,0,0,-1,84.0635,50.7624)"/>
<path style="fill:none;stroke-width:0.398;stroke-linecap:round;stroke-linejoin:round;stroke:rgb(0%,0%,0%);stroke-opacity:1;stroke-miterlimit:10;" d="M 0.0014575 -0.001335 C 0.380364 -1.434929 1.220208 -2.11071 2.07177 -2.39196 C 1.220208 -2.669304 0.380364 -3.345085 0.0014575 -4.782585 " transform="matrix(0,1,1,0,86.45446,63.83448)"/>
<path style="fill:none;stroke-width:0.398;stroke-linecap:butt;stroke-linejoin:miter;stroke:rgb(0%,0%,0%);stroke-opacity:1;stroke-miterlimit:10;" d="M 0.001275 -0.0013 L -14.2956 -0.0013 " transform="matrix(1,0,0,-1,60.1081,90.0612)"/>
<path style="fill:none;stroke-width:0.398;stroke-linecap:round;stroke-linejoin:round;stroke:rgb(0%,0%,0%);stroke-opacity:1;stroke-miterlimit:10;" d="M -0.00158 0.000895 C 0.377326 -1.436605 1.221076 -2.112386 2.072639 -2.38973 C 1.221076 -2.67098 0.377326 -3.346761 -0.00158 -4.780355 " transform="matrix(-1,0,0,1,47.68592,92.45223)"/>
</g>
</svg>
