<?xml version="1.0" encoding="UTF-8"?>
<svg xmlns="http://www.w3.org/2000/svg" xmlns:xlink="http://www.w3.org/1999/xlink" width="44pt" height="60pt" viewBox="0 0 44 60" version="1.1">
<g id="surface1">
<path style="fill-rule:nonzero;fill:rgb(100%,79.998779%,79.998779%);fill-opacity:1;stroke-width:1;stroke-linecap:butt;stroke-linejoin:miter;stroke:rgb(0%,0%,0%);stroke-opacity:1;stroke-miterlimit:4;" d="M -0.000839672 0.0094771 C -0.000839672 0.653021 -0.0670082 1.296564 -0.177289 1.940108 C -0.28757 2.583651 -0.464019 3.227195 -0.684581 3.823069 C -0.905142 4.442777 -1.191872 5.014816 -1.522715 5.56302 C -1.853557 6.111224 -2.228512 6.611757 -2.625523 7.064621 C -3.04459 7.54132 -3.507769 7.946515 -3.993005 8.304039 C -4.500297 8.685398 -5.007588 8.995252 -5.558992 9.233602 C -6.110397 9.495786 -6.661801 9.686466 -7.235261 9.80564 C -7.830777 9.924815 -8.404237 9.99632 -8.999754 9.99632 C -9.59527 9.99632 -10.16873 9.924815 -10.764247 9.80564 C -11.337707 9.686466 -11.889111 9.495786 -12.440515 9.233602 C -12.991919 8.995252 -13.499211 8.685398 -14.006503 8.304039 C -14.491738 7.946515 -14.954917 7.54132 -15.373985 7.064621 C -15.770995 6.611757 -16.14595 6.111224 -16.476793 5.56302 C -16.807635 5.014816 -17.094365 4.442777 -17.314927 3.823069 C -17.535488 3.227195 -17.711938 2.583651 -17.822219 1.940108 C -17.932499 1.296564 -17.998668 0.653021 -17.998668 0.0094771 C -17.998668 -0.657901 -17.932499 -1.301445 -17.822219 -1.944989 C -17.711938 -2.588532 -17.535488 -3.208241 -17.314927 -3.827949 C -17.094365 -4.423823 -16.807635 -5.019697 -16.476793 -5.567901 C -16.14595 -6.092269 -15.770995 -6.616638 -15.373985 -7.069502 C -14.954917 -7.546201 -14.491738 -7.951395 -14.006503 -8.308919 C -13.499211 -8.690279 -12.991919 -8.976298 -12.440515 -9.238482 C -11.889111 -9.500667 -11.337707 -9.691346 -10.764247 -9.810521 C -10.16873 -9.929696 -9.59527 -10.001201 -8.999754 -10.001201 C -8.404237 -10.001201 -7.830777 -9.929696 -7.235261 -9.810521 C -6.661801 -9.691346 -6.110397 -9.500667 -5.558992 -9.238482 C -5.007588 -8.976298 -4.500297 -8.690279 -3.993005 -8.308919 C -3.507769 -7.951395 -3.04459 -7.546201 -2.625523 -7.069502 C -2.228512 -6.616638 -1.853557 -6.092269 -1.522715 -5.567901 C -1.191872 -5.019697 -0.905142 -4.423823 -0.684581 -3.827949 C -0.464019 -3.208241 -0.28757 -2.588532 -0.177289 -1.944989 C -0.0670082 -1.301445 -0.000839672 -0.657901 -0.000839672 0.0094771 Z M -0.000839672 0.0094771 " transform="matrix(0.177105,0,0,0.163888,11.45718,5.943759)"/>
<path style="fill-rule:nonzero;fill:rgb(100%,19.999695%,19.999695%);fill-opacity:1;stroke-width:1;stroke-linecap:butt;stroke-linejoin:miter;stroke:rgb(0%,0%,0%);stroke-opacity:1;stroke-miterlimit:4;" d="M 0.00278008 0.007378 C 0.00278008 0.650922 -0.0633884 1.3183 -0.173669 1.961844 C -0.28395 2.605387 -0.460399 3.225096 -0.680961 3.82097 C -0.901523 4.440678 -1.188253 5.012717 -1.519095 5.560921 C -1.849938 6.109124 -2.224892 6.609658 -2.643959 7.062522 C -3.063026 7.539221 -3.50415 7.944415 -3.989385 8.325775 C -4.496677 8.683299 -5.003969 8.993153 -5.555373 9.231503 C -6.106777 9.493687 -6.658181 9.684367 -7.253697 9.803541 C -7.827157 9.946551 -8.400618 9.994221 -8.996134 9.994221 C -9.59165 9.994221 -10.165111 9.946551 -10.760627 9.803541 C -11.334087 9.684367 -11.907547 9.493687 -12.436895 9.231503 C -12.988299 8.993153 -13.517647 8.683299 -14.002883 8.325775 C -14.488118 7.944415 -14.951298 7.539221 -15.370365 7.062522 C -15.789432 6.609658 -16.164387 6.109124 -16.473173 5.560921 C -16.804015 5.012717 -17.090745 4.440678 -17.311307 3.82097 C -17.531869 3.225096 -17.708318 2.605387 -17.818599 1.961844 C -17.950936 1.3183 -17.995048 0.650922 -17.995048 0.007378 C -17.995048 -0.660001 -17.950936 -1.303544 -17.818599 -1.947088 C -17.708318 -2.590631 -17.531869 -3.21034 -17.311307 -3.830048 C -17.090745 -4.425922 -16.804015 -5.021796 -16.473173 -5.546165 C -16.164387 -6.094368 -15.789432 -6.618737 -15.370365 -7.071601 C -14.951298 -7.524465 -14.488118 -7.953494 -14.002883 -8.311019 C -13.517647 -8.668543 -12.988299 -8.978397 -12.436895 -9.240581 C -11.907547 -9.478931 -11.334087 -9.669611 -10.760627 -9.81262 C -10.165111 -9.931795 -9.59165 -10.0033 -8.996134 -10.0033 C -8.400618 -10.0033 -7.827157 -9.931795 -7.253697 -9.81262 C -6.658181 -9.669611 -6.106777 -9.478931 -5.555373 -9.240581 C -5.003969 -8.978397 -4.496677 -8.668543 -3.989385 -8.311019 C -3.50415 -7.953494 -3.063026 -7.524465 -2.643959 -7.071601 C -2.224892 -6.618737 -1.849938 -6.094368 -1.519095 -5.546165 C -1.188253 -5.021796 -0.901523 -4.425922 -0.680961 -3.830048 C -0.460399 -3.21034 -0.28395 -2.590631 -0.173669 -1.947088 C -0.0633884 -1.303544 0.00278008 -0.660001 0.00278008 0.007378 Z M 0.00278008 0.007378 " transform="matrix(0.177105,0,0,0.163888,6.144039,16.596447)"/>
<path style="fill-rule:nonzero;fill:rgb(79.998779%,100%,100%);fill-opacity:1;stroke-width:1;stroke-linecap:butt;stroke-linejoin:miter;stroke:rgb(0%,0%,0%);stroke-opacity:1;stroke-miterlimit:4;" d="M -0.00301152 -0.00139862 C -0.00301152 0.66598 -0.0471238 1.309523 -0.179461 1.953067 C -0.289742 2.596611 -0.466191 3.216319 -0.686753 3.836028 C -0.907314 4.431902 -1.194044 5.00394 -1.524887 5.552144 C -1.855729 6.100348 -2.208628 6.600882 -2.627695 7.077581 C -3.046762 7.530445 -3.509941 7.959474 -3.995177 8.316998 C -4.480412 8.674522 -5.00976 8.984376 -5.561164 9.246561 C -6.112568 9.48491 -6.663972 9.67559 -7.237433 9.8186 C -7.832949 9.937774 -8.406409 10.009279 -9.001926 10.009279 C -9.597442 10.009279 -10.170902 9.937774 -10.766419 9.8186 C -11.339879 9.67559 -11.891283 9.48491 -12.442687 9.246561 C -12.994091 8.984376 -13.501383 8.674522 -14.008674 8.316998 C -14.49391 7.959474 -14.935033 7.530445 -15.3541 7.077581 C -15.773167 6.600882 -16.148122 6.100348 -16.478964 5.552144 C -16.809807 5.00394 -17.096537 4.431902 -17.317099 3.836028 C -17.53766 3.216319 -17.71411 2.596611 -17.82439 1.953067 C -17.934671 1.309523 -18.00084 0.66598 -18.00084 -0.00139862 C -18.00084 -0.668777 -17.934671 -1.312321 -17.82439 -1.955864 C -17.71411 -2.599408 -17.53766 -3.219116 -17.317099 -3.838825 C -17.096537 -4.434699 -16.809807 -5.006738 -16.478964 -5.554941 C -16.148122 -6.103145 -15.773167 -6.603679 -15.3541 -7.080378 C -14.935033 -7.533242 -14.49391 -7.938436 -14.008674 -8.319795 C -13.501383 -8.677319 -12.994091 -8.987174 -12.442687 -9.249358 C -11.891283 -9.487708 -11.339879 -9.678387 -10.766419 -9.797562 C -10.170902 -9.940572 -9.597442 -9.988241 -9.001926 -9.988241 C -8.406409 -9.988241 -7.832949 -9.940572 -7.237433 -9.797562 C -6.663972 -9.678387 -6.112568 -9.487708 -5.561164 -9.249358 C -5.00976 -8.987174 -4.480412 -8.677319 -3.995177 -8.319795 C -3.509941 -7.938436 -3.046762 -7.533242 -2.627695 -7.080378 C -2.208628 -6.603679 -1.855729 -6.103145 -1.524887 -5.554941 C -1.194044 -5.006738 -0.907314 -4.434699 -0.686753 -3.838825 C -0.466191 -3.219116 -0.289742 -2.599408 -0.179461 -1.955864 C -0.0471238 -1.312321 -0.00301152 -0.668777 -0.00301152 -0.00139862 Z M -0.00301152 -0.00139862 " transform="matrix(0.177105,0,0,0.163888,14.645065,51.83226)"/>
<path style="fill-rule:nonzero;fill:rgb(86.299133%,98.799133%,58.399963%);fill-opacity:1;stroke-width:1;stroke-linecap:butt;stroke-linejoin:miter;stroke:rgb(0%,0%,0%);stroke-opacity:1;stroke-miterlimit:4;" d="M -0.0103798 -0.00577914 C -0.0103798 0.661599 -0.0544921 1.305143 -0.164773 1.948687 C -0.29711 2.59223 -0.451503 3.211939 -0.694121 3.831647 C -0.914682 4.427521 -1.179356 4.99956 -1.510199 5.547764 C -1.841041 6.095967 -2.215996 6.596501 -2.635063 7.0732 C -3.05413 7.526064 -3.51731 7.955093 -4.002545 8.312617 C -4.487781 8.670142 -5.017129 8.979996 -5.546476 9.24218 C -6.09788 9.48053 -6.671341 9.671209 -7.244801 9.814219 C -7.818261 9.933394 -8.413777 10.004899 -9.009294 10.004899 C -9.582754 10.004899 -10.17827 9.933394 -10.751731 9.814219 C -11.325191 9.671209 -11.898651 9.48053 -12.450055 9.24218 C -12.979403 8.979996 -13.508751 8.670142 -13.993986 8.312617 C -14.501278 7.955093 -14.942401 7.526064 -15.361468 7.0732 C -15.780536 6.596501 -16.15549 6.095967 -16.486333 5.547764 C -16.817175 4.99956 -17.081849 4.427521 -17.324467 3.831647 C -17.545029 3.211939 -17.721478 2.59223 -17.831759 1.948687 C -17.942039 1.305143 -18.008208 0.661599 -18.008208 -0.00577914 C -18.008208 -0.649323 -17.942039 -1.316701 -17.831759 -1.960245 C -17.721478 -2.603788 -17.545029 -3.223497 -17.324467 -3.819371 C -17.081849 -4.439079 -16.817175 -5.011118 -16.486333 -5.559322 C -16.15549 -6.107526 -15.780536 -6.60806 -15.361468 -7.060923 C -14.942401 -7.537622 -14.501278 -7.942817 -13.993986 -8.324176 C -13.508751 -8.6817 -12.979403 -8.991554 -12.450055 -9.229904 C -11.898651 -9.492088 -11.325191 -9.682768 -10.751731 -9.801942 C -10.17827 -9.944952 -9.582754 -9.992622 -9.009294 -9.992622 C -8.413777 -9.992622 -7.818261 -9.944952 -7.244801 -9.801942 C -6.671341 -9.682768 -6.09788 -9.492088 -5.546476 -9.229904 C -5.017129 -8.991554 -4.487781 -8.6817 -4.002545 -8.324176 C -3.51731 -7.942817 -3.05413 -7.537622 -2.635063 -7.060923 C -2.215996 -6.60806 -1.841041 -6.107526 -1.510199 -5.559322 C -1.179356 -5.011118 -0.914682 -4.439079 -0.694121 -3.819371 C -0.451503 -3.223497 -0.29711 -2.603788 -0.164773 -1.960245 C -0.0544921 -1.316701 -0.0103798 -0.649323 -0.0103798 -0.00577914 Z M -0.0103798 -0.00577914 " transform="matrix(0.177105,0,0,0.163888,36.251838,18.235322)"/>
<path style="fill-rule:nonzero;fill:rgb(79.998779%,100%,100%);fill-opacity:1;stroke-width:1;stroke-linecap:butt;stroke-linejoin:miter;stroke:rgb(0%,0%,0%);stroke-opacity:1;stroke-miterlimit:4;" d="M -0.00314028 0.00146095 C -0.00314028 0.668839 -0.0472526 1.312383 -0.17959 1.955927 C -0.28987 2.59947 -0.46632 3.219179 -0.686881 3.838887 C -0.907443 4.434761 -1.194173 5.0068 -1.525015 5.555004 C -1.855858 6.103207 -2.208756 6.603741 -2.627824 7.08044 C -3.046891 7.533304 -3.51007 7.938498 -3.995306 8.319858 C -4.502597 8.677382 -5.009889 8.987236 -5.561293 9.24942 C -6.112697 9.48777 -6.664101 9.678449 -7.237561 9.797624 C -7.833078 9.940634 -8.406538 9.988304 -9.002054 9.988304 C -9.597571 9.988304 -10.171031 9.940634 -10.766547 9.797624 C -11.340008 9.678449 -11.891412 9.48777 -12.442816 9.24942 C -12.99422 8.987236 -13.501511 8.677382 -14.008803 8.319858 C -14.494039 7.938498 -14.957218 7.533304 -15.354229 7.08044 C -15.773296 6.603741 -16.148251 6.103207 -16.479093 5.555004 C -16.809936 5.0068 -17.096666 4.434761 -17.317227 3.838887 C -17.537789 3.219179 -17.714238 2.59947 -17.824519 1.955927 C -17.9348 1.312383 -18.000968 0.668839 -18.000968 0.00146095 C -18.000968 -0.665918 -17.9348 -1.309461 -17.824519 -1.953005 C -17.714238 -2.596548 -17.537789 -3.216257 -17.317227 -3.835966 C -17.096666 -4.431839 -16.809936 -5.003878 -16.479093 -5.552082 C -16.148251 -6.100286 -15.773296 -6.600819 -15.354229 -7.077518 C -14.957218 -7.530382 -14.494039 -7.959411 -14.008803 -8.316936 C -13.501511 -8.67446 -12.99422 -8.984314 -12.442816 -9.246499 C -11.891412 -9.484848 -11.340008 -9.675528 -10.766547 -9.818537 C -10.171031 -9.937712 -9.597571 -10.009217 -9.002054 -10.009217 C -8.406538 -10.009217 -7.833078 -9.937712 -7.237561 -9.818537 C -6.664101 -9.675528 -6.112697 -9.484848 -5.561293 -9.246499 C -5.009889 -8.984314 -4.502597 -8.67446 -3.995306 -8.316936 C -3.51007 -7.959411 -3.046891 -7.530382 -2.627824 -7.077518 C -2.208756 -6.600819 -1.855858 -6.100286 -1.525015 -5.552082 C -1.194173 -5.003878 -0.907443 -4.431839 -0.686881 -3.835966 C -0.46632 -3.216257 -0.28987 -2.596548 -0.17959 -1.953005 C -0.0472526 -1.309461 -0.00314028 -0.665918 -0.00314028 0.00146095 Z M -0.00314028 0.00146095 " transform="matrix(0.177105,0,0,0.163888,25.625556,55.929448)"/>
<path style="fill-rule:nonzero;fill:rgb(100%,19.999695%,19.999695%);fill-opacity:1;stroke-width:1;stroke-linecap:butt;stroke-linejoin:miter;stroke:rgb(0%,0%,0%);stroke-opacity:1;stroke-miterlimit:4;" d="M -0.0103555 -0.00147155 C -0.0103555 0.665907 -0.0544678 1.309451 -0.164749 1.952994 C -0.297086 2.596538 -0.451479 3.216246 -0.694096 3.835955 C -0.914658 4.431829 -1.179332 5.003867 -1.510174 5.552071 C -1.841017 6.100275 -2.215972 6.600809 -2.635039 7.077508 C -3.054106 7.530372 -3.517285 7.959401 -4.002521 8.316925 C -4.487756 8.674449 -5.017104 8.984304 -5.546452 9.246488 C -6.097856 9.484837 -6.671316 9.675517 -7.244777 9.818527 C -7.818237 9.937701 -8.413753 10.009206 -9.00927 10.009206 C -9.58273 10.009206 -10.178246 9.937701 -10.751706 9.818527 C -11.325167 9.675517 -11.898627 9.484837 -12.450031 9.246488 C -12.979379 8.984304 -13.508727 8.674449 -13.993962 8.316925 C -14.501254 7.959401 -14.942377 7.530372 -15.361444 7.077508 C -15.780511 6.600809 -16.155466 6.100275 -16.486308 5.552071 C -16.817151 5.003867 -17.081825 4.431829 -17.324443 3.835955 C -17.545004 3.216246 -17.721454 2.596538 -17.831734 1.952994 C -17.942015 1.309451 -18.008184 0.665907 -18.008184 -0.00147155 C -18.008184 -0.66885 -17.942015 -1.312394 -17.831734 -1.955937 C -17.721454 -2.599481 -17.545004 -3.219189 -17.324443 -3.838898 C -17.081825 -4.434772 -16.817151 -5.00681 -16.486308 -5.555014 C -16.155466 -6.103218 -15.780511 -6.603752 -15.361444 -7.080451 C -14.942377 -7.533315 -14.501254 -7.938509 -13.993962 -8.319868 C -13.508727 -8.677392 -12.979379 -8.987247 -12.450031 -9.249431 C -11.898627 -9.487781 -11.325167 -9.67846 -10.751706 -9.797635 C -10.178246 -9.940645 -9.58273 -9.988314 -9.00927 -9.988314 C -8.413753 -9.988314 -7.818237 -9.940645 -7.244777 -9.797635 C -6.671316 -9.67846 -6.097856 -9.487781 -5.546452 -9.249431 C -5.017104 -8.987247 -4.487756 -8.677392 -4.002521 -8.319868 C -3.517285 -7.938509 -3.054106 -7.533315 -2.635039 -7.080451 C -2.215972 -6.603752 -1.841017 -6.103218 -1.510174 -5.555014 C -1.179332 -5.00681 -0.914658 -4.434772 -0.694096 -3.838898 C -0.451479 -3.219189 -0.297086 -2.599481 -0.164749 -1.955937 C -0.0544678 -1.312394 -0.0103555 -0.66885 -0.0103555 -0.00147155 Z M -0.0103555 -0.00147155 " transform="matrix(0.177105,0,0,0.163888,3.841678,29.871335)"/>
<path style="fill-rule:nonzero;fill:rgb(86.299133%,98.799133%,58.399963%);fill-opacity:1;stroke-width:1;stroke-linecap:butt;stroke-linejoin:miter;stroke:rgb(0%,0%,0%);stroke-opacity:1;stroke-miterlimit:4;" d="M -0.00314028 -0.0118785 C -0.00314028 0.6555 -0.0472526 1.299044 -0.17959 1.942587 C -0.28987 2.586131 -0.46632 3.229674 -0.686881 3.825548 C -0.907443 4.421422 -1.194173 5.017295 -1.525015 5.565499 C -1.855858 6.113703 -2.208756 6.614237 -2.627824 7.067101 C -3.046891 7.5438 -3.51007 7.948994 -3.995306 8.306518 C -4.502597 8.687877 -5.009889 8.997732 -5.561293 9.236081 C -6.112697 9.498265 -6.664101 9.688945 -7.237561 9.80812 C -7.833078 9.927294 -8.406538 9.998799 -9.002054 9.998799 C -9.597571 9.998799 -10.171031 9.927294 -10.766547 9.80812 C -11.340008 9.688945 -11.891412 9.498265 -12.442816 9.236081 C -12.99422 8.997732 -13.501511 8.687877 -14.008803 8.306518 C -14.494039 7.948994 -14.957218 7.5438 -15.354229 7.067101 C -15.773296 6.614237 -16.148251 6.113703 -16.479093 5.565499 C -16.809936 5.017295 -17.096666 4.421422 -17.317227 3.825548 C -17.537789 3.229674 -17.714238 2.586131 -17.824519 1.942587 C -17.9348 1.299044 -18.000968 0.6555 -18.000968 -0.0118785 C -18.000968 -0.655422 -17.9348 -1.298966 -17.824519 -1.942509 C -17.714238 -2.586053 -17.537789 -3.229596 -17.317227 -3.82547 C -17.096666 -4.421344 -16.809936 -5.017217 -16.479093 -5.565421 C -16.148251 -6.113625 -15.773296 -6.614159 -15.354229 -7.067023 C -14.957218 -7.543722 -14.494039 -7.948916 -14.008803 -8.30644 C -13.501511 -8.687799 -12.99422 -8.997654 -12.442816 -9.236003 C -11.891412 -9.498187 -11.340008 -9.688867 -10.766547 -9.808042 C -10.171031 -9.927217 -9.597571 -9.998721 -9.002054 -9.998721 C -8.406538 -9.998721 -7.833078 -9.927217 -7.237561 -9.808042 C -6.664101 -9.688867 -6.112697 -9.498187 -5.561293 -9.236003 C -5.009889 -8.997654 -4.502597 -8.687799 -3.995306 -8.30644 C -3.51007 -7.948916 -3.046891 -7.543722 -2.627824 -7.067023 C -2.208756 -6.614159 -1.855858 -6.113625 -1.525015 -5.565421 C -1.194173 -5.017217 -0.907443 -4.421344 -0.686881 -3.82547 C -0.46632 -3.229596 -0.28987 -2.586053 -0.17959 -1.942509 C -0.0472526 -1.298966 -0.00314028 -0.655422 -0.00314028 -0.0118785 Z M -0.00314028 -0.0118785 " transform="matrix(0.177105,0,0,0.163888,25.625556,2.666009)"/>
<path style="fill-rule:nonzero;fill:rgb(86.299133%,98.799133%,58.399963%);fill-opacity:1;stroke-width:1;stroke-linecap:butt;stroke-linejoin:miter;stroke:rgb(0%,0%,0%);stroke-opacity:1;stroke-miterlimit:4;" d="M 0.00120342 0.00451843 C 0.00120342 0.648062 -0.0649651 1.315441 -0.175246 1.958984 C -0.285527 2.602528 -0.461976 3.222236 -0.682538 3.81811 C -0.903099 4.437819 -1.189829 5.009857 -1.520672 5.558061 C -1.851514 6.106265 -2.226469 6.606799 -2.645536 7.059663 C -3.064603 7.536362 -3.505726 7.941556 -3.990962 8.322915 C -4.498254 8.680439 -5.005545 8.990294 -5.556949 9.228643 C -6.108353 9.490827 -6.659757 9.681507 -7.233218 9.800682 C -7.828734 9.943691 -8.402194 9.991361 -8.997711 9.991361 C -9.593227 9.991361 -10.166687 9.943691 -10.762204 9.800682 C -11.335664 9.681507 -11.887068 9.490827 -12.438472 9.228643 C -12.989876 8.990294 -13.519224 8.680439 -14.004459 8.322915 C -14.489695 7.941556 -14.952874 7.536362 -15.371941 7.059663 C -15.791009 6.606799 -16.165963 6.106265 -16.47475 5.558061 C -16.805592 5.009857 -17.092322 4.437819 -17.312884 3.81811 C -17.533445 3.222236 -17.709895 2.602528 -17.820175 1.958984 C -17.952512 1.315441 -17.996625 0.648062 -17.996625 0.00451843 C -17.996625 -0.66286 -17.952512 -1.306404 -17.820175 -1.949947 C -17.709895 -2.593491 -17.533445 -3.213199 -17.312884 -3.832908 C -17.092322 -4.428782 -16.805592 -5.00082 -16.47475 -5.549024 C -16.165963 -6.097228 -15.791009 -6.597762 -15.371941 -7.074461 C -14.952874 -7.527325 -14.489695 -7.956354 -14.004459 -8.313878 C -13.519224 -8.671402 -12.989876 -8.981257 -12.438472 -9.243441 C -11.887068 -9.481791 -11.335664 -9.67247 -10.762204 -9.81548 C -10.166687 -9.934655 -9.593227 -10.006159 -8.997711 -10.006159 C -8.402194 -10.006159 -7.828734 -9.934655 -7.233218 -9.81548 C -6.659757 -9.67247 -6.108353 -9.481791 -5.556949 -9.243441 C -5.005545 -8.981257 -4.498254 -8.671402 -3.990962 -8.313878 C -3.505726 -7.956354 -3.064603 -7.527325 -2.645536 -7.074461 C -2.226469 -6.597762 -1.851514 -6.097228 -1.520672 -5.549024 C -1.189829 -5.00082 -0.903099 -4.428782 -0.682538 -3.832908 C -0.461976 -3.213199 -0.285527 -2.593491 -0.175246 -1.949947 C -0.0649651 -1.306404 0.00120342 -0.66286 0.00120342 0.00451843 Z M 0.00120342 0.00451843 " transform="matrix(0.177105,0,0,0.163888,19.249787,12.499259)"/>
<path style="fill-rule:nonzero;fill:rgb(83.099365%,88.198853%,96.099854%);fill-opacity:1;stroke-width:1;stroke-linecap:butt;stroke-linejoin:miter;stroke:rgb(0%,0%,0%);stroke-opacity:1;stroke-miterlimit:4;" d="M -0.010794 0.00672692 C -0.010794 0.65027 -0.0549063 1.317649 -0.165187 1.961193 C -0.297524 2.604736 -0.451917 3.224445 -0.694535 3.820318 C -0.915097 4.440027 -1.179771 5.012066 -1.510613 5.56027 C -1.841455 6.108473 -2.21641 6.609007 -2.635477 7.061871 C -3.054544 7.53857 -3.517724 7.943764 -4.002959 8.325123 C -4.488195 8.682648 -5.017543 8.992502 -5.546891 9.230851 C -6.098295 9.493036 -6.671755 9.683715 -7.245215 9.80289 C -7.818675 9.9459 -8.414192 9.99357 -9.009708 9.99357 C -9.583168 9.99357 -10.178685 9.9459 -10.752145 9.80289 C -11.325605 9.683715 -11.899065 9.493036 -12.450469 9.230851 C -12.979817 8.992502 -13.509165 8.682648 -13.994401 8.325123 C -14.501692 7.943764 -14.942816 7.53857 -15.361883 7.061871 C -15.78095 6.609007 -16.155905 6.108473 -16.486747 5.56027 C -16.817589 5.012066 -17.082263 4.440027 -17.324881 3.820318 C -17.545443 3.224445 -17.721892 2.604736 -17.832173 1.961193 C -17.942454 1.317649 -18.008622 0.65027 -18.008622 0.00672692 C -18.008622 -0.660652 -17.942454 -1.304195 -17.832173 -1.947739 C -17.721892 -2.591282 -17.545443 -3.210991 -17.324881 -3.8307 C -17.082263 -4.426573 -16.817589 -4.998612 -16.486747 -5.546816 C -16.155905 -6.09502 -15.78095 -6.595553 -15.361883 -7.072252 C -14.942816 -7.525116 -14.501692 -7.954145 -13.994401 -8.31167 C -13.509165 -8.669194 -12.979817 -8.979048 -12.450469 -9.241233 C -11.899065 -9.479582 -11.325605 -9.670262 -10.752145 -9.813271 C -10.178685 -9.932446 -9.583168 -10.003951 -9.009708 -10.003951 C -8.414192 -10.003951 -7.818675 -9.932446 -7.245215 -9.813271 C -6.671755 -9.670262 -6.098295 -9.479582 -5.546891 -9.241233 C -5.017543 -8.979048 -4.488195 -8.669194 -4.002959 -8.31167 C -3.517724 -7.954145 -3.054544 -7.525116 -2.635477 -7.072252 C -2.21641 -6.595553 -1.841455 -6.09502 -1.510613 -5.546816 C -1.179771 -4.998612 -0.915097 -4.426573 -0.694535 -3.8307 C -0.451917 -3.210991 -0.297524 -2.591282 -0.165187 -1.947739 C -0.0549063 -1.304195 -0.010794 -0.660652 -0.010794 0.00672692 Z M -0.010794 0.00672692 " transform="matrix(0.177105,0,0,0.163888,26.068318,34.78796)"/>
<path style="fill-rule:nonzero;fill:rgb(100%,79.998779%,79.998779%);fill-opacity:1;stroke-width:1;stroke-linecap:butt;stroke-linejoin:miter;stroke:rgb(0%,0%,0%);stroke-opacity:1;stroke-miterlimit:4;" d="M -0.00301152 -0.00147155 C -0.00301152 0.665907 -0.0471238 1.309451 -0.179461 1.952994 C -0.289742 2.596538 -0.466191 3.216246 -0.686753 3.835955 C -0.907314 4.431829 -1.194044 5.003867 -1.524887 5.552071 C -1.855729 6.100275 -2.208628 6.600809 -2.627695 7.077508 C -3.046762 7.530372 -3.509941 7.959401 -3.995177 8.316925 C -4.480412 8.674449 -5.00976 8.984304 -5.561164 9.246488 C -6.112568 9.484837 -6.663972 9.675517 -7.237433 9.818527 C -7.832949 9.937701 -8.406409 10.009206 -9.001926 10.009206 C -9.597442 10.009206 -10.170902 9.937701 -10.766419 9.818527 C -11.339879 9.675517 -11.891283 9.484837 -12.442687 9.246488 C -12.994091 8.984304 -13.501383 8.674449 -14.008674 8.316925 C -14.49391 7.959401 -14.935033 7.530372 -15.3541 7.077508 C -15.773167 6.600809 -16.148122 6.100275 -16.478964 5.552071 C -16.809807 5.003867 -17.096537 4.431829 -17.317099 3.835955 C -17.53766 3.216246 -17.71411 2.596538 -17.82439 1.952994 C -17.934671 1.309451 -18.00084 0.665907 -18.00084 -0.00147155 C -18.00084 -0.66885 -17.934671 -1.312394 -17.82439 -1.955937 C -17.71411 -2.599481 -17.53766 -3.219189 -17.317099 -3.838898 C -17.096537 -4.434772 -16.809807 -5.00681 -16.478964 -5.555014 C -16.148122 -6.103218 -15.773167 -6.603752 -15.3541 -7.080451 C -14.935033 -7.533315 -14.49391 -7.938509 -14.008674 -8.319868 C -13.501383 -8.677392 -12.994091 -8.987247 -12.442687 -9.249431 C -11.891283 -9.487781 -11.339879 -9.67846 -10.766419 -9.797635 C -10.170902 -9.940645 -9.597442 -9.988314 -9.001926 -9.988314 C -8.406409 -9.988314 -7.832949 -9.940645 -7.237433 -9.797635 C -6.663972 -9.67846 -6.112568 -9.487781 -5.561164 -9.249431 C -5.00976 -8.987247 -4.480412 -8.677392 -3.995177 -8.319868 C -3.509941 -7.938509 -3.046762 -7.533315 -2.627695 -7.080451 C -2.208628 -6.603752 -1.855729 -6.103218 -1.524887 -5.555014 C -1.194044 -5.00681 -0.907314 -4.434772 -0.686753 -3.838898 C -0.466191 -3.219189 -0.289742 -2.599481 -0.179461 -1.955937 C -0.0471238 -1.312394 -0.00301152 -0.66885 -0.00301152 -0.00147155 Z M -0.00301152 -0.00147155 " transform="matrix(0.177105,0,0,0.163888,14.645065,29.871335)"/>
<path style="fill-rule:nonzero;fill:rgb(0%,85.099792%,0%);fill-opacity:1;stroke-width:1;stroke-linecap:butt;stroke-linejoin:miter;stroke:rgb(0%,0%,0%);stroke-opacity:1;stroke-miterlimit:4;" d="M -0.00531213 -0.0107378 C -0.00531213 0.656641 -0.0494245 1.300184 -0.181761 1.943728 C -0.292042 2.587271 -0.468492 3.230815 -0.689053 3.826689 C -0.909615 4.422562 -1.196345 5.018436 -1.527187 5.56664 C -1.835974 6.091009 -2.210928 6.615378 -2.629995 7.068242 C -3.049062 7.54494 -3.512242 7.950135 -3.997477 8.307659 C -4.482713 8.689018 -5.012061 8.998872 -5.563465 9.237222 C -6.092813 9.499406 -6.666273 9.690086 -7.239733 9.80926 C -7.813193 9.928435 -8.40871 9.99994 -9.004226 9.99994 C -9.599743 9.99994 -10.173203 9.928435 -10.746663 9.80926 C -11.342179 9.690086 -11.893583 9.499406 -12.444987 9.237222 C -12.996392 8.998872 -13.503683 8.689018 -14.010975 8.307659 C -14.496211 7.950135 -14.937334 7.54494 -15.356401 7.068242 C -15.775468 6.615378 -16.150423 6.091009 -16.481265 5.56664 C -16.812108 5.018436 -17.098838 4.422562 -17.319399 3.826689 C -17.539961 3.230815 -17.71641 2.587271 -17.826691 1.943728 C -17.936972 1.300184 -18.00314 0.656641 -18.00314 -0.0107378 C -18.00314 -0.654281 -17.936972 -1.297825 -17.826691 -1.941369 C -17.71641 -2.584912 -17.539961 -3.228456 -17.319399 -3.824329 C -17.098838 -4.444038 -16.812108 -5.016077 -16.481265 -5.56428 C -16.150423 -6.112484 -15.775468 -6.613018 -15.356401 -7.065882 C -14.937334 -7.542581 -14.496211 -7.947775 -14.010975 -8.305299 C -13.503683 -8.686659 -12.996392 -8.996513 -12.444987 -9.234862 C -11.893583 -9.497047 -11.342179 -9.687726 -10.746663 -9.806901 C -10.173203 -9.926076 -9.599743 -9.997581 -9.004226 -9.997581 C -8.40871 -9.997581 -7.813193 -9.926076 -7.239733 -9.806901 C -6.666273 -9.687726 -6.092813 -9.497047 -5.563465 -9.234862 C -5.012061 -8.996513 -4.482713 -8.686659 -3.997477 -8.305299 C -3.512242 -7.947775 -3.049062 -7.542581 -2.629995 -7.065882 C -2.210928 -6.613018 -1.835974 -6.112484 -1.527187 -5.56428 C -1.196345 -5.016077 -0.909615 -4.444038 -0.689053 -3.824329 C -0.468492 -3.228456 -0.292042 -2.584912 -0.181761 -1.941369 C -0.0494245 -1.297825 -0.00531213 -0.654281 -0.00531213 -0.0107378 Z M -0.00531213 -0.0107378 " transform="matrix(0.177105,0,0,0.163888,28.813441,24.790822)"/>
<path style="fill-rule:nonzero;fill:rgb(80.39856%,92.199707%,54.499817%);fill-opacity:1;stroke-width:1;stroke-linecap:butt;stroke-linejoin:miter;stroke:rgb(0%,0%,0%);stroke-opacity:1;stroke-miterlimit:4;" d="M -0.00544089 0.0094771 C -0.00544089 0.653021 -0.0495532 1.296564 -0.18189 1.940108 C -0.292171 2.583651 -0.46862 3.227195 -0.689182 3.823069 C -0.909744 4.442777 -1.196474 5.014816 -1.527316 5.56302 C -1.836102 6.111224 -2.211057 6.611757 -2.630124 7.064621 C -3.049191 7.54132 -3.512371 7.946515 -3.997606 8.304039 C -4.482842 8.685398 -5.01219 8.995252 -5.563594 9.233602 C -6.092942 9.495786 -6.666402 9.686466 -7.239862 9.80564 C -7.813322 9.924815 -8.408839 9.99632 -9.004355 9.99632 C -9.599871 9.99632 -10.173332 9.924815 -10.746792 9.80564 C -11.342308 9.686466 -11.893712 9.495786 -12.445116 9.233602 C -12.99652 8.995252 -13.503812 8.685398 -13.989048 8.304039 C -14.496339 7.946515 -14.937463 7.54132 -15.35653 7.064621 C -15.775597 6.611757 -16.150551 6.111224 -16.481394 5.56302 C -16.812236 5.014816 -17.098966 4.442777 -17.319528 3.823069 C -17.54009 3.227195 -17.716539 2.583651 -17.82682 1.940108 C -17.937101 1.296564 -18.003269 0.653021 -18.003269 0.0094771 C -18.003269 -0.657901 -17.937101 -1.301445 -17.82682 -1.944989 C -17.716539 -2.588532 -17.54009 -3.208241 -17.319528 -3.827949 C -17.098966 -4.423823 -16.812236 -5.019697 -16.481394 -5.567901 C -16.150551 -6.092269 -15.775597 -6.616638 -15.35653 -7.069502 C -14.937463 -7.546201 -14.496339 -7.951395 -13.989048 -8.308919 C -13.503812 -8.690279 -12.99652 -8.976298 -12.445116 -9.238482 C -11.893712 -9.500667 -11.342308 -9.691346 -10.746792 -9.810521 C -10.173332 -9.929696 -9.599871 -10.001201 -9.004355 -10.001201 C -8.408839 -10.001201 -7.813322 -9.929696 -7.239862 -9.810521 C -6.666402 -9.691346 -6.092942 -9.500667 -5.563594 -9.238482 C -5.01219 -8.976298 -4.482842 -8.690279 -3.997606 -8.308919 C -3.512371 -7.951395 -3.049191 -7.546201 -2.630124 -7.069502 C -2.211057 -6.616638 -1.836102 -6.092269 -1.527316 -5.567901 C -1.196474 -5.019697 -0.909744 -4.423823 -0.689182 -3.827949 C -0.46862 -3.208241 -0.292171 -2.588532 -0.18189 -1.944989 C -0.0495532 -1.301445 -0.00544089 -0.657901 -0.00544089 0.0094771 Z M -0.00544089 0.0094771 " transform="matrix(0.177105,0,0,0.163888,39.793932,5.943759)"/>
<path style="fill-rule:nonzero;fill:rgb(0%,85.099792%,0%);fill-opacity:1;stroke-width:1;stroke-linecap:butt;stroke-linejoin:miter;stroke:rgb(0%,0%,0%);stroke-opacity:1;stroke-miterlimit:4;" d="M 0.00909033 0.00699777 C 0.00909033 0.650541 -0.0570782 1.31792 -0.167359 1.961463 C -0.299696 2.605007 -0.454089 3.224716 -0.696707 3.820589 C -0.917268 4.440298 -1.181942 5.012337 -1.512785 5.56054 C -1.843627 6.108744 -2.218582 6.609278 -2.637649 7.062142 C -3.056716 7.538841 -3.519896 7.944035 -4.005131 8.325394 C -4.490367 8.682919 -5.019715 8.992773 -5.549062 9.231122 C -6.100467 9.493307 -6.673927 9.683986 -7.247387 9.803161 C -7.820847 9.946171 -8.416364 9.993841 -8.989824 9.993841 C -9.58534 9.993841 -10.180856 9.946171 -10.754317 9.803161 C -11.327777 9.683986 -11.901237 9.493307 -12.452641 9.231122 C -12.981989 8.992773 -13.511337 8.682919 -13.996573 8.325394 C -14.481808 7.944035 -14.944987 7.538841 -15.364055 7.062142 C -15.783122 6.609278 -16.158076 6.108744 -16.488919 5.56054 C -16.819761 5.012337 -17.084435 4.440298 -17.304997 3.820589 C -17.547615 3.224716 -17.702008 2.605007 -17.834345 1.961463 C -17.944625 1.31792 -18.010794 0.650541 -18.010794 0.00699777 C -18.010794 -0.660381 -17.944625 -1.303924 -17.834345 -1.947468 C -17.702008 -2.591011 -17.547615 -3.21072 -17.304997 -3.830429 C -17.084435 -4.426302 -16.819761 -4.998341 -16.488919 -5.546545 C -16.158076 -6.094749 -15.783122 -6.595283 -15.364055 -7.071982 C -14.944987 -7.524846 -14.481808 -7.953875 -13.996573 -8.311399 C -13.511337 -8.668923 -12.981989 -8.978777 -12.452641 -9.240962 C -11.901237 -9.479311 -11.327777 -9.669991 -10.754317 -9.813 C -10.180856 -9.932175 -9.58534 -10.00368 -8.989824 -10.00368 C -8.416364 -10.00368 -7.820847 -9.932175 -7.247387 -9.813 C -6.673927 -9.669991 -6.100467 -9.479311 -5.549062 -9.240962 C -5.019715 -8.978777 -4.490367 -8.668923 -4.005131 -8.311399 C -3.519896 -7.953875 -3.056716 -7.524846 -2.637649 -7.071982 C -2.218582 -6.595283 -1.843627 -6.094749 -1.512785 -5.546545 C -1.181942 -4.998341 -0.917268 -4.426302 -0.696707 -3.830429 C -0.454089 -3.21072 -0.299696 -2.591011 -0.167359 -1.947468 C -0.0570782 -1.303924 0.00909033 -0.660381 0.00909033 0.00699777 Z M 0.00909033 0.00699777 " transform="matrix(0.177105,0,0,0.163888,29.256203,9.221509)"/>
<path style="fill-rule:nonzero;fill:rgb(100%,79.998779%,79.998779%);fill-opacity:1;stroke-width:1;stroke-linecap:butt;stroke-linejoin:miter;stroke:rgb(0%,0%,0%);stroke-opacity:1;stroke-miterlimit:4;" d="M 0.00278008 0.00851871 C 0.00278008 0.652062 -0.0633884 1.295606 -0.173669 1.939149 C -0.28395 2.606528 -0.460399 3.226237 -0.680961 3.82211 C -0.901523 4.441819 -1.188253 5.013858 -1.519095 5.562061 C -1.849938 6.110265 -2.224892 6.610799 -2.643959 7.063663 C -3.063026 7.540362 -3.50415 7.945556 -3.989385 8.326915 C -4.496677 8.684439 -5.003969 8.994294 -5.555373 9.232643 C -6.106777 9.494828 -6.658181 9.685507 -7.253697 9.804682 C -7.827157 9.947692 -8.400618 9.995362 -8.996134 9.995362 C -9.59165 9.995362 -10.165111 9.947692 -10.760627 9.804682 C -11.334087 9.685507 -11.907547 9.494828 -12.436895 9.232643 C -12.988299 8.994294 -13.517647 8.684439 -14.002883 8.326915 C -14.488118 7.945556 -14.951298 7.540362 -15.370365 7.063663 C -15.789432 6.610799 -16.164387 6.110265 -16.473173 5.562061 C -16.804015 5.013858 -17.090745 4.441819 -17.311307 3.82211 C -17.531869 3.226237 -17.708318 2.606528 -17.818599 1.939149 C -17.950936 1.295606 -17.995048 0.652062 -17.995048 0.00851871 C -17.995048 -0.65886 -17.950936 -1.302403 -17.818599 -1.945947 C -17.708318 -2.589491 -17.531869 -3.209199 -17.311307 -3.828908 C -17.090745 -4.424781 -16.804015 -5.020655 -16.473173 -5.545024 C -16.164387 -6.093228 -15.789432 -6.617597 -15.370365 -7.070461 C -14.951298 -7.523325 -14.488118 -7.952354 -14.002883 -8.309878 C -13.517647 -8.691237 -12.988299 -8.977256 -12.436895 -9.239441 C -11.907547 -9.501625 -11.334087 -9.66847 -10.760627 -9.81148 C -10.165111 -9.930654 -9.59165 -10.002159 -8.996134 -10.002159 C -8.400618 -10.002159 -7.827157 -9.930654 -7.253697 -9.81148 C -6.658181 -9.66847 -6.106777 -9.501625 -5.555373 -9.239441 C -5.003969 -8.977256 -4.496677 -8.691237 -3.989385 -8.309878 C -3.50415 -7.952354 -3.063026 -7.523325 -2.643959 -7.070461 C -2.224892 -6.617597 -1.849938 -6.093228 -1.519095 -5.545024 C -1.188253 -5.020655 -0.901523 -4.424781 -0.680961 -3.828908 C -0.460399 -3.209199 -0.28395 -2.589491 -0.173669 -1.945947 C -0.0633884 -1.302403 0.00278008 -0.65886 0.00278008 0.00851871 Z M 0.00278008 0.00851871 " transform="matrix(0.177105,0,0,0.163888,6.144039,38.72126)"/>
<path style="fill-rule:nonzero;fill:rgb(97.299194%,80.799866%,79.998779%);fill-opacity:1;stroke-width:1;stroke-linecap:butt;stroke-linejoin:miter;stroke:rgb(0%,0%,0%);stroke-opacity:1;stroke-miterlimit:4;" d="M 0.00133218 -0.00959709 C 0.00133218 0.657781 -0.0648363 1.301325 -0.175117 1.944869 C -0.285398 2.588412 -0.461847 3.208121 -0.682409 3.827829 C -0.90297 4.423703 -1.189701 5.019577 -1.520543 5.567781 C -1.851385 6.092149 -2.22634 6.616518 -2.645407 7.069382 C -3.064474 7.546081 -3.505598 7.951275 -3.990833 8.308799 C -4.498125 8.690159 -5.005417 8.976178 -5.556821 9.238362 C -6.108225 9.500547 -6.659629 9.691226 -7.233089 9.810401 C -7.828605 9.929576 -8.402066 10.001081 -8.997582 10.001081 C -9.593098 10.001081 -10.166558 9.929576 -10.762075 9.810401 C -11.335535 9.691226 -11.908995 9.500547 -12.438343 9.238362 C -12.989747 8.976178 -13.519095 8.690159 -14.004331 8.308799 C -14.489566 7.951275 -14.952746 7.546081 -15.371813 7.069382 C -15.79088 6.616518 -16.165835 6.092149 -16.474621 5.567781 C -16.805463 5.019577 -17.092193 4.423703 -17.312755 3.827829 C -17.533317 3.208121 -17.709766 2.588412 -17.820047 1.944869 C -17.952384 1.301325 -17.996496 0.657781 -17.996496 -0.00959709 C -17.996496 -0.653141 -17.952384 -1.296684 -17.820047 -1.940228 C -17.709766 -2.583771 -17.533317 -3.227315 -17.312755 -3.823189 C -17.092193 -4.442897 -16.805463 -5.014936 -16.474621 -5.56314 C -16.165835 -6.111344 -15.79088 -6.611877 -15.371813 -7.064741 C -14.952746 -7.54144 -14.489566 -7.946634 -14.004331 -8.304159 C -13.519095 -8.685518 -12.989747 -8.995372 -12.438343 -9.233722 C -11.908995 -9.495906 -11.335535 -9.686586 -10.762075 -9.80576 C -10.166558 -9.924935 -9.593098 -9.99644 -8.997582 -9.99644 C -8.402066 -9.99644 -7.828605 -9.924935 -7.233089 -9.80576 C -6.659629 -9.686586 -6.108225 -9.495906 -5.556821 -9.233722 C -5.005417 -8.995372 -4.498125 -8.685518 -3.990833 -8.304159 C -3.505598 -7.946634 -3.064474 -7.54144 -2.645407 -7.064741 C -2.22634 -6.611877 -1.851385 -6.111344 -1.520543 -5.56314 C -1.189701 -5.014936 -0.90297 -4.442897 -0.682409 -3.823189 C -0.461847 -3.227315 -0.285398 -2.583771 -0.175117 -1.940228 C -0.0648363 -1.296684 0.00133218 -0.653141 0.00133218 -0.00959709 Z M 0.00133218 -0.00959709 " transform="matrix(0.177105,0,0,0.163888,8.269295,46.915635)"/>
<path style="fill-rule:nonzero;fill:rgb(0%,0%,79.998779%);fill-opacity:1;stroke-width:1;stroke-linecap:butt;stroke-linejoin:miter;stroke:rgb(0%,0%,0%);stroke-opacity:1;stroke-miterlimit:10;" d="M -0.010251 -0.00978721 L 6.430148 -0.00978721 L 10.995774 4.447348 L 15.583455 -0.00978721 L 22.001799 -0.00978721 L 14.215973 7.498221 L 22.001799 15.006229 L 15.583455 15.006229 L 10.995774 10.549094 L 6.430148 15.006229 L -0.010251 15.006229 L 7.334451 7.498221 Z M -0.010251 -0.00978721 " transform="matrix(0.177105,0,0,0.163888,25.271347,43.228167)"/>
<path style="fill-rule:nonzero;fill:rgb(89.7995%,7.798767%,0%);fill-opacity:1;stroke-width:1;stroke-linecap:butt;stroke-linejoin:miter;stroke:rgb(0%,0%,0%);stroke-opacity:1;stroke-miterlimit:10;" d="M 0.00699501 -0.011118 L 6.425338 -0.011118 L 10.990964 4.446017 L 15.578645 -0.011118 L 21.996988 -0.011118 L 14.211163 7.49689 L 21.996988 15.004899 L 15.578645 15.004899 L 10.990964 10.571598 L 6.425338 15.004899 L 0.00699501 15.004899 L 7.329641 7.49689 Z M 0.00699501 -0.011118 " transform="matrix(0.177105,0,0,0.163888,10.748761,17.415885)"/>
<path style="fill-rule:nonzero;fill:rgb(0%,39.99939%,0%);fill-opacity:1;stroke-width:1;stroke-linecap:butt;stroke-linejoin:miter;stroke:rgb(0%,0%,0%);stroke-opacity:1;stroke-miterlimit:10;" d="M -0.010251 -0.0032998 L 6.430148 -0.0032998 L 10.995774 4.43 L 15.583455 -0.0032998 L 22.001799 -0.0032998 L 14.215973 7.504709 L 22.001799 14.988882 L 15.583455 14.988882 L 10.995774 10.555582 L 6.430148 14.988882 L -0.010251 14.988882 L 7.334451 7.504709 Z M -0.010251 -0.0032998 " transform="matrix(0.177105,0,0,0.163888,25.271347,14.957572)"/>
<path style="fill-rule:nonzero;fill:rgb(90.19928%,100%,79.998779%);fill-opacity:1;stroke-width:1;stroke-linecap:butt;stroke-linejoin:miter;stroke:rgb(0%,0%,0%);stroke-opacity:1;stroke-miterlimit:4;" d="M -0.00761274 -0.0053989 C -0.00761274 0.66198 -0.0517251 1.305523 -0.162006 1.949067 C -0.294343 2.59261 -0.448736 3.212319 -0.691354 3.832028 C -0.911915 4.427901 -1.198645 4.99994 -1.507432 5.548144 C -1.838274 6.096348 -2.213229 6.596881 -2.632296 7.07358 C -3.051363 7.526444 -3.514542 7.955473 -3.999778 8.312998 C -4.485014 8.670522 -5.014361 8.980376 -5.565766 9.242561 C -6.095113 9.48091 -6.668574 9.67159 -7.242034 9.814599 C -7.815494 9.933774 -8.41101 10.005279 -9.006527 10.005279 C -9.579987 10.005279 -10.175503 9.933774 -10.748964 9.814599 C -11.34448 9.67159 -11.895884 9.48091 -12.447288 9.242561 C -12.998692 8.980376 -13.505984 8.670522 -13.991219 8.312998 C -14.498511 7.955473 -14.939634 7.526444 -15.358701 7.07358 C -15.777769 6.596881 -16.152723 6.096348 -16.483566 5.548144 C -16.814408 4.99994 -17.079082 4.427901 -17.3217 3.832028 C -17.542261 3.212319 -17.718711 2.59261 -17.828992 1.949067 C -17.939272 1.305523 -18.005441 0.66198 -18.005441 -0.0053989 C -18.005441 -0.648942 -17.939272 -1.316321 -17.828992 -1.959865 C -17.718711 -2.603408 -17.542261 -3.223117 -17.3217 -3.81899 C -17.079082 -4.438699 -16.814408 -5.010738 -16.483566 -5.558942 C -16.152723 -6.107145 -15.777769 -6.607679 -15.358701 -7.060543 C -14.939634 -7.537242 -14.498511 -7.942436 -13.991219 -8.323795 C -13.505984 -8.68132 -12.998692 -8.991174 -12.447288 -9.229523 C -11.895884 -9.491708 -11.34448 -9.682387 -10.748964 -9.801562 C -10.175503 -9.944572 -9.579987 -9.992242 -9.006527 -9.992242 C -8.41101 -9.992242 -7.815494 -9.944572 -7.242034 -9.801562 C -6.668574 -9.682387 -6.095113 -9.491708 -5.565766 -9.229523 C -5.014361 -8.991174 -4.485014 -8.68132 -3.999778 -8.323795 C -3.514542 -7.942436 -3.051363 -7.537242 -2.632296 -7.060543 C -2.213229 -6.607679 -1.838274 -6.107145 -1.507432 -5.558942 C -1.198645 -5.010738 -0.911915 -4.438699 -0.691354 -3.81899 C -0.448736 -3.223117 -0.294343 -2.603408 -0.162006 -1.959865 C -0.0517251 -1.316321 -0.00761274 -0.648942 -0.00761274 -0.0053989 Z M -0.00761274 -0.0053989 " transform="matrix(0.177105,0,0,0.163888,42.981817,25.61026)"/>
<path style="fill-rule:nonzero;fill:rgb(97.299194%,80.799866%,79.998779%);fill-opacity:1;stroke-width:1;stroke-linecap:butt;stroke-linejoin:miter;stroke:rgb(0%,0%,0%);stroke-opacity:1;stroke-miterlimit:4;" d="M 0.00337527 0.00851871 C 0.00337527 0.652062 -0.0627932 1.295606 -0.173074 1.939149 C -0.283355 2.606528 -0.459804 3.226237 -0.680366 3.82211 C -0.900927 4.441819 -1.187657 5.013858 -1.5185 5.562061 C -1.849342 6.110265 -2.224297 6.610799 -2.643364 7.063663 C -3.062431 7.540362 -3.503554 7.945556 -4.010846 8.326915 C -4.496082 8.684439 -5.003373 8.994294 -5.554778 9.232643 C -6.106182 9.494828 -6.657586 9.685507 -7.253102 9.804682 C -7.826562 9.947692 -8.400022 9.995362 -8.995539 9.995362 C -9.591055 9.995362 -10.186572 9.947692 -10.760032 9.804682 C -11.333492 9.685507 -11.906952 9.494828 -12.4363 9.232643 C -12.987704 8.994294 -13.517052 8.684439 -14.002288 8.326915 C -14.487523 7.945556 -14.950703 7.540362 -15.36977 7.063663 C -15.788837 6.610799 -16.163791 6.110265 -16.472578 5.562061 C -16.80342 5.013858 -17.09015 4.441819 -17.310712 3.82211 C -17.531273 3.226237 -17.707723 2.606528 -17.818004 1.939149 C -17.950341 1.295606 -17.994453 0.652062 -17.994453 0.00851871 C -17.994453 -0.65886 -17.950341 -1.302403 -17.818004 -1.945947 C -17.707723 -2.589491 -17.531273 -3.209199 -17.310712 -3.828908 C -17.09015 -4.424781 -16.80342 -5.020655 -16.472578 -5.545024 C -16.163791 -6.093228 -15.788837 -6.617597 -15.36977 -7.070461 C -14.950703 -7.523325 -14.487523 -7.952354 -14.002288 -8.309878 C -13.517052 -8.691237 -12.987704 -8.977256 -12.4363 -9.239441 C -11.906952 -9.501625 -11.333492 -9.66847 -10.760032 -9.81148 C -10.186572 -9.930654 -9.591055 -10.002159 -8.995539 -10.002159 C -8.400022 -10.002159 -7.826562 -9.930654 -7.253102 -9.81148 C -6.657586 -9.66847 -6.106182 -9.501625 -5.554778 -9.239441 C -5.003373 -8.977256 -4.496082 -8.691237 -4.010846 -8.309878 C -3.503554 -7.952354 -3.062431 -7.523325 -2.643364 -7.070461 C -2.224297 -6.617597 -1.849342 -6.093228 -1.5185 -5.545024 C -1.187657 -5.020655 -0.900927 -4.424781 -0.680366 -3.828908 C -0.459804 -3.209199 -0.283355 -2.589491 -0.173074 -1.945947 C -0.0627932 -1.302403 0.00337527 -0.65886 0.00337527 0.00851871 Z M 0.00337527 0.00851871 " transform="matrix(0.177105,0,0,0.163888,16.061902,38.72126)"/>
<path style="fill-rule:nonzero;fill:rgb(79.998779%,100%,100%);fill-opacity:1;stroke-width:1;stroke-linecap:butt;stroke-linejoin:miter;stroke:rgb(0%,0%,0%);stroke-opacity:1;stroke-miterlimit:4;" d="M 0.00492762 0.00851871 C 0.00492762 0.652062 -0.0612409 1.295606 -0.171522 1.939149 C -0.281802 2.606528 -0.458252 3.226237 -0.678813 3.82211 C -0.921431 4.441819 -1.186105 5.013858 -1.516948 5.562061 C -1.84779 6.110265 -2.222745 6.610799 -2.641812 7.063663 C -3.060879 7.540362 -3.502002 7.945556 -4.009294 8.326915 C -4.494529 8.684439 -5.001821 8.994294 -5.553225 9.232643 C -6.104629 9.494828 -6.656033 9.685507 -7.25155 9.804682 C -7.82501 9.947692 -8.39847 9.995362 -8.993986 9.995362 C -9.589503 9.995362 -10.185019 9.947692 -10.758479 9.804682 C -11.33194 9.685507 -11.9054 9.494828 -12.434748 9.232643 C -12.986152 8.994294 -13.5155 8.684439 -14.000735 8.326915 C -14.485971 7.945556 -14.94915 7.540362 -15.368217 7.063663 C -15.787284 6.610799 -16.162239 6.110265 -16.493082 5.562061 C -16.801868 5.013858 -17.088598 4.441819 -17.30916 3.82211 C -17.551777 3.226237 -17.70617 2.606528 -17.816451 1.939149 C -17.948788 1.295606 -17.992901 0.652062 -17.992901 0.00851871 C -17.992901 -0.65886 -17.948788 -1.302403 -17.816451 -1.945947 C -17.70617 -2.589491 -17.551777 -3.209199 -17.30916 -3.828908 C -17.088598 -4.424781 -16.801868 -5.020655 -16.493082 -5.545024 C -16.162239 -6.093228 -15.787284 -6.617597 -15.368217 -7.070461 C -14.94915 -7.523325 -14.485971 -7.952354 -14.000735 -8.309878 C -13.5155 -8.691237 -12.986152 -8.977256 -12.434748 -9.239441 C -11.9054 -9.501625 -11.33194 -9.66847 -10.758479 -9.81148 C -10.185019 -9.930654 -9.589503 -10.002159 -8.993986 -10.002159 C -8.39847 -10.002159 -7.82501 -9.930654 -7.25155 -9.81148 C -6.656033 -9.66847 -6.104629 -9.501625 -5.553225 -9.239441 C -5.001821 -8.977256 -4.494529 -8.691237 -4.009294 -8.309878 C -3.502002 -7.952354 -3.060879 -7.523325 -2.641812 -7.070461 C -2.222745 -6.617597 -1.84779 -6.093228 -1.516948 -5.545024 C -1.186105 -5.020655 -0.921431 -4.424781 -0.678813 -3.828908 C -0.458252 -3.209199 -0.281802 -2.589491 -0.171522 -1.945947 C -0.0612409 -1.302403 0.00492762 -0.65886 0.00492762 0.00851871 Z M 0.00492762 0.00851871 " transform="matrix(0.177105,0,0,0.163888,35.366315,38.72126)"/>
<path style="fill-rule:nonzero;fill:rgb(90.19928%,100%,79.998779%);fill-opacity:1;stroke-width:1;stroke-linecap:butt;stroke-linejoin:miter;stroke:rgb(0%,0%,0%);stroke-opacity:1;stroke-miterlimit:4;" d="M -0.0085699 -0.00928979 C -0.0085699 0.658089 -0.0526822 1.301632 -0.162963 1.945176 C -0.2953 2.588719 -0.449693 3.208428 -0.692311 3.828137 C -0.912873 4.42401 -1.199603 5.019884 -1.508389 5.544253 C -1.839231 6.092457 -2.214186 6.616826 -2.633253 7.06969 C -3.05232 7.546388 -3.5155 7.951583 -4.000735 8.309107 C -4.485971 8.690466 -5.015319 8.976485 -5.566723 9.23867 C -6.096071 9.500854 -6.669531 9.691534 -7.242991 9.810708 C -7.816451 9.929883 -8.411968 10.001388 -9.007484 10.001388 C -9.580944 10.001388 -10.176461 9.929883 -10.749921 9.810708 C -11.345437 9.691534 -11.896841 9.500854 -12.448245 9.23867 C -12.999649 8.976485 -13.506941 8.690466 -13.992177 8.309107 C -14.499468 7.951583 -14.940592 7.546388 -15.359659 7.06969 C -15.778726 6.616826 -16.15368 6.092457 -16.484523 5.544253 C -16.815365 5.019884 -17.080039 4.42401 -17.322657 3.828137 C -17.543219 3.208428 -17.719668 2.588719 -17.829949 1.945176 C -17.94023 1.301632 -18.006398 0.658089 -18.006398 -0.00928979 C -18.006398 -0.652833 -17.94023 -1.296377 -17.829949 -1.939921 C -17.719668 -2.583464 -17.543219 -3.227008 -17.322657 -3.822881 C -17.080039 -4.44259 -16.815365 -5.014629 -16.484523 -5.562832 C -16.15368 -6.111036 -15.778726 -6.61157 -15.359659 -7.064434 C -14.940592 -7.541133 -14.499468 -7.946327 -13.992177 -8.303851 C -13.506941 -8.685211 -12.999649 -8.995065 -12.448245 -9.233414 C -11.896841 -9.495599 -11.345437 -9.686278 -10.749921 -9.805453 C -10.176461 -9.924628 -9.580944 -9.996133 -9.007484 -9.996133 C -8.411968 -9.996133 -7.816451 -9.924628 -7.242991 -9.805453 C -6.669531 -9.686278 -6.096071 -9.495599 -5.566723 -9.233414 C -5.015319 -8.995065 -4.485971 -8.685211 -4.000735 -8.303851 C -3.5155 -7.946327 -3.05232 -7.541133 -2.633253 -7.064434 C -2.214186 -6.61157 -1.839231 -6.111036 -1.508389 -5.562832 C -1.199603 -5.014629 -0.912873 -4.44259 -0.692311 -3.822881 C -0.449693 -3.227008 -0.2953 -2.583464 -0.162963 -1.939921 C -0.0526822 -1.296377 -0.0085699 -0.652833 -0.0085699 -0.00928979 Z M -0.0085699 -0.00928979 " transform="matrix(0.177105,0,0,0.163888,33.595268,32.329647)"/>
<path style="fill-rule:nonzero;fill:rgb(59.999084%,79.998779%,100%);fill-opacity:1;stroke-width:1;stroke-linecap:butt;stroke-linejoin:miter;stroke:rgb(0%,0%,0%);stroke-opacity:1;stroke-miterlimit:4;" d="M -0.00639805 0.0117585 C -0.00639805 0.655302 -0.0505104 1.298846 -0.182847 1.942389 C -0.293128 2.585933 -0.469577 3.229476 -0.690139 3.82535 C -0.910701 4.421224 -1.197431 5.017097 -1.506217 5.565301 C -1.837059 6.113505 -2.212014 6.614039 -2.631081 7.066903 C -3.050148 7.543602 -3.513328 7.948796 -3.998563 8.30632 C -4.483799 8.687679 -5.013147 8.997534 -5.564551 9.235883 C -6.093899 9.498067 -6.667359 9.688747 -7.240819 9.807922 C -7.814279 9.927097 -8.409796 9.998601 -9.005312 9.998601 C -9.600829 9.998601 -10.174289 9.927097 -10.747749 9.807922 C -11.343265 9.688747 -11.894669 9.498067 -12.446073 9.235883 C -12.997477 8.997534 -13.504769 8.687679 -13.990005 8.30632 C -14.497296 7.948796 -14.93842 7.543602 -15.357487 7.066903 C -15.776554 6.614039 -16.151509 6.113505 -16.482351 5.565301 C -16.813193 5.017097 -17.099924 4.421224 -17.320485 3.82535 C -17.541047 3.229476 -17.717496 2.585933 -17.827777 1.942389 C -17.938058 1.298846 -18.004226 0.655302 -18.004226 0.0117585 C -18.004226 -0.65562 -17.938058 -1.299164 -17.827777 -1.942707 C -17.717496 -2.586251 -17.541047 -3.229794 -17.320485 -3.825668 C -17.099924 -4.421542 -16.813193 -5.017415 -16.482351 -5.565619 C -16.151509 -6.113823 -15.776554 -6.614357 -15.357487 -7.067221 C -14.93842 -7.54392 -14.497296 -7.949114 -13.990005 -8.306638 C -13.504769 -8.687997 -12.997477 -8.997852 -12.446073 -9.236201 C -11.894669 -9.498385 -11.343265 -9.689065 -10.747749 -9.80824 C -10.174289 -9.927414 -9.600829 -9.998919 -9.005312 -9.998919 C -8.409796 -9.998919 -7.814279 -9.927414 -7.240819 -9.80824 C -6.667359 -9.689065 -6.093899 -9.498385 -5.564551 -9.236201 C -5.013147 -8.997852 -4.483799 -8.687997 -3.998563 -8.306638 C -3.513328 -7.949114 -3.050148 -7.54392 -2.631081 -7.067221 C -2.212014 -6.614357 -1.837059 -6.113823 -1.506217 -5.565619 C -1.197431 -5.017415 -0.910701 -4.445377 -0.690139 -3.825668 C -0.469577 -3.229794 -0.293128 -2.586251 -0.182847 -1.942707 C -0.0505104 -1.299164 -0.00639805 -0.65562 -0.00639805 0.0117585 Z M -0.00639805 0.0117585 " transform="matrix(0.177105,0,0,0.163888,30.407383,50.193385)"/>
<path style="fill-rule:nonzero;fill:rgb(59.999084%,79.998779%,100%);fill-opacity:1;stroke-width:1;stroke-linecap:butt;stroke-linejoin:miter;stroke:rgb(0%,0%,0%);stroke-opacity:1;stroke-miterlimit:4;" d="M -0.00735522 -0.00177886 C -0.00735522 0.6656 -0.0514675 1.309143 -0.183805 1.952687 C -0.294085 2.59623 -0.448478 3.215939 -0.691096 3.835648 C -0.911658 4.431521 -1.198388 5.00356 -1.507174 5.551764 C -1.838017 6.099968 -2.212971 6.600502 -2.632038 7.0772 C -3.051106 7.530064 -3.514285 7.959093 -3.999521 8.316618 C -4.484756 8.674142 -5.014104 8.983996 -5.565508 9.246181 C -6.094856 9.48453 -6.668316 9.67521 -7.241776 9.818219 C -7.815237 9.937394 -8.410753 10.008899 -9.006269 10.008899 C -9.601786 10.008899 -10.175246 9.937394 -10.748706 9.818219 C -11.344222 9.67521 -11.895627 9.48453 -12.447031 9.246181 C -12.998435 8.983996 -13.505726 8.674142 -13.990962 8.316618 C -14.498254 7.959093 -14.939377 7.530064 -15.358444 7.0772 C -15.777511 6.600502 -16.152466 6.099968 -16.483308 5.551764 C -16.814151 5.00356 -17.078825 4.431521 -17.321442 3.835648 C -17.542004 3.215939 -17.718453 2.59623 -17.828734 1.952687 C -17.939015 1.309143 -18.005183 0.6656 -18.005183 -0.00177886 C -18.005183 -0.645322 -17.939015 -1.312701 -17.828734 -1.956245 C -17.718453 -2.599788 -17.542004 -3.219497 -17.321442 -3.81537 C -17.078825 -4.435079 -16.814151 -5.007118 -16.483308 -5.555322 C -16.152466 -6.103525 -15.777511 -6.604059 -15.358444 -7.080758 C -14.939377 -7.533622 -14.498254 -7.938816 -13.990962 -8.320175 C -13.505726 -8.6777 -12.998435 -8.987554 -12.447031 -9.249738 C -11.895627 -9.488088 -11.344222 -9.678767 -10.748706 -9.797942 C -10.175246 -9.940952 -9.601786 -9.988622 -9.006269 -9.988622 C -8.410753 -9.988622 -7.815237 -9.940952 -7.241776 -9.797942 C -6.668316 -9.678767 -6.094856 -9.488088 -5.565508 -9.249738 C -5.014104 -8.987554 -4.484756 -8.6777 -3.999521 -8.320175 C -3.514285 -7.938816 -3.051106 -7.533622 -2.632038 -7.080758 C -2.212971 -6.604059 -1.838017 -6.103525 -1.507174 -5.555322 C -1.198388 -5.007118 -0.911658 -4.435079 -0.691096 -3.81537 C -0.448478 -3.219497 -0.294085 -2.599788 -0.183805 -1.956245 C -0.0514675 -1.312701 -0.00735522 -0.645322 -0.00735522 -0.00177886 Z M -0.00735522 -0.00177886 " transform="matrix(0.177105,0,0,0.163888,21.020834,44.457323)"/>
<path style="fill-rule:nonzero;fill:rgb(79.998779%,100%,100%);fill-opacity:1;stroke-width:1;stroke-linecap:butt;stroke-linejoin:miter;stroke:rgb(0%,0%,0%);stroke-opacity:1;stroke-miterlimit:4;" d="M -0.00518337 -0.0116962 C -0.00518337 0.655682 -0.0492957 1.299226 -0.181633 1.942769 C -0.291913 2.586313 -0.468363 3.229857 -0.688924 3.82573 C -0.909486 4.421604 -1.196216 5.017478 -1.527059 5.565681 C -1.835845 6.113885 -2.2108 6.614419 -2.629867 7.067283 C -3.048934 7.543982 -3.512113 7.949176 -3.997349 8.3067 C -4.482584 8.68806 -5.011932 8.997914 -5.563336 9.236263 C -6.092684 9.498448 -6.666144 9.689127 -7.239604 9.808302 C -7.813065 9.927477 -8.408581 9.998982 -9.004097 9.998982 C -9.599614 9.998982 -10.173074 9.927477 -10.746534 9.808302 C -11.342051 9.689127 -11.893455 9.498448 -12.444859 9.236263 C -12.996263 8.997914 -13.503554 8.68806 -14.010846 8.3067 C -14.496082 7.949176 -14.937205 7.543982 -15.356272 7.067283 C -15.775339 6.614419 -16.150294 6.113885 -16.481136 5.565681 C -16.811979 5.017478 -17.098709 4.421604 -17.319271 3.82573 C -17.539832 3.229857 -17.716281 2.586313 -17.826562 1.942769 C -17.936843 1.299226 -18.003012 0.655682 -18.003012 -0.0116962 C -18.003012 -0.65524 -17.936843 -1.298783 -17.826562 -1.942327 C -17.716281 -2.58587 -17.539832 -3.229414 -17.319271 -3.825288 C -17.098709 -4.444996 -16.811979 -5.017035 -16.481136 -5.565239 C -16.150294 -6.113443 -15.775339 -6.613977 -15.356272 -7.066841 C -14.937205 -7.543539 -14.496082 -7.948734 -14.010846 -8.306258 C -13.503554 -8.687617 -12.996263 -8.997471 -12.444859 -9.235821 C -11.893455 -9.498005 -11.342051 -9.688685 -10.746534 -9.807859 C -10.173074 -9.927034 -9.599614 -9.998539 -9.004097 -9.998539 C -8.408581 -9.998539 -7.813065 -9.927034 -7.239604 -9.807859 C -6.666144 -9.688685 -6.092684 -9.498005 -5.563336 -9.235821 C -5.011932 -8.997471 -4.482584 -8.687617 -3.997349 -8.306258 C -3.512113 -7.948734 -3.048934 -7.543539 -2.629867 -7.066841 C -2.2108 -6.613977 -1.835845 -6.113443 -1.527059 -5.565239 C -1.196216 -5.017035 -0.909486 -4.444996 -0.688924 -3.825288 C -0.468363 -3.229414 -0.291913 -2.58587 -0.181633 -1.942327 C -0.0492957 -1.298783 -0.00518337 -0.65524 -0.00518337 -0.0116962 Z M -0.00518337 -0.0116962 " transform="matrix(0.177105,0,0,0.163888,17.832949,57.568323)"/>
<path style="fill-rule:nonzero;fill:rgb(83.099365%,88.198853%,96.099854%);fill-opacity:1;stroke-width:1;stroke-linecap:butt;stroke-linejoin:miter;stroke:rgb(0%,0%,0%);stroke-opacity:1;stroke-miterlimit:4;" d="M 0.00805664 0.00565914 C 0.00805664 0.649203 -0.0581118 1.316581 -0.168393 1.960125 C -0.278673 2.603668 -0.455123 3.223377 -0.675684 3.819251 C -0.918302 4.438959 -1.182976 5.010998 -1.513819 5.559202 C -1.844661 6.107406 -2.219616 6.60794 -2.638683 7.060804 C -3.05775 7.537502 -3.498873 7.942697 -4.006165 8.324056 C -4.4914 8.68158 -5.020748 8.991434 -5.550096 9.229784 C -6.1015 9.491968 -6.67496 9.682648 -7.248421 9.801822 C -7.821881 9.944832 -8.417397 9.992502 -8.990857 9.992502 C -9.586374 9.992502 -10.18189 9.944832 -10.75535 9.801822 C -11.328811 9.682648 -11.902271 9.491968 -12.453675 9.229784 C -12.983023 8.991434 -13.512371 8.68158 -13.997606 8.324056 C -14.482842 7.942697 -14.946021 7.537502 -15.365088 7.060804 C -15.784155 6.60794 -16.15911 6.107406 -16.489953 5.559202 C -16.820795 5.010998 -17.085469 4.438959 -17.30603 3.819251 C -17.548648 3.223377 -17.703041 2.603668 -17.835378 1.960125 C -17.945659 1.316581 -17.989772 0.649203 -17.989772 0.00565914 C -17.989772 -0.661719 -17.945659 -1.305263 -17.835378 -1.948807 C -17.703041 -2.59235 -17.548648 -3.212059 -17.30603 -3.831767 C -17.085469 -4.427641 -16.820795 -4.99968 -16.489953 -5.547884 C -16.15911 -6.096087 -15.784155 -6.596621 -15.365088 -7.07332 C -14.946021 -7.526184 -14.482842 -7.955213 -13.997606 -8.312737 C -13.512371 -8.670262 -12.983023 -8.980116 -12.453675 -9.2423 C -11.902271 -9.48065 -11.328811 -9.671329 -10.75535 -9.814339 C -10.18189 -9.933514 -9.586374 -10.005019 -8.990857 -10.005019 C -8.417397 -10.005019 -7.821881 -9.933514 -7.248421 -9.814339 C -6.67496 -9.671329 -6.1015 -9.48065 -5.550096 -9.2423 C -5.020748 -8.980116 -4.4914 -8.670262 -4.006165 -8.312737 C -3.498873 -7.955213 -3.05775 -7.526184 -2.638683 -7.07332 C -2.219616 -6.596621 -1.844661 -6.096087 -1.513819 -5.547884 C -1.182976 -4.99968 -0.918302 -4.427641 -0.675684 -3.831767 C -0.455123 -3.212059 -0.278673 -2.59235 -0.168393 -1.948807 C -0.0581118 -1.305263 0.00805664 -0.661719 0.00805664 0.00565914 Z M 0.00805664 0.00565914 " transform="matrix(0.177105,0,0,0.163888,41.564979,34.624073)"/>
<path style="fill-rule:nonzero;fill:rgb(91.799927%,41.999817%,39.99939%);fill-opacity:1;stroke-width:1;stroke-linecap:butt;stroke-linejoin:miter;stroke:rgb(0%,0%,0%);stroke-opacity:1;stroke-miterlimit:4;" d="M -0.00735522 0.00775824 C -0.00735522 0.651302 -0.0514675 1.31868 -0.183805 1.962224 C -0.294085 2.605767 -0.448478 3.225476 -0.691096 3.82135 C -0.911658 4.441058 -1.198388 5.013097 -1.507174 5.561301 C -1.838017 6.109505 -2.212971 6.610039 -2.632038 7.062903 C -3.051106 7.539602 -3.514285 7.944796 -3.999521 8.326155 C -4.484756 8.683679 -5.014104 8.993533 -5.565508 9.231883 C -6.094856 9.494067 -6.668316 9.684747 -7.241776 9.803922 C -7.815237 9.946931 -8.410753 9.994601 -9.006269 9.994601 C -9.601786 9.994601 -10.175246 9.946931 -10.748706 9.803922 C -11.344222 9.684747 -11.895627 9.494067 -12.447031 9.231883 C -12.998435 8.993533 -13.505726 8.683679 -13.990962 8.326155 C -14.498254 7.944796 -14.939377 7.539602 -15.358444 7.062903 C -15.777511 6.610039 -16.152466 6.109505 -16.483308 5.561301 C -16.814151 5.013097 -17.078825 4.441058 -17.321442 3.82135 C -17.542004 3.225476 -17.718453 2.605767 -17.828734 1.962224 C -17.939015 1.31868 -18.005183 0.651302 -18.005183 0.00775824 C -18.005183 -0.65962 -17.939015 -1.303164 -17.828734 -1.946707 C -17.718453 -2.590251 -17.542004 -3.20996 -17.321442 -3.829668 C -17.078825 -4.425542 -16.814151 -5.021416 -16.483308 -5.545784 C -16.152466 -6.093988 -15.777511 -6.618357 -15.358444 -7.071221 C -14.939377 -7.524085 -14.498254 -7.953114 -13.990962 -8.310638 C -13.505726 -8.668163 -12.998435 -8.978017 -12.447031 -9.240201 C -11.895627 -9.478551 -11.344222 -9.66923 -10.748706 -9.81224 C -10.175246 -9.931415 -9.601786 -10.00292 -9.006269 -10.00292 C -8.410753 -10.00292 -7.815237 -9.931415 -7.241776 -9.81224 C -6.668316 -9.66923 -6.094856 -9.478551 -5.565508 -9.240201 C -5.014104 -8.978017 -4.484756 -8.668163 -3.999521 -8.310638 C -3.514285 -7.953114 -3.051106 -7.524085 -2.632038 -7.071221 C -2.212971 -6.618357 -1.838017 -6.093988 -1.507174 -5.545784 C -1.198388 -5.021416 -0.911658 -4.425542 -0.691096 -3.829668 C -0.448478 -3.20996 -0.294085 -2.590251 -0.183805 -1.946707 C -0.0514675 -1.303164 -0.00735522 -0.65962 -0.00735522 0.00775824 Z M -0.00735522 0.00775824 " transform="matrix(0.177105,0,0,0.163888,21.020834,23.971385)"/>
<path style="fill:none;stroke-width:1;stroke-linecap:butt;stroke-linejoin:miter;stroke:rgb(0%,0%,0%);stroke-opacity:1;stroke-miterlimit:10;" d="M -0.00550726 0.00525855 L 28.645447 -42.921481 " transform="matrix(0.177105,0,0,0.163888,7.801757,45.756951)"/>
<path style="fill:none;stroke-width:1;stroke-linecap:butt;stroke-linejoin:miter;stroke:rgb(0%,0%,0%);stroke-opacity:1;stroke-miterlimit:10;" d="M -0.0019256 0.00920626 L 2.997712 33.997841 " transform="matrix(0.177105,0,0,0.163888,13.051122,31.51021)"/>
<path style="fill:none;stroke-width:1;stroke-linecap:butt;stroke-linejoin:miter;stroke:rgb(0%,0%,0%);stroke-opacity:1;stroke-miterlimit:10;" d="M 0.0103435 0.00525855 L -5.636034 -32.934638 " transform="matrix(0.177105,0,0,0.163888,5.548949,45.756951)"/>
<path style="fill:none;stroke-width:1;stroke-linecap:butt;stroke-linejoin:miter;stroke:rgb(0%,0%,0%);stroke-opacity:1;stroke-miterlimit:10;" d="M -0.0102648 -0.000460593 L -6.64917 -36.920794 " transform="matrix(0.177105,0,0,0.163888,3.423693,37.562575)"/>
<path style="fill:none;stroke-width:1;stroke-linecap:butt;stroke-linejoin:miter;stroke:rgb(0%,0%,0%);stroke-opacity:1;stroke-miterlimit:10;" d="M -0.0103555 -0.00147155 L 42.99916 -0.00147155 " transform="matrix(0.177105,0,0,0.163888,3.841678,29.871335)"/>
<path style="fill:none;stroke-width:1;stroke-linecap:butt;stroke-linejoin:miter;stroke:rgb(0%,0%,0%);stroke-opacity:1;stroke-miterlimit:10;" d="M -0.00301152 -0.00147155 L 20.641556 -28.937097 " transform="matrix(0.177105,0,0,0.163888,14.645065,29.871335)"/>
<path style="fill:none;stroke-width:1;stroke-linecap:butt;stroke-linejoin:miter;stroke:rgb(0%,0%,0%);stroke-opacity:1;stroke-miterlimit:10;" d="M 0.00278008 0.007378 L 3.994945 54.994601 " transform="matrix(0.177105,0,0,0.163888,6.144039,16.596447)"/>
<path style="fill:none;stroke-width:1;stroke-linecap:butt;stroke-linejoin:miter;stroke:rgb(0%,0%,0%);stroke-opacity:1;stroke-miterlimit:10;" d="M 0.00817161 -0.00537854 L -23.636034 47.9267 " transform="matrix(0.177105,0,0,0.163888,8.736834,7.102444)"/>
<path style="fill:none;stroke-width:1;stroke-linecap:butt;stroke-linejoin:miter;stroke:rgb(0%,0%,0%);stroke-opacity:1;stroke-miterlimit:10;" d="M 0.005871 -0.00289921 L -29.637611 42.923841 " transform="matrix(0.177105,0,0,0.163888,22.90521,3.824694)"/>
<path style="fill:none;stroke-width:1;stroke-linecap:butt;stroke-linejoin:miter;stroke:rgb(0%,0%,0%);stroke-opacity:1;stroke-miterlimit:10;" d="M -0.00929385 0.007378 L 10.996731 -64.990523 " transform="matrix(0.177105,0,0,0.163888,34.657896,16.596447)"/>
<path style="fill:none;stroke-width:1;stroke-linecap:butt;stroke-linejoin:miter;stroke:rgb(0%,0%,0%);stroke-opacity:1;stroke-miterlimit:10;" d="M 0.00139855 0.00945674 L -10.629672 -102.93368 " transform="matrix(0.177105,0,0,0.163888,40.261471,24.451575)"/>
<path style="fill:none;stroke-width:1;stroke-linecap:butt;stroke-linejoin:miter;stroke:rgb(0%,0%,0%);stroke-opacity:1;stroke-miterlimit:10;" d="M 0.00664683 0.00556585 L -26.990095 -31.861758 " transform="matrix(0.177105,0,0,0.163888,33.127729,31.170963)"/>
<path style="fill:none;stroke-width:1;stroke-linecap:butt;stroke-linejoin:miter;stroke:rgb(0%,0%,0%);stroke-opacity:1;stroke-miterlimit:10;" d="M 0.00786151 -0.0107582 L 15.778017 -44.868129 " transform="matrix(0.177105,0,0,0.163888,20.553295,43.298638)"/>
<path style="fill:none;stroke-width:1;stroke-linecap:butt;stroke-linejoin:miter;stroke:rgb(0%,0%,0%);stroke-opacity:1;stroke-miterlimit:10;" d="M 0.00382791 0.00315945 L -5.289651 -20.852419 " transform="matrix(0.177105,0,0,0.163888,15.112603,56.409638)"/>
<path style="fill:none;stroke-width:1;stroke-linecap:butt;stroke-linejoin:miter;stroke:rgb(0%,0%,0%);stroke-opacity:1;stroke-miterlimit:10;" d="M -0.0017827 -0.00225238 L -15.771938 -51.867097 " transform="matrix(0.177105,0,0,0.163888,23.347972,33.629275)"/>
<path style="fill:none;stroke-width:1;stroke-linecap:butt;stroke-linejoin:miter;stroke:rgb(0%,0%,0%);stroke-opacity:1;stroke-miterlimit:10;" d="M 0.00337527 0.00851871 L 12.641556 27.919242 " transform="matrix(0.177105,0,0,0.163888,16.061902,38.72126)"/>
<path style="fill:none;stroke-width:1;stroke-linecap:butt;stroke-linejoin:miter;stroke:rgb(0%,0%,0%);stroke-opacity:1;stroke-miterlimit:10;" d="M 0.00165606 0.00720045 L -23.289651 30.849622 " transform="matrix(0.177105,0,0,0.163888,18.300488,45.616007)"/>
<path style="fill:none;stroke-width:1;stroke-linecap:butt;stroke-linejoin:miter;stroke:rgb(0%,0%,0%);stroke-opacity:1;stroke-miterlimit:10;" d="M -0.00136849 0.00320017 L 21.348996 27.937758 " transform="matrix(0.177105,0,0,0.163888,33.531492,19.394007)"/>
<path style="fill:none;stroke-width:1;stroke-linecap:butt;stroke-linejoin:miter;stroke:rgb(0%,0%,0%);stroke-opacity:1;stroke-miterlimit:10;" d="M -0.00652681 0.00527891 L -7.990857 34.994981 " transform="matrix(0.177105,0,0,0.163888,41.387875,27.249135)"/>
<path style="fill:none;stroke-width:1;stroke-linecap:butt;stroke-linejoin:miter;stroke:rgb(0%,0%,0%);stroke-opacity:1;stroke-miterlimit:10;" d="M 0.00664683 -0.00031048 L 9.998088 24.859539 " transform="matrix(0.177105,0,0,0.163888,33.127729,33.488332)"/>
<path style="fill:none;stroke-width:1;stroke-linecap:butt;stroke-linejoin:miter;stroke:rgb(0%,0%,0%);stroke-opacity:1;stroke-miterlimit:10;" d="M -0.00498824 -0.0091965 L -29.64847 -21.07929 " transform="matrix(0.177105,0,0,0.163888,38.844633,35.782757)"/>
<path style="fill:none;stroke-width:1;stroke-linecap:butt;stroke-linejoin:miter;stroke:rgb(0%,0%,0%);stroke-opacity:1;stroke-miterlimit:10;" d="M -0.00997971 -0.00751836 L 14.282413 -20.863097 " transform="matrix(0.177105,0,0,0.163888,25.158017,54.770763)"/>
<path style="fill:none;stroke-width:1;stroke-linecap:butt;stroke-linejoin:miter;stroke:rgb(0%,0%,0%);stroke-opacity:1;stroke-miterlimit:10;" d="M -0.00767911 -0.00537854 L 31.290015 39.989663 " transform="matrix(0.177105,0,0,0.163888,10.989641,7.102444)"/>
<path style="fill:none;stroke-width:1;stroke-linecap:butt;stroke-linejoin:miter;stroke:rgb(0%,0%,0%);stroke-opacity:1;stroke-miterlimit:10;" d="M 0.00228934 -0.00863871 L 9.993731 49.99708 " transform="matrix(0.177105,0,0,0.163888,17.655845,14.138135)"/>
<path style="fill:none;stroke-width:1;stroke-linecap:butt;stroke-linejoin:miter;stroke:rgb(0%,0%,0%);stroke-opacity:1;stroke-miterlimit:10;" d="M -0.00735522 0.00775824 L 28.643599 -2.065882 " transform="matrix(0.177105,0,0,0.163888,21.020834,23.971385)"/>
<path style="fill:none;stroke-width:1;stroke-linecap:butt;stroke-linejoin:miter;stroke:rgb(0%,0%,0%);stroke-opacity:1;stroke-miterlimit:10;" d="M 0.00369915 -0.0017585 L -2.775377 46.857748 " transform="matrix(0.177105,0,0,0.163888,26.093095,25.949507)"/>
<path style="fill:none;stroke-width:1;stroke-linecap:butt;stroke-linejoin:miter;stroke:rgb(0%,0%,0%);stroke-opacity:1;stroke-miterlimit:10;" d="M 0.00709947 0.00851871 L -37.135477 -16.938129 " transform="matrix(0.177105,0,0,0.163888,32.17843,38.72126)"/>
<path style="fill:none;stroke-width:1;stroke-linecap:butt;stroke-linejoin:miter;stroke:rgb(0%,0%,0%);stroke-opacity:1;stroke-miterlimit:10;" d="M -0.000968431 0.00146095 L -26.005183 9.988304 " transform="matrix(0.177105,0,0,0.163888,22.437672,55.929448)"/>
<path style="fill:none;stroke-width:1;stroke-linecap:butt;stroke-linejoin:miter;stroke:rgb(0%,0%,0%);stroke-opacity:1;stroke-miterlimit:10;" d="M -0.00109719 0.00775824 L -35.004226 -4.997581 " transform="matrix(0.177105,0,0,0.163888,33.418163,23.971385)"/>
<path style="fill:none;stroke-width:1;stroke-linecap:butt;stroke-linejoin:miter;stroke:rgb(0%,0%,0%);stroke-opacity:1;stroke-miterlimit:10;" d="M -0.00997971 -0.00289921 L 14.150076 22.92632 " transform="matrix(0.177105,0,0,0.163888,25.158017,3.824694)"/>
<path style="fill:none;stroke-width:1;stroke-linecap:butt;stroke-linejoin:miter;stroke:rgb(0%,0%,0%);stroke-opacity:1;stroke-miterlimit:10;" d="M 0.00909033 0.00699777 L 41.496731 -19.990523 " transform="matrix(0.177105,0,0,0.163888,29.256203,9.221509)"/>
<path style="fill-rule:nonzero;fill:rgb(89.7995%,7.798767%,0%);fill-opacity:1;stroke-width:1;stroke-linecap:butt;stroke-linejoin:miter;stroke:rgb(0%,0%,0%);stroke-opacity:1;stroke-miterlimit:10;" d="M -0.00505461 -0.0053989 L 6.413289 -0.0053989 L 11.00097 4.451736 L 15.588652 -0.0053989 L 22.006995 -0.0053989 L 14.199114 7.502609 L 22.006995 15.010618 L 15.588652 15.010618 L 11.00097 10.553483 L 6.413289 15.010618 L -0.00505461 15.010618 L 7.339647 7.502609 Z M -0.00505461 -0.0053989 " transform="matrix(0.177105,0,0,0.163888,6.852458,25.61026)"/>
<path style="fill-rule:nonzero;fill:rgb(0%,39.99939%,0%);fill-opacity:1;stroke-width:1;stroke-linecap:butt;stroke-linejoin:miter;stroke:rgb(0%,0%,0%);stroke-opacity:1;stroke-miterlimit:10;" d="M -0.00109719 0.00775824 L 6.417246 0.00775824 L 11.004928 4.441058 L 15.570553 0.00775824 L 22.010952 0.00775824 L 14.203071 7.491932 L 22.010952 14.99994 L 15.570553 14.99994 L 11.004928 10.56664 L 6.417246 14.99994 L -0.00109719 14.99994 L 7.321549 7.491932 Z M -0.00109719 0.00775824 " transform="matrix(0.177105,0,0,0.163888,33.418163,23.971385)"/>
<path style="fill-rule:nonzero;fill:rgb(0%,0%,79.998779%);fill-opacity:1;stroke-width:1;stroke-linecap:butt;stroke-linejoin:miter;stroke:rgb(0%,0%,0%);stroke-opacity:1;stroke-miterlimit:10;" d="M 0.00311775 0.00317981 L 6.421461 0.00317981 L 11.009143 4.43648 L 15.574768 0.00317981 L 21.993111 0.00317981 L 14.207286 7.511188 L 21.993111 14.995362 L 15.574768 14.995362 L 11.009143 10.562061 L 6.421461 14.995362 L 0.00311775 14.995362 L 7.325764 7.511188 Z M 0.00311775 0.00317981 " transform="matrix(0.177105,0,0,0.163888,38.022885,37.901823)"/>
<path style="fill:none;stroke-width:1;stroke-linecap:butt;stroke-linejoin:miter;stroke:rgb(0%,0%,0%);stroke-opacity:1;stroke-miterlimit:10;" d="M 0.00699501 0.0106178 L 12.998074 1.011686 " transform="matrix(0.177105,0,0,0.163888,10.748761,28.068572)"/>
<path style="fill:none;stroke-width:1;stroke-linecap:butt;stroke-linejoin:miter;stroke:rgb(0%,0%,0%);stroke-opacity:1;stroke-miterlimit:10;" d="M 0.00486125 -0.0104509 L 24.619538 -6.922586 " transform="matrix(0.177105,0,0,0.163888,3.374139,28.71265)"/>
<path style="fill:none;stroke-width:1;stroke-linecap:butt;stroke-linejoin:miter;stroke:rgb(0%,0%,0%);stroke-opacity:1;stroke-miterlimit:10;" d="M 0.0109524 -0.0000599969 L 13.994559 -5.005399 " transform="matrix(0.177105,0,0,0.163888,37.314467,26.429697)"/>
<path style="fill:none;stroke-width:1;stroke-linecap:butt;stroke-linejoin:miter;stroke:rgb(0%,0%,0%);stroke-opacity:1;stroke-miterlimit:10;" d="M -0.00395455 -0.00785787 L -41.138697 12.934518 " transform="matrix(0.177105,0,0,0.163888,26.535857,10.380194)"/>
<path style=" stroke:none;fill-rule:nonzero;fill:rgb(0%,0%,0%);fill-opacity:1;" d="M 9.253906 24.980469 L 9.375 24.671875 L 9.707031 24.785156 L 9.585938 25.09375 M 9.734375 23.746094 L 9.855469 23.441406 L 10.1875 23.550781 L 10.066406 23.859375 M 10.214844 22.515625 L 10.335938 22.207031 L 10.667969 22.316406 L 10.550781 22.625 M 10.695312 21.28125 L 10.816406 20.972656 L 11.152344 21.085938 L 11.03125 21.394531 M 11.179688 20.046875 L 11.296875 19.738281 L 11.632812 19.851562 L 11.511719 20.160156 M 11.660156 18.816406 L 11.78125 18.507812 L 12.113281 18.617188 L 11.992188 18.925781 "/>
<path style=" stroke:none;fill-rule:nonzero;fill:rgb(0%,0%,0%);fill-opacity:1;" d="M 33.214844 24.011719 L 32.945312 23.796875 L 33.179688 23.550781 L 33.445312 23.765625 M 32.144531 23.152344 L 31.878906 22.9375 L 32.109375 22.691406 L 32.375 22.90625 M 31.074219 22.292969 L 30.808594 22.078125 L 31.039062 21.832031 L 31.308594 22.046875 M 30.003906 21.433594 L 29.738281 21.21875 L 29.972656 20.96875 L 30.238281 21.183594 M 28.9375 20.570312 L 28.667969 20.355469 L 28.902344 20.109375 L 29.167969 20.324219 M 27.867188 19.710938 L 27.601562 19.496094 L 27.832031 19.25 L 28.101562 19.464844 M 26.796875 18.851562 L 26.53125 18.636719 L 26.761719 18.390625 L 27.03125 18.605469 M 25.730469 17.992188 L 25.460938 17.777344 L 25.695312 17.527344 L 25.960938 17.742188 "/>
<path style=" stroke:none;fill-rule:nonzero;fill:rgb(0%,0%,0%);fill-opacity:1;" d="M 29.019531 42.992188 L 29.355469 42.882812 L 29.472656 43.191406 L 29.136719 43.300781 M 30.359375 42.558594 L 30.691406 42.449219 L 30.808594 42.757812 L 30.476562 42.867188 M 31.695312 42.125 L 32.03125 42.015625 L 32.148438 42.328125 L 31.8125 42.433594 M 33.03125 41.691406 L 33.367188 41.582031 L 33.484375 41.894531 L 33.148438 42 M 34.371094 41.257812 L 34.703125 41.152344 L 34.820312 41.460938 L 34.488281 41.566406 M 35.707031 40.824219 L 36.042969 40.71875 L 36.160156 41.027344 L 35.824219 41.136719 M 37.042969 40.394531 L 37.378906 40.285156 L 37.496094 40.59375 L 37.160156 40.703125 "/>
<path style="fill:none;stroke-width:1;stroke-linecap:butt;stroke-linejoin:miter;stroke:rgb(0%,0%,0%);stroke-opacity:1;stroke-miterlimit:10;" d="M -0.00191178 -0.000460616 L 17.643018 2.07318 " transform="matrix(0.177105,0,0,0.163888,34.898776,37.562575)"/>
<path style="fill:none;stroke-width:1;stroke-linecap:butt;stroke-linejoin:miter;stroke:rgb(0%,0%,0%);stroke-opacity:1;stroke-miterlimit:10;" d="M -0.00688876 -0.00463845 L -65.006398 60.011758 " transform="matrix(0.177105,0,0,0.163888,41.919189,40.360135)"/>
<path style="fill:none;stroke-width:1;stroke-linecap:butt;stroke-linejoin:miter;stroke:rgb(0%,0%,0%);stroke-opacity:1;stroke-miterlimit:10;" d="M -0.00688876 0.00317979 L -1.991943 -19.994341 " transform="matrix(0.177105,0,0,0.163888,41.919189,37.901823)"/>
</g>
</svg>
