<?xml version="1.0" encoding="UTF-8"?>
<svg xmlns="http://www.w3.org/2000/svg" xmlns:xlink="http://www.w3.org/1999/xlink" width="97pt" height="96pt" viewBox="0 0 97 96" version="1.1">
<g id="surface1">
<path style="fill:none;stroke-width:0.398;stroke-linecap:butt;stroke-linejoin:miter;stroke:rgb(0%,0%,0%);stroke-opacity:1;stroke-miterlimit:10;" d="M -0.000759719 0.000688034 C -0.000759719 1.088315 -0.883586 1.97313 -1.973202 1.97313 C -3.062817 1.97313 -3.945643 1.088315 -3.945643 0.000688034 C -3.945643 -1.088927 -3.062817 -1.973742 -1.973202 -1.973742 C -0.883586 -1.973742 -0.000759719 -1.088927 -0.000759719 0.000688034 Z M -0.000759719 0.000688034 " transform="matrix(1.96457,0,0,-1.96457,45.200711,47.806039)"/>
<path style="fill-rule:nonzero;fill:rgb(0%,69.999695%,0%);fill-opacity:0.2;stroke-width:0.398;stroke-linecap:butt;stroke-linejoin:miter;stroke:rgb(0%,0%,0%);stroke-opacity:1;stroke-miterlimit:10;" d="M 0.000746819 -0.000102019 C 0.000746819 1.089513 -0.88208 1.97234 -1.973683 1.97234 C -3.06131 1.97234 -3.944137 1.089513 -3.944137 -0.000102019 C -3.944137 -1.089717 -3.06131 -1.972544 -1.973683 -1.972544 C -0.88208 -1.972544 0.000746819 -1.089717 0.000746819 -0.000102019 Z M 0.000746819 -0.000102019 " transform="matrix(1.96457,0,0,-1.96457,66.920408,40.566206)"/>
<path style="fill-rule:nonzero;fill:rgb(100%,59.999084%,19.999695%);fill-opacity:0.2;stroke-width:0.398;stroke-linecap:butt;stroke-linejoin:miter;stroke:rgb(0%,0%,0%);stroke-opacity:1;stroke-miterlimit:10;" d="M 0.000438576 0.000206224 C 0.000438576 1.089821 -0.882388 1.972648 -1.973992 1.972648 C -3.061618 1.972648 -3.944445 1.089821 -3.944445 0.000206224 C -3.944445 -1.089409 -3.061618 -1.972236 -1.973992 -1.972236 C -0.882388 -1.972236 0.000438576 -1.089409 0.000438576 0.000206224 Z M 0.000438576 0.000206224 " transform="matrix(1.96457,0,0,-1.96457,52.440545,26.086343)"/>
<path style="fill-rule:nonzero;fill:rgb(0%,69.999695%,0%);fill-opacity:0.2;stroke-width:0.398;stroke-linecap:butt;stroke-linejoin:miter;stroke:rgb(0%,0%,0%);stroke-opacity:1;stroke-miterlimit:10;" d="M -0.000351476 0.000614467 C -0.000351476 1.088241 -0.883178 1.973056 -1.972793 1.973056 C -3.062408 1.973056 -3.945235 1.088241 -3.945235 0.000614467 C -3.945235 -1.089001 -3.062408 -1.973816 -1.972793 -1.973816 C -0.883178 -1.973816 -0.000351476 -1.089001 -0.000351476 0.000614467 Z M -0.000351476 0.000614467 " transform="matrix(1.96457,0,0,-1.96457,59.680378,11.606676)"/>
<path style="fill-rule:nonzero;fill:rgb(0%,69.999695%,0%);fill-opacity:1;stroke-width:0.398;stroke-linecap:butt;stroke-linejoin:miter;stroke:rgb(0%,0%,0%);stroke-opacity:1;stroke-miterlimit:10;" d="M -0.0000432334 0.000206224 C -0.0000432334 1.089821 -0.88287 1.972648 -1.972485 1.972648 C -3.0621 1.972648 -3.944927 1.089821 -3.944927 0.000206224 C -3.944927 -1.089409 -3.0621 -1.972236 -1.972485 -1.972236 C -0.88287 -1.972236 -0.0000432334 -1.089409 -0.0000432334 0.000206224 Z M -0.0000432334 0.000206224 " transform="matrix(1.96457,0,0,-1.96457,74.160241,26.086343)"/>
<path style="fill-rule:nonzero;fill:rgb(0%,69.999695%,0%);fill-opacity:0.5;stroke-width:0.398;stroke-linecap:butt;stroke-linejoin:miter;stroke:rgb(0%,0%,0%);stroke-opacity:1;stroke-miterlimit:10;" d="M 0.00036501 -0.000102019 C 0.00036501 1.089513 -0.882462 1.97234 -1.972077 1.97234 C -3.061692 1.97234 -3.944519 1.089513 -3.944519 -0.000102019 C -3.944519 -1.089717 -3.061692 -1.972544 -1.972077 -1.972544 C -0.882462 -1.972544 0.00036501 -1.089717 0.00036501 -0.000102019 Z M 0.00036501 -0.000102019 " transform="matrix(1.96457,0,0,-1.96457,88.639908,40.566206)"/>
<path style="fill-rule:nonzero;fill:rgb(0%,69.999695%,0%);fill-opacity:0.5;stroke-width:0.398;stroke-linecap:butt;stroke-linejoin:miter;stroke:rgb(0%,0%,0%);stroke-opacity:1;stroke-miterlimit:10;" d="M -0.000525043 -0.000583829 C -0.000525043 1.089031 -0.883352 1.973846 -1.972967 1.973846 C -3.062582 1.973846 -3.945409 1.089031 -3.945409 -0.000583829 C -3.945409 -1.088211 -3.062582 -1.973026 -1.972967 -1.973026 C -0.883352 -1.973026 -0.000525043 -1.088211 -0.000525043 -0.000583829 Z M -0.000525043 -0.000583829 " transform="matrix(1.96457,0,0,-1.96457,95.879938,18.846509)"/>
<path style="fill-rule:nonzero;fill:rgb(100%,59.999084%,19.999695%);fill-opacity:1;stroke-width:0.398;stroke-linecap:butt;stroke-linejoin:miter;stroke:rgb(0%,0%,0%);stroke-opacity:1;stroke-miterlimit:10;" d="M 0.000820386 -0.000583829 C 0.000820386 1.089031 -0.882006 1.973846 -1.97361 1.973846 C -3.061236 1.973846 -3.944063 1.089031 -3.944063 -0.000583829 C -3.944063 -1.088211 -3.061236 -1.973026 -1.97361 -1.973026 C -0.882006 -1.973026 0.000820386 -1.088211 0.000820386 -0.000583829 Z M 0.000820386 -0.000583829 " transform="matrix(1.96457,0,0,-1.96457,30.721045,18.846509)"/>
<path style="fill-rule:nonzero;fill:rgb(100%,59.999084%,19.999695%);fill-opacity:0.5;stroke-width:0.398;stroke-linecap:butt;stroke-linejoin:miter;stroke:rgb(0%,0%,0%);stroke-opacity:1;stroke-miterlimit:10;" d="M -0.000686153 0.000206224 C -0.000686153 1.089821 -0.883513 1.972648 -1.973128 1.972648 C -3.062743 1.972648 -3.94557 1.089821 -3.94557 0.000206224 C -3.94557 -1.089409 -3.062743 -1.972236 -1.973128 -1.972236 C -0.883513 -1.972236 -0.000686153 -1.089409 -0.000686153 0.000206224 Z M -0.000686153 0.000206224 " transform="matrix(1.96457,0,0,-1.96457,9.001348,26.086343)"/>
<path style="fill-rule:nonzero;fill:rgb(100%,59.999084%,19.999695%);fill-opacity:0.5;stroke-width:0.398;stroke-linecap:butt;stroke-linejoin:miter;stroke:rgb(0%,0%,0%);stroke-opacity:1;stroke-miterlimit:10;" d="M 0.000512143 -0.000175586 C 0.000512143 1.089439 -0.882315 1.972266 -1.973918 1.972266 C -3.061545 1.972266 -3.944371 1.089439 -3.944371 -0.000175586 C -3.944371 -1.089791 -3.061545 -1.972617 -1.973918 -1.972617 C -0.882315 -1.972617 0.000512143 -1.089791 0.000512143 -0.000175586 Z M 0.000512143 -0.000175586 " transform="matrix(1.96457,0,0,-1.96457,16.241181,4.366843)"/>
<path style="fill-rule:nonzero;fill:rgb(100%,0%,0%);fill-opacity:1;stroke-width:0.398;stroke-linecap:butt;stroke-linejoin:miter;stroke:rgb(0%,0%,0%);stroke-opacity:1;stroke-miterlimit:10;" d="M 0.0000303334 -0.000818505 C 0.0000303334 1.088797 -0.882796 1.973612 -1.972411 1.973612 C -3.062027 1.973612 -3.944853 1.088797 -3.944853 -0.000818505 C -3.944853 -1.088445 -3.062027 -1.97326 -1.972411 -1.97326 C -0.882796 -1.97326 0.0000303334 -1.088445 0.0000303334 -0.000818505 Z M 0.0000303334 -0.000818505 " transform="matrix(1.96457,0,0,-1.96457,37.960878,69.525736)"/>
<path style="fill-rule:nonzero;fill:rgb(100%,0%,0%);fill-opacity:0.5;stroke-width:0.398;stroke-linecap:butt;stroke-linejoin:miter;stroke:rgb(0%,0%,0%);stroke-opacity:1;stroke-miterlimit:10;" d="M -0.00037791 0.00027979 C -0.00037791 1.089895 -0.883205 1.972722 -1.97282 1.972722 C -3.062435 1.972722 -3.945262 1.089895 -3.945262 0.00027979 C -3.945262 -1.089335 -3.062435 -1.972162 -1.97282 -1.972162 C -0.883205 -1.972162 -0.00037791 -1.089335 -0.00037791 0.00027979 Z M -0.00037791 0.00027979 " transform="matrix(1.96457,0,0,-1.96457,23.481211,62.285706)"/>
<path style="fill-rule:nonzero;fill:rgb(100%,0%,0%);fill-opacity:0.5;stroke-width:0.398;stroke-linecap:butt;stroke-linejoin:miter;stroke:rgb(0%,0%,0%);stroke-opacity:1;stroke-miterlimit:10;" d="M 0.0000303334 -0.000436696 C 0.0000303334 1.089178 -0.882796 1.973993 -1.972411 1.973993 C -3.062027 1.973993 -3.944853 1.089178 -3.944853 -0.000436696 C -3.944853 -1.088063 -3.062027 -1.972879 -1.972411 -1.972879 C -0.882796 -1.972879 0.0000303334 -1.088063 0.0000303334 -0.000436696 Z M 0.0000303334 -0.000436696 " transform="matrix(1.96457,0,0,-1.96457,37.960878,91.245236)"/>
<path style="fill-rule:nonzero;fill:rgb(100%,0%,0%);fill-opacity:0.2;stroke-width:0.398;stroke-linecap:butt;stroke-linejoin:miter;stroke:rgb(0%,0%,0%);stroke-opacity:1;stroke-miterlimit:10;" d="M -0.0000432334 0.00027979 C -0.0000432334 1.089895 -0.88287 1.972722 -1.972485 1.972722 C -3.0621 1.972722 -3.944927 1.089895 -3.944927 0.00027979 C -3.944927 -1.089335 -3.0621 -1.972162 -1.972485 -1.972162 C -0.88287 -1.972162 -0.0000432334 -1.089335 -0.0000432334 0.00027979 Z M -0.0000432334 0.00027979 " transform="matrix(1.96457,0,0,-1.96457,74.160241,62.285706)"/>
<path style="fill-rule:nonzero;fill:rgb(100%,0%,0%);fill-opacity:0.5;stroke-width:0.398;stroke-linecap:butt;stroke-linejoin:miter;stroke:rgb(0%,0%,0%);stroke-opacity:1;stroke-miterlimit:10;" d="M -0.000351476 -0.0000284525 C -0.000351476 1.089587 -0.883178 1.972413 -1.972793 1.972413 C -3.062408 1.972413 -3.945235 1.089587 -3.945235 -0.0000284525 C -3.945235 -1.089643 -3.062408 -1.97247 -1.972793 -1.97247 C -0.883178 -1.97247 -0.000351476 -1.089643 -0.000351476 -0.0000284525 Z M -0.000351476 -0.0000284525 " transform="matrix(1.96457,0,0,-1.96457,59.680378,76.765569)"/>
<path style="fill:none;stroke-width:0.398;stroke-linecap:butt;stroke-linejoin:miter;stroke:rgb(0%,0%,0%);stroke-opacity:1;stroke-miterlimit:10;" d="M 0.00036501 0.0007616 C 0.00036501 1.088388 -0.882462 1.973203 -1.972077 1.973203 C -3.061692 1.973203 -3.944519 1.088388 -3.944519 0.0007616 C -3.944519 -1.088853 -3.061692 -1.973669 -1.972077 -1.973669 C -0.882462 -1.973669 0.00036501 -1.088853 0.00036501 0.0007616 Z M 0.00036501 0.0007616 " transform="matrix(1.96457,0,0,-1.96457,88.639908,84.005402)"/>
<path style="fill:none;stroke-width:0.398;stroke-linecap:butt;stroke-linejoin:miter;stroke:rgb(0%,0%,0%);stroke-opacity:1;stroke-miterlimit:10;" d="M -0.000965498 -0.000758856 L 7.314169 2.438945 M 10.066043 4.826952 L 11.988777 8.668441 M 14.265436 9.038274 L 18.846591 4.457119 M 20.864765 4.932334 L 23.30248 12.24548 M 22.055785 13.494163 L 14.742639 11.056448 M 11.475783 11.827927 L 6.894627 16.409082 M 4.617968 16.039249 L 2.695235 12.19776 M 1.190055 8.56107 L -1.24766 1.247924 M -0.0566393 11.056448 L -7.371774 13.494163 M -11.113846 13.494163 L -18.426992 11.056448 M -19.566316 8.600837 L -13.66092 -6.162651 M -11.286832 -6.900328 L -3.512389 -1.718692 M -11.163555 -8.876747 L -7.320077 -10.797492 M -3.685375 -12.30466 L 3.627771 -14.742375 M 6.894627 -13.970896 L 11.475783 -9.389741 M 12.247262 -6.122884 L 9.809546 1.190262 M -10.636642 15.512337 L -15.217797 20.093492 M -5.556411 -13.65276 L -5.556411 -20.763095 M 7.413586 -15.84392 L 18.327632 -18.573923 " transform="matrix(1.96457,0,0,-1.96457,45.001897,46.58054)"/>
</g>
</svg>
