<?xml version="1.0" encoding="UTF-8"?>
<svg xmlns="http://www.w3.org/2000/svg" xmlns:xlink="http://www.w3.org/1999/xlink" width="50pt" height="62pt" viewBox="0 0 50 62" version="1.1">
<defs>
<clipPath id="clip1">
  <path d="M 0.257812 1 L 4 1 L 4 5 L 0.257812 5 Z M 0.257812 1 "/>
</clipPath>
<clipPath id="clip2">
  <path d="M 0.257812 0.761719 L 6 0.761719 L 6 6 L 0.257812 6 Z M 0.257812 0.761719 "/>
</clipPath>
<clipPath id="clip3">
  <path d="M 0.257812 15 L 4 15 L 4 19 L 0.257812 19 Z M 0.257812 15 "/>
</clipPath>
<clipPath id="clip4">
  <path d="M 0.257812 13 L 6 13 L 6 21 L 0.257812 21 Z M 0.257812 13 "/>
</clipPath>
<clipPath id="clip5">
  <path d="M 43 0.761719 L 50 0.761719 L 50 6 L 43 6 Z M 43 0.761719 "/>
</clipPath>
<clipPath id="clip6">
  <path d="M 0.257812 38 L 4 38 L 4 42 L 0.257812 42 Z M 0.257812 38 "/>
</clipPath>
<clipPath id="clip7">
  <path d="M 0.257812 37 L 6 37 L 6 44 L 0.257812 44 Z M 0.257812 37 "/>
</clipPath>
<clipPath id="clip8">
  <path d="M 16 58 L 20 58 L 20 61.632812 L 16 61.632812 Z M 16 58 "/>
</clipPath>
<clipPath id="clip9">
  <path d="M 15 56 L 22 56 L 22 61.632812 L 15 61.632812 Z M 15 56 "/>
</clipPath>
<clipPath id="clip10">
  <path d="M 0.257812 28 L 4 28 L 4 32 L 0.257812 32 Z M 0.257812 28 "/>
</clipPath>
<clipPath id="clip11">
  <path d="M 0.257812 26 L 6 26 L 6 33 L 0.257812 33 Z M 0.257812 26 "/>
</clipPath>
<clipPath id="clip12">
  <path d="M 0.257812 0.761719 L 7 0.761719 L 7 20 L 0.257812 20 Z M 0.257812 0.761719 "/>
</clipPath>
<clipPath id="clip13">
  <path d="M 0.257812 0.761719 L 21 0.761719 L 21 12 L 0.257812 12 Z M 0.257812 0.761719 "/>
</clipPath>
<clipPath id="clip14">
  <path d="M 0.257812 7 L 10 7 L 10 33 L 0.257812 33 Z M 0.257812 7 "/>
</clipPath>
<clipPath id="clip15">
  <path d="M 0.257812 0.761719 L 9 0.761719 L 9 16 L 0.257812 16 Z M 0.257812 0.761719 "/>
</clipPath>
<clipPath id="clip16">
  <path d="M 32 0.761719 L 50 0.761719 L 50 32 L 32 32 Z M 32 0.761719 "/>
</clipPath>
<clipPath id="clip17">
  <path d="M 41 0.761719 L 50 0.761719 L 50 28 L 41 28 Z M 41 0.761719 "/>
</clipPath>
<clipPath id="clip18">
  <path d="M 15 0.761719 L 50 0.761719 L 50 11 L 15 11 Z M 15 0.761719 "/>
</clipPath>
<clipPath id="clip19">
  <path d="M 9 43 L 22 43 L 22 61.632812 L 9 61.632812 Z M 9 43 "/>
</clipPath>
<clipPath id="clip20">
  <path d="M 0.257812 25 L 8 25 L 8 46 L 0.257812 46 Z M 0.257812 25 "/>
</clipPath>
<clipPath id="clip21">
  <path d="M 0.257812 23 L 16 23 L 16 45 L 0.257812 45 Z M 0.257812 23 "/>
</clipPath>
<clipPath id="clip22">
  <path d="M 0.257812 37 L 17 37 L 17 50 L 0.257812 50 Z M 0.257812 37 "/>
</clipPath>
<clipPath id="clip23">
  <path d="M 0.257812 9 L 24 9 L 24 32 L 0.257812 32 Z M 0.257812 9 "/>
</clipPath>
<clipPath id="clip24">
  <path d="M 0.257812 3 L 26 3 L 26 27 L 0.257812 27 Z M 0.257812 3 "/>
</clipPath>
<clipPath id="clip25">
  <path d="M 0.257812 3 L 11 3 L 11 18 L 0.257812 18 Z M 0.257812 3 "/>
</clipPath>
</defs>
<g id="surface1">
<g clip-path="url(#clip1)" clip-rule="nonzero">
<path style=" stroke:none;fill-rule:nonzero;fill:rgb(0%,49.798584%,100%);fill-opacity:1;" d="M 3.566406 2.5625 C 3.566406 2.757812 3.527344 2.949219 3.453125 3.132812 C 3.375 3.316406 3.265625 3.480469 3.125 3.621094 C 2.988281 3.761719 2.824219 3.871094 2.640625 3.945312 C 2.457031 4.019531 2.265625 4.058594 2.066406 4.058594 C 1.867188 4.058594 1.675781 4.019531 1.492188 3.945312 C 1.308594 3.871094 1.148438 3.761719 1.007812 3.621094 C 0.867188 3.480469 0.757812 3.316406 0.683594 3.132812 C 0.605469 2.949219 0.566406 2.757812 0.566406 2.5625 C 0.566406 2.363281 0.605469 2.171875 0.683594 1.988281 C 0.757812 1.804688 0.867188 1.640625 1.007812 1.5 C 1.148438 1.359375 1.308594 1.25 1.492188 1.175781 C 1.675781 1.101562 1.867188 1.0625 2.066406 1.0625 C 2.265625 1.0625 2.457031 1.101562 2.640625 1.175781 C 2.824219 1.25 2.988281 1.359375 3.125 1.5 C 3.265625 1.640625 3.375 1.804688 3.453125 1.988281 C 3.527344 2.171875 3.566406 2.363281 3.566406 2.5625 Z M 3.566406 2.5625 "/>
</g>
<g clip-path="url(#clip2)" clip-rule="nonzero">
<path style="fill:none;stroke-width:1;stroke-linecap:butt;stroke-linejoin:miter;stroke:rgb(0%,0%,0%);stroke-opacity:1;stroke-miterlimit:4;" d="M 0.00143613 0.00642756 C 0.00143613 0.657926 -0.128864 1.296394 -0.376433 1.908802 C -0.637032 2.521211 -1.001871 3.068469 -1.47095 3.537548 C -1.926999 4.006627 -2.474257 4.371466 -3.086666 4.619035 C -3.699074 4.866604 -4.337542 4.996904 -5.00207 4.996904 C -5.666599 4.996904 -6.305067 4.866604 -6.917475 4.619035 C -7.529884 4.371466 -8.064112 4.006627 -8.533191 3.537548 C -9.00227 3.068469 -9.367109 2.521211 -9.614678 1.908802 C -9.875277 1.296394 -10.005577 0.657926 -10.005577 0.00642756 C -10.005577 -0.658101 -9.875277 -1.296569 -9.614678 -1.908977 C -9.367109 -2.521386 -9.00227 -3.068644 -8.533191 -3.537723 C -8.064112 -4.006802 -7.529884 -4.371641 -6.917475 -4.61921 C -6.305067 -4.866779 -5.666599 -4.997079 -5.00207 -4.997079 C -4.337542 -4.997079 -3.699074 -4.866779 -3.086666 -4.61921 C -2.474257 -4.371641 -1.926999 -4.006802 -1.47095 -3.537723 C -1.001871 -3.068644 -0.637032 -2.521386 -0.376433 -1.908977 C -0.128864 -1.296569 0.00143613 -0.658101 0.00143613 0.00642756 Z M 0.00143613 0.00642756 " transform="matrix(0.29979,0,0,0.29979,3.565976,2.560573)"/>
</g>
<g clip-path="url(#clip3)" clip-rule="nonzero">
<path style=" stroke:none;fill-rule:nonzero;fill:rgb(59.999084%,79.998779%,100%);fill-opacity:1;" d="M 3.566406 17.175781 C 3.566406 17.375 3.527344 17.566406 3.453125 17.75 C 3.375 17.933594 3.265625 18.09375 3.125 18.234375 C 2.988281 18.375 2.824219 18.484375 2.640625 18.558594 C 2.457031 18.636719 2.265625 18.675781 2.066406 18.675781 C 1.867188 18.675781 1.675781 18.636719 1.492188 18.558594 C 1.308594 18.484375 1.148438 18.375 1.007812 18.234375 C 0.867188 18.09375 0.757812 17.933594 0.683594 17.75 C 0.605469 17.566406 0.566406 17.375 0.566406 17.175781 C 0.566406 16.976562 0.605469 16.785156 0.683594 16.601562 C 0.757812 16.417969 0.867188 16.257812 1.007812 16.117188 C 1.148438 15.976562 1.308594 15.867188 1.492188 15.789062 C 1.675781 15.714844 1.867188 15.675781 2.066406 15.675781 C 2.265625 15.675781 2.457031 15.714844 2.640625 15.789062 C 2.824219 15.867188 2.988281 15.976562 3.125 16.117188 C 3.265625 16.257812 3.375 16.417969 3.453125 16.601562 C 3.527344 16.785156 3.566406 16.976562 3.566406 17.175781 Z M 3.566406 17.175781 "/>
</g>
<g clip-path="url(#clip4)" clip-rule="nonzero">
<path style="fill:none;stroke-width:1;stroke-linecap:butt;stroke-linejoin:miter;stroke:rgb(0%,0%,0%);stroke-opacity:1;stroke-miterlimit:4;" d="M 0.00143613 0.00154213 C 0.00143613 0.66607 -0.128864 1.304539 -0.376433 1.916947 C -0.637032 2.529355 -1.001871 3.063584 -1.47095 3.532663 C -1.926999 4.001741 -2.474257 4.36658 -3.086666 4.61415 C -3.699074 4.874749 -4.337542 5.005049 -5.00207 5.005049 C -5.666599 5.005049 -6.305067 4.874749 -6.917475 4.61415 C -7.529884 4.36658 -8.064112 4.001741 -8.533191 3.532663 C -9.00227 3.063584 -9.367109 2.529355 -9.614678 1.916947 C -9.875277 1.304539 -10.005577 0.66607 -10.005577 0.00154213 C -10.005577 -0.662986 -9.875277 -1.301454 -9.614678 -1.913863 C -9.367109 -2.526271 -9.00227 -3.0605 -8.533191 -3.529578 C -8.064112 -3.998657 -7.529884 -4.363496 -6.917475 -4.624095 C -6.305067 -4.871665 -5.666599 -5.001964 -5.00207 -5.001964 C -4.337542 -5.001964 -3.699074 -4.871665 -3.086666 -4.624095 C -2.474257 -4.363496 -1.926999 -3.998657 -1.47095 -3.529578 C -1.001871 -3.0605 -0.637032 -2.526271 -0.376433 -1.913863 C -0.128864 -1.301454 0.00143613 -0.662986 0.00143613 0.00154213 Z M 0.00143613 0.00154213 " transform="matrix(0.29979,0,0,0.29979,3.565976,17.175319)"/>
</g>
<path style=" stroke:none;fill-rule:nonzero;fill:rgb(0%,79.998779%,0%);fill-opacity:1;" d="M 48.535156 2.5625 C 48.535156 2.757812 48.496094 2.949219 48.421875 3.132812 C 48.34375 3.316406 48.234375 3.480469 48.09375 3.621094 C 47.953125 3.761719 47.792969 3.871094 47.609375 3.945312 C 47.425781 4.019531 47.234375 4.058594 47.035156 4.058594 C 46.835938 4.058594 46.644531 4.019531 46.460938 3.945312 C 46.277344 3.871094 46.117188 3.761719 45.976562 3.621094 C 45.835938 3.480469 45.726562 3.316406 45.652344 3.132812 C 45.574219 2.949219 45.535156 2.757812 45.535156 2.5625 C 45.535156 2.363281 45.574219 2.171875 45.652344 1.988281 C 45.726562 1.804688 45.835938 1.640625 45.976562 1.5 C 46.117188 1.359375 46.277344 1.25 46.460938 1.175781 C 46.644531 1.101562 46.835938 1.0625 47.035156 1.0625 C 47.234375 1.0625 47.425781 1.101562 47.609375 1.175781 C 47.792969 1.25 47.953125 1.359375 48.09375 1.5 C 48.234375 1.640625 48.34375 1.804688 48.421875 1.988281 C 48.496094 2.171875 48.535156 2.363281 48.535156 2.5625 Z M 48.535156 2.5625 "/>
<g clip-path="url(#clip5)" clip-rule="nonzero">
<path style="fill:none;stroke-width:1;stroke-linecap:butt;stroke-linejoin:miter;stroke:rgb(0%,0%,0%);stroke-opacity:1;stroke-miterlimit:4;" d="M 0.00239197 0.00642756 C 0.00239197 0.657926 -0.127908 1.296394 -0.375477 1.908802 C -0.636076 2.521211 -1.000915 3.068469 -1.469994 3.537548 C -1.939073 4.006627 -2.473301 4.371466 -3.08571 4.619035 C -3.698118 4.866604 -4.336586 4.996904 -5.001115 4.996904 C -5.665643 4.996904 -6.304111 4.866604 -6.916519 4.619035 C -7.528928 4.371466 -8.063156 4.006627 -8.532235 3.537548 C -9.001314 3.068469 -9.366153 2.521211 -9.613722 1.908802 C -9.874321 1.296394 -10.004621 0.657926 -10.004621 0.00642756 C -10.004621 -0.658101 -9.874321 -1.296569 -9.613722 -1.908977 C -9.366153 -2.521386 -9.001314 -3.068644 -8.532235 -3.537723 C -8.063156 -4.006802 -7.528928 -4.371641 -6.916519 -4.61921 C -6.304111 -4.866779 -5.665643 -4.997079 -5.001115 -4.997079 C -4.336586 -4.997079 -3.698118 -4.866779 -3.08571 -4.61921 C -2.473301 -4.371641 -1.939073 -4.006802 -1.469994 -3.537723 C -1.000915 -3.068644 -0.636076 -2.521386 -0.375477 -1.908977 C -0.127908 -1.296569 0.00239197 -0.658101 0.00239197 0.00642756 Z M 0.00239197 0.00642756 " transform="matrix(0.29979,0,0,0.29979,48.534439,2.560573)"/>
</g>
<path style="fill-rule:nonzero;fill:rgb(0%,79.998779%,0%);fill-opacity:1;stroke-width:1;stroke-linecap:butt;stroke-linejoin:miter;stroke:rgb(0%,0%,0%);stroke-opacity:1;stroke-miterlimit:4;" d="M -0.00238937 -0.00580551 C -0.00238937 0.658723 -0.132689 1.297191 -0.380258 1.909599 C -0.627828 2.522008 -0.992667 3.069266 -1.461745 3.538345 C -1.930824 4.007424 -2.478083 4.372263 -3.090491 4.619832 C -3.702899 4.867401 -4.341368 4.997701 -5.005896 4.997701 C -5.657394 4.997701 -6.295862 4.867401 -6.908271 4.619832 C -7.520679 4.372263 -8.067938 4.007424 -8.537016 3.538345 C -9.006095 3.069266 -9.370934 2.522008 -9.618503 1.909599 C -9.879103 1.297191 -9.996372 0.658723 -9.996372 -0.00580551 C -9.996372 -0.657304 -9.879103 -1.295772 -9.618503 -1.90818 C -9.370934 -2.520589 -9.006095 -3.067847 -8.537016 -3.536926 C -8.067938 -4.006005 -7.520679 -4.370844 -6.908271 -4.618413 C -6.295862 -4.879012 -5.657394 -4.996282 -5.005896 -4.996282 C -4.341368 -4.996282 -3.702899 -4.879012 -3.090491 -4.618413 C -2.478083 -4.370844 -1.930824 -4.006005 -1.461745 -3.536926 C -0.992667 -3.067847 -0.627828 -2.520589 -0.380258 -1.90818 C -0.132689 -1.295772 -0.00238937 -0.657304 -0.00238937 -0.00580551 Z M -0.00238937 -0.00580551 " transform="matrix(0.29979,0,0,0.29979,19.754623,7.357209)"/>
<path style="fill-rule:nonzero;fill:rgb(0%,54.098511%,0%);fill-opacity:1;stroke-width:1;stroke-linecap:butt;stroke-linejoin:miter;stroke:rgb(0%,0%,0%);stroke-opacity:1;stroke-miterlimit:4;" d="M -0.00541795 -0.00130289 C -0.00541795 0.663225 -0.122688 1.301694 -0.383287 1.914102 C -0.630856 2.52651 -0.995695 3.060739 -1.464774 3.529818 C -1.933853 3.998896 -2.468081 4.363735 -3.08049 4.624335 C -3.692898 4.871904 -4.331366 5.002204 -4.995894 5.002204 C -5.660423 5.002204 -6.298891 4.871904 -6.911299 4.624335 C -7.523708 4.363735 -8.070966 3.998896 -8.540045 3.529818 C -9.009124 3.060739 -9.360933 2.52651 -9.621532 1.914102 C -9.869101 1.301694 -9.999401 0.663225 -9.999401 -0.00130289 C -9.999401 -0.665831 -9.869101 -1.304299 -9.621532 -1.916708 C -9.360933 -2.529116 -9.009124 -3.063345 -8.540045 -3.532423 C -8.070966 -4.001502 -7.523708 -4.366341 -6.911299 -4.61391 C -6.298891 -4.87451 -5.660423 -5.004809 -4.995894 -5.004809 C -4.331366 -5.004809 -3.692898 -4.87451 -3.08049 -4.61391 C -2.468081 -4.366341 -1.933853 -4.001502 -1.464774 -3.532423 C -0.995695 -3.063345 -0.630856 -2.529116 -0.383287 -1.916708 C -0.122688 -1.304299 -0.00541795 -0.665831 -0.00541795 -0.00130289 Z M -0.00541795 -0.00130289 " transform="matrix(0.29979,0,0,0.29979,40.739905,14.851953)"/>
<path style="fill-rule:nonzero;fill:rgb(0%,31.399536%,93.699646%);fill-opacity:1;stroke-width:1;stroke-linecap:butt;stroke-linejoin:miter;stroke:rgb(0%,0%,0%);stroke-opacity:1;stroke-miterlimit:4;" d="M -0.00338548 0.00154213 C -0.00338548 0.66607 -0.120655 1.304539 -0.381254 1.916947 C -0.628824 2.529355 -0.993663 3.063584 -1.462742 3.532663 C -1.93182 4.001741 -2.479079 4.36658 -3.091487 4.61415 C -3.703896 4.874749 -4.342364 5.005049 -4.993862 5.005049 C -5.65839 5.005049 -6.296859 4.874749 -6.909267 4.61415 C -7.521675 4.36658 -8.068934 4.001741 -8.538012 3.532663 C -9.007091 3.063584 -9.37193 2.529355 -9.6195 1.916947 C -9.867069 1.304539 -9.997369 0.66607 -9.997369 0.00154213 C -9.997369 -0.662986 -9.867069 -1.301454 -9.6195 -1.913863 C -9.37193 -2.526271 -9.007091 -3.0605 -8.538012 -3.529578 C -8.068934 -3.998657 -7.521675 -4.363496 -6.909267 -4.624095 C -6.296859 -4.871665 -5.65839 -5.001964 -4.993862 -5.001964 C -4.342364 -5.001964 -3.703896 -4.871665 -3.091487 -4.624095 C -2.479079 -4.363496 -1.93182 -3.998657 -1.462742 -3.529578 C -0.993663 -3.0605 -0.628824 -2.526271 -0.381254 -1.913863 C -0.120655 -1.301454 -0.00338548 -0.662986 -0.00338548 0.00154213 Z M -0.00338548 0.00154213 " transform="matrix(0.29979,0,0,0.29979,13.758827,17.175319)"/>
<g clip-path="url(#clip6)" clip-rule="nonzero">
<path style=" stroke:none;fill-rule:nonzero;fill:rgb(79.998779%,89.7995%,100%);fill-opacity:1;" d="M 3.566406 40.335938 C 3.566406 40.53125 3.527344 40.722656 3.453125 40.90625 C 3.375 41.089844 3.265625 41.253906 3.125 41.394531 C 2.988281 41.535156 2.824219 41.644531 2.640625 41.71875 C 2.457031 41.796875 2.265625 41.832031 2.066406 41.832031 C 1.867188 41.832031 1.675781 41.796875 1.492188 41.71875 C 1.308594 41.644531 1.148438 41.535156 1.007812 41.394531 C 0.867188 41.253906 0.757812 41.089844 0.683594 40.90625 C 0.605469 40.722656 0.566406 40.53125 0.566406 40.335938 C 0.566406 40.136719 0.605469 39.945312 0.683594 39.761719 C 0.757812 39.578125 0.867188 39.414062 1.007812 39.273438 C 1.148438 39.132812 1.308594 39.023438 1.492188 38.949219 C 1.675781 38.875 1.867188 38.835938 2.066406 38.835938 C 2.265625 38.835938 2.457031 38.875 2.640625 38.949219 C 2.824219 39.023438 2.988281 39.132812 3.125 39.273438 C 3.265625 39.414062 3.375 39.578125 3.453125 39.761719 C 3.527344 39.945312 3.566406 40.136719 3.566406 40.335938 Z M 3.566406 40.335938 "/>
</g>
<g clip-path="url(#clip7)" clip-rule="nonzero">
<path style="fill:none;stroke-width:1;stroke-linecap:butt;stroke-linejoin:miter;stroke:rgb(0%,0%,0%);stroke-opacity:1;stroke-miterlimit:4;" d="M 0.00143613 0.00618807 C 0.00143613 0.657686 -0.128864 1.296155 -0.376433 1.908563 C -0.637032 2.520971 -1.001871 3.06823 -1.47095 3.537309 C -1.926999 4.006387 -2.474257 4.371226 -3.086666 4.618796 C -3.699074 4.879395 -4.337542 4.996665 -5.00207 4.996665 C -5.666599 4.996665 -6.305067 4.879395 -6.917475 4.618796 C -7.529884 4.371226 -8.064112 4.006387 -8.533191 3.537309 C -9.00227 3.06823 -9.367109 2.520971 -9.614678 1.908563 C -9.875277 1.296155 -10.005577 0.657686 -10.005577 0.00618807 C -10.005577 -0.65834 -9.875277 -1.296808 -9.614678 -1.909217 C -9.367109 -2.521625 -9.00227 -3.068884 -8.533191 -3.537962 C -8.064112 -4.007041 -7.529884 -4.37188 -6.917475 -4.619449 C -6.305067 -4.867019 -5.666599 -4.997318 -5.00207 -4.997318 C -4.337542 -4.997318 -3.699074 -4.867019 -3.086666 -4.619449 C -2.474257 -4.37188 -1.926999 -4.007041 -1.47095 -3.537962 C -1.001871 -3.068884 -0.637032 -2.521625 -0.376433 -1.909217 C -0.128864 -1.296808 0.00143613 -0.65834 0.00143613 0.00618807 Z M 0.00143613 0.00618807 " transform="matrix(0.29979,0,0,0.29979,3.565976,40.334082)"/>
</g>
<path style="fill-rule:nonzero;fill:rgb(0%,49.798584%,100%);fill-opacity:1;stroke-width:1;stroke-linecap:butt;stroke-linejoin:miter;stroke:rgb(0%,0%,0%);stroke-opacity:1;stroke-miterlimit:4;" d="M -0.00338548 0.00399663 C -0.00338548 0.668525 -0.120655 1.306993 -0.381254 1.919401 C -0.628824 2.53181 -0.993663 3.066038 -1.462742 3.535117 C -1.93182 4.004196 -2.479079 4.369035 -3.091487 4.616604 C -3.703896 4.877203 -4.342364 4.994473 -4.993862 4.994473 C -5.65839 4.994473 -6.296859 4.877203 -6.909267 4.616604 C -7.521675 4.369035 -8.068934 4.004196 -8.538012 3.535117 C -9.007091 3.066038 -9.37193 2.53181 -9.6195 1.919401 C -9.867069 1.306993 -9.997369 0.668525 -9.997369 0.00399663 C -9.997369 -0.660532 -9.867069 -1.299 -9.6195 -1.911408 C -9.37193 -2.523817 -9.007091 -3.071075 -8.538012 -3.540154 C -8.068934 -4.009233 -7.521675 -4.361042 -6.909267 -4.621641 C -6.296859 -4.86921 -5.65839 -4.99951 -4.993862 -4.99951 C -4.342364 -4.99951 -3.703896 -4.86921 -3.091487 -4.621641 C -2.479079 -4.361042 -1.93182 -4.009233 -1.462742 -3.540154 C -0.993663 -3.071075 -0.628824 -2.523817 -0.381254 -1.911408 C -0.120655 -1.299 -0.00338548 -0.660532 -0.00338548 0.00399663 Z M -0.00338548 0.00399663 " transform="matrix(0.29979,0,0,0.29979,13.758827,27.143333)"/>
<path style="fill-rule:nonzero;fill:rgb(39.99939%,69.799805%,100%);fill-opacity:1;stroke-width:1;stroke-linecap:butt;stroke-linejoin:miter;stroke:rgb(0%,0%,0%);stroke-opacity:1;stroke-miterlimit:4;" d="M 0.00462368 -0.00301643 C 0.00462368 0.661512 -0.125676 1.29998 -0.386275 1.912388 C -0.633845 2.524797 -0.998684 3.072055 -1.467762 3.541134 C -1.936841 4.010213 -2.47107 4.362022 -3.083478 4.622621 C -3.695886 4.87019 -4.334355 5.00049 -4.998883 5.00049 C -5.663411 5.00049 -6.301879 4.87019 -6.914288 4.622621 C -7.526696 4.362022 -8.060925 4.010213 -8.530003 3.541134 C -8.999082 3.072055 -9.363921 2.524797 -9.62452 1.912388 C -9.87209 1.29998 -10.002389 0.661512 -10.002389 -0.00301643 C -10.002389 -0.667545 -9.87209 -1.306013 -9.62452 -1.918421 C -9.363921 -2.53083 -8.999082 -3.065058 -8.530003 -3.534137 C -8.060925 -4.003216 -7.526696 -4.368055 -6.914288 -4.615624 C -6.301879 -4.876223 -5.663411 -4.993493 -4.998883 -4.993493 C -4.334355 -4.993493 -3.695886 -4.876223 -3.083478 -4.615624 C -2.47107 -4.368055 -1.936841 -4.003216 -1.467762 -3.534137 C -0.998684 -3.065058 -0.633845 -2.53083 -0.386275 -1.918421 C -0.125676 -1.306013 0.00462368 -0.667545 0.00462368 -0.00301643 Z M 0.00462368 -0.00301643 " transform="matrix(0.29979,0,0,0.29979,22.75252,24.145436)"/>
<path style="fill-rule:nonzero;fill:rgb(0%,59.999084%,0%);fill-opacity:1;stroke-width:1;stroke-linecap:butt;stroke-linejoin:miter;stroke:rgb(0%,0%,0%);stroke-opacity:1;stroke-miterlimit:4;" d="M 0.00561979 0.00571013 C 0.00561979 0.657208 -0.12468 1.295677 -0.385279 1.908085 C -0.632848 2.520493 -0.997688 3.067752 -1.466766 3.536831 C -1.935845 4.005909 -2.470074 4.370748 -3.082482 4.618318 C -3.69489 4.878917 -4.333359 4.996187 -4.997887 4.996187 C -5.662415 4.996187 -6.300883 4.878917 -6.913292 4.618318 C -7.5257 4.370748 -8.072958 4.005909 -8.542037 3.536831 C -8.998086 3.067752 -9.362925 2.520493 -9.623524 1.908085 C -9.871094 1.295677 -10.001393 0.657208 -10.001393 0.00571013 C -10.001393 -0.658818 -9.871094 -1.297286 -9.623524 -1.909695 C -9.362925 -2.522103 -8.998086 -3.069362 -8.542037 -3.53844 C -8.072958 -4.007519 -7.5257 -4.372358 -6.913292 -4.619927 C -6.300883 -4.867497 -5.662415 -4.997796 -4.997887 -4.997796 C -4.333359 -4.997796 -3.69489 -4.867497 -3.082482 -4.619927 C -2.470074 -4.372358 -1.935845 -4.007519 -1.466766 -3.53844 C -0.997688 -3.069362 -0.632848 -2.522103 -0.385279 -1.909695 C -0.12468 -1.297286 0.00561979 -0.658818 0.00561979 0.00571013 Z M 0.00561979 0.00571013 " transform="matrix(0.29979,0,0,0.29979,28.748315,17.849851)"/>
<path style="fill-rule:nonzero;fill:rgb(100%,39.99939%,39.99939%);fill-opacity:1;stroke-width:1;stroke-linecap:butt;stroke-linejoin:miter;stroke:rgb(0%,0%,0%);stroke-opacity:1;stroke-miterlimit:4;" d="M 0.00462368 0.00618807 C 0.00462368 0.657686 -0.125676 1.296155 -0.386275 1.908563 C -0.633845 2.520971 -0.998684 3.06823 -1.467762 3.537309 C -1.936841 4.006387 -2.47107 4.371226 -3.083478 4.618796 C -3.695886 4.879395 -4.334355 4.996665 -4.998883 4.996665 C -5.663411 4.996665 -6.301879 4.879395 -6.914288 4.618796 C -7.526696 4.371226 -8.060925 4.006387 -8.530003 3.537309 C -8.999082 3.06823 -9.363921 2.520971 -9.62452 1.908563 C -9.87209 1.296155 -10.002389 0.657686 -10.002389 0.00618807 C -10.002389 -0.65834 -9.87209 -1.296808 -9.62452 -1.909217 C -9.363921 -2.521625 -8.999082 -3.068884 -8.530003 -3.537962 C -8.060925 -4.007041 -7.526696 -4.37188 -6.914288 -4.619449 C -6.301879 -4.867019 -5.663411 -4.997318 -4.998883 -4.997318 C -4.334355 -4.997318 -3.695886 -4.867019 -3.083478 -4.619449 C -2.47107 -4.37188 -1.936841 -4.007041 -1.467762 -3.537962 C -0.998684 -3.068884 -0.633845 -2.521625 -0.386275 -1.909217 C -0.125676 -1.296808 0.00462368 -0.65834 0.00462368 0.00618807 Z M 0.00462368 0.00618807 " transform="matrix(0.29979,0,0,0.29979,22.75252,40.334082)"/>
<path style="fill-rule:nonzero;fill:rgb(100%,39.99939%,39.99939%);fill-opacity:1;stroke-width:1;stroke-linecap:butt;stroke-linejoin:miter;stroke:rgb(0%,0%,0%);stroke-opacity:1;stroke-miterlimit:4;" d="M -0.000397152 -0.000824956 C -0.000397152 0.663703 -0.130697 1.302172 -0.378266 1.91458 C -0.638865 2.526988 -0.990674 3.061217 -1.459753 3.530296 C -1.928832 3.999374 -2.47609 4.364213 -3.088499 4.624813 C -3.700907 4.872382 -4.339375 5.002682 -5.003904 5.002682 C -5.668432 5.002682 -6.3069 4.872382 -6.919308 4.624813 C -7.531717 4.364213 -8.065945 3.999374 -8.535024 3.530296 C -9.004103 3.061217 -9.368942 2.526988 -9.616511 1.91458 C -9.877111 1.302172 -9.99438 0.663703 -9.99438 -0.000824956 C -9.99438 -0.665353 -9.877111 -1.303821 -9.616511 -1.91623 C -9.368942 -2.528638 -9.004103 -3.062867 -8.535024 -3.531945 C -8.065945 -4.001024 -7.531717 -4.365863 -6.919308 -4.613433 C -6.3069 -4.874032 -5.668432 -5.004331 -5.003904 -5.004331 C -4.339375 -5.004331 -3.700907 -4.874032 -3.088499 -4.613433 C -2.47609 -4.365863 -1.928832 -4.001024 -1.459753 -3.531945 C -0.990674 -3.062867 -0.638865 -2.528638 -0.378266 -1.91623 C -0.130697 -1.303821 -0.000397152 -0.665353 -0.000397152 -0.000824956 Z M -0.000397152 -0.000824956 " transform="matrix(0.29979,0,0,0.29979,31.746213,37.336185)"/>
<path style="fill-rule:nonzero;fill:rgb(100%,79.998779%,79.998779%);fill-opacity:1;stroke-width:1;stroke-linecap:butt;stroke-linejoin:miter;stroke:rgb(0%,0%,0%);stroke-opacity:1;stroke-miterlimit:4;" d="M -0.00462106 0.000171155 C -0.00462106 0.664699 -0.121891 1.303168 -0.38249 1.915576 C -0.630059 2.527984 -0.994898 3.062213 -1.463977 3.531292 C -1.933056 4.00037 -2.480314 4.365209 -3.092723 4.612779 C -3.705131 4.873378 -4.330569 5.003678 -4.995098 5.003678 C -5.659626 5.003678 -6.298094 4.873378 -6.910502 4.612779 C -7.522911 4.365209 -8.070169 4.00037 -8.539248 3.531292 C -9.008327 3.062213 -9.360136 2.527984 -9.620735 1.915576 C -9.868304 1.303168 -9.998604 0.664699 -9.998604 0.000171155 C -9.998604 -0.664357 -9.868304 -1.302825 -9.620735 -1.915234 C -9.360136 -2.527642 -9.008327 -3.061871 -8.539248 -3.530949 C -8.070169 -4.000028 -7.522911 -4.364867 -6.910502 -4.625466 C -6.298094 -4.873036 -5.659626 -5.003335 -4.995098 -5.003335 C -4.330569 -5.003335 -3.705131 -4.873036 -3.092723 -4.625466 C -2.480314 -4.364867 -1.933056 -4.000028 -1.463977 -3.530949 C -0.994898 -3.061871 -0.630059 -2.527642 -0.38249 -1.915234 C -0.121891 -1.302825 -0.00462106 -0.664357 -0.00462106 0.000171155 Z M -0.00462106 0.000171155 " transform="matrix(0.29979,0,0,0.29979,45.536542,43.33198)"/>
<path style="fill-rule:nonzero;fill:rgb(79.998779%,100%,79.998779%);fill-opacity:1;stroke-width:1;stroke-linecap:butt;stroke-linejoin:miter;stroke:rgb(0%,0%,0%);stroke-opacity:1;stroke-miterlimit:4;" d="M -0.000397152 -0.00301643 C -0.000397152 0.661512 -0.130697 1.29998 -0.378266 1.912388 C -0.638865 2.524797 -0.990674 3.072055 -1.459753 3.541134 C -1.928832 4.010213 -2.47609 4.362022 -3.088499 4.622621 C -3.700907 4.87019 -4.339375 5.00049 -5.003904 5.00049 C -5.668432 5.00049 -6.3069 4.87019 -6.919308 4.622621 C -7.531717 4.362022 -8.065945 4.010213 -8.535024 3.541134 C -9.004103 3.072055 -9.368942 2.524797 -9.616511 1.912388 C -9.877111 1.29998 -9.99438 0.661512 -9.99438 -0.00301643 C -9.99438 -0.667545 -9.877111 -1.306013 -9.616511 -1.918421 C -9.368942 -2.53083 -9.004103 -3.065058 -8.535024 -3.534137 C -8.065945 -4.003216 -7.531717 -4.368055 -6.919308 -4.615624 C -6.3069 -4.876223 -5.668432 -4.993493 -5.003904 -4.993493 C -4.339375 -4.993493 -3.700907 -4.876223 -3.088499 -4.615624 C -2.47609 -4.368055 -1.928832 -4.003216 -1.459753 -3.534137 C -0.990674 -3.065058 -0.638865 -2.53083 -0.378266 -1.918421 C -0.130697 -1.306013 -0.000397152 -0.667545 -0.000397152 -0.00301643 Z M -0.000397152 -0.00301643 " transform="matrix(0.29979,0,0,0.29979,31.746213,24.145436)"/>
<path style="fill-rule:nonzero;fill:rgb(39.99939%,79.998779%,0%);fill-opacity:1;stroke-width:1;stroke-linecap:butt;stroke-linejoin:miter;stroke:rgb(0%,0%,0%);stroke-opacity:1;stroke-miterlimit:4;" d="M -0.00462106 0.00439506 C -0.00462106 0.668923 -0.121891 1.307392 -0.38249 1.90677 C -0.630059 2.532208 -0.994898 3.066437 -1.463977 3.535516 C -1.933056 4.004594 -2.480314 4.369433 -3.092723 4.617003 C -3.705131 4.877602 -4.330569 4.994872 -4.995098 4.994872 C -5.659626 4.994872 -6.298094 4.877602 -6.910502 4.617003 C -7.522911 4.369433 -8.070169 4.004594 -8.539248 3.535516 C -9.008327 3.066437 -9.360136 2.532208 -9.620735 1.90677 C -9.868304 1.307392 -9.998604 0.668923 -9.998604 0.00439506 C -9.998604 -0.660133 -9.868304 -1.298601 -9.620735 -1.91101 C -9.360136 -2.523418 -9.008327 -3.070677 -8.539248 -3.539755 C -8.070169 -4.008834 -7.522911 -4.360643 -6.910502 -4.621242 C -6.298094 -4.868812 -5.659626 -4.999111 -4.995098 -4.999111 C -4.330569 -4.999111 -3.705131 -4.868812 -3.092723 -4.621242 C -2.480314 -4.360643 -1.933056 -4.008834 -1.463977 -3.539755 C -0.994898 -3.070677 -0.630059 -2.523418 -0.38249 -1.91101 C -0.121891 -1.298601 -0.00462106 -0.660133 -0.00462106 0.00439506 Z M -0.00462106 0.00439506 " transform="matrix(0.29979,0,0,0.29979,45.536542,29.541651)"/>
<g clip-path="url(#clip8)" clip-rule="nonzero">
<path style=" stroke:none;fill-rule:nonzero;fill:rgb(100%,39.99939%,39.99939%);fill-opacity:1;" d="M 19.753906 59.820312 C 19.753906 60.019531 19.714844 60.210938 19.640625 60.394531 C 19.566406 60.578125 19.457031 60.738281 19.316406 60.878906 C 19.175781 61.019531 19.011719 61.128906 18.828125 61.207031 C 18.644531 61.28125 18.453125 61.320312 18.253906 61.320312 C 18.058594 61.320312 17.867188 61.28125 17.683594 61.207031 C 17.5 61.128906 17.335938 61.019531 17.195312 60.878906 C 17.054688 60.738281 16.945312 60.578125 16.871094 60.394531 C 16.792969 60.210938 16.757812 60.019531 16.757812 59.820312 C 16.757812 59.621094 16.792969 59.429688 16.871094 59.246094 C 16.945312 59.0625 17.054688 58.902344 17.195312 58.761719 C 17.335938 58.621094 17.5 58.511719 17.683594 58.4375 C 17.867188 58.359375 18.058594 58.320312 18.253906 58.320312 C 18.453125 58.320312 18.644531 58.359375 18.828125 58.4375 C 19.011719 58.511719 19.175781 58.621094 19.316406 58.761719 C 19.457031 58.902344 19.566406 59.0625 19.640625 59.246094 C 19.714844 59.429688 19.753906 59.621094 19.753906 59.820312 Z M 19.753906 59.820312 "/>
</g>
<g clip-path="url(#clip9)" clip-rule="nonzero">
<path style="fill:none;stroke-width:1;stroke-linecap:butt;stroke-linejoin:miter;stroke:rgb(0%,0%,0%);stroke-opacity:1;stroke-miterlimit:4;" d="M -0.00238937 -0.000347056 C -0.00238937 0.664181 -0.132689 1.302649 -0.380258 1.915058 C -0.627828 2.527466 -0.992667 3.061695 -1.461745 3.530773 C -1.930824 3.999852 -2.478083 4.364691 -3.090491 4.62529 C -3.702899 4.87286 -4.341368 5.003159 -5.005896 5.003159 C -5.657394 5.003159 -6.295862 4.87286 -6.908271 4.62529 C -7.520679 4.364691 -8.067938 3.999852 -8.537016 3.530773 C -9.006095 3.061695 -9.370934 2.527466 -9.618503 1.915058 C -9.879103 1.302649 -9.996372 0.664181 -9.996372 -0.000347056 C -9.996372 -0.664875 -9.879103 -1.303344 -9.618503 -1.915752 C -9.370934 -2.52816 -9.006095 -3.062389 -8.537016 -3.531468 C -8.067938 -4.000546 -7.520679 -4.365385 -6.908271 -4.612955 C -6.295862 -4.873554 -5.657394 -5.003854 -5.005896 -5.003854 C -4.341368 -5.003854 -3.702899 -4.873554 -3.090491 -4.612955 C -2.478083 -4.365385 -1.930824 -4.000546 -1.461745 -3.531468 C -0.992667 -3.062389 -0.627828 -2.52816 -0.380258 -1.915752 C -0.132689 -1.303344 -0.00238937 -0.664875 -0.00238937 -0.000347056 Z M -0.00238937 -0.000347056 " transform="matrix(0.29979,0,0,0.29979,19.754623,59.820417)"/>
</g>
<path style="fill-rule:nonzero;fill:rgb(72.499084%,87.799072%,64.698792%);fill-opacity:1;stroke-width:1;stroke-linecap:butt;stroke-linejoin:miter;stroke:rgb(0%,0%,0%);stroke-opacity:1;stroke-miterlimit:4;" d="M 0.00259118 -0.00301643 C 0.00259118 0.661512 -0.127708 1.29998 -0.375278 1.912388 C -0.635877 2.524797 -1.000716 3.072055 -1.469795 3.541134 C -1.938874 4.010213 -2.473102 4.362022 -3.08551 4.622621 C -3.697919 4.87019 -4.336387 5.00049 -5.000915 5.00049 C -5.665444 5.00049 -6.303912 4.87019 -6.91632 4.622621 C -7.528729 4.362022 -8.062957 4.010213 -8.532036 3.541134 C -9.001115 3.072055 -9.365954 2.524797 -9.613523 1.912388 C -9.874122 1.29998 -10.004422 0.661512 -10.004422 -0.00301643 C -10.004422 -0.667545 -9.874122 -1.306013 -9.613523 -1.918421 C -9.365954 -2.53083 -9.001115 -3.065058 -8.532036 -3.534137 C -8.062957 -4.003216 -7.528729 -4.368055 -6.91632 -4.615624 C -6.303912 -4.876223 -5.665444 -4.993493 -5.000915 -4.993493 C -4.336387 -4.993493 -3.697919 -4.876223 -3.08551 -4.615624 C -2.473102 -4.368055 -1.938874 -4.003216 -1.469795 -3.534137 C -1.000716 -3.065058 -0.635877 -2.53083 -0.375278 -1.918421 C -0.127708 -1.306013 0.00259118 -0.667545 0.00259118 -0.00301643 Z M 0.00259118 -0.00301643 " transform="matrix(0.29979,0,0,0.29979,49.733598,24.145436)"/>
<path style="fill-rule:nonzero;fill:rgb(89.7995%,7.798767%,0%);fill-opacity:1;stroke-width:1;stroke-linecap:butt;stroke-linejoin:miter;stroke:rgb(0%,0%,0%);stroke-opacity:1;stroke-miterlimit:4;" d="M -0.000397152 0.00028531 C -0.000397152 0.664814 -0.130697 1.303282 -0.378266 1.91569 C -0.638865 2.528098 -0.990674 3.062327 -1.459753 3.531406 C -1.928832 4.000485 -2.47609 4.365324 -3.088499 4.612893 C -3.700907 4.873492 -4.339375 5.003792 -5.003904 5.003792 C -5.668432 5.003792 -6.3069 4.873492 -6.919308 4.612893 C -7.531717 4.365324 -8.065945 4.000485 -8.535024 3.531406 C -9.004103 3.062327 -9.368942 2.528098 -9.616511 1.91569 C -9.877111 1.303282 -9.99438 0.664814 -9.99438 0.00028531 C -9.99438 -0.664243 -9.877111 -1.302711 -9.616511 -1.91512 C -9.368942 -2.527528 -9.004103 -3.061756 -8.535024 -3.530835 C -8.065945 -3.999914 -7.531717 -4.364753 -6.919308 -4.625352 C -6.3069 -4.872922 -5.668432 -5.003221 -5.003904 -5.003221 C -4.339375 -5.003221 -3.700907 -4.872922 -3.088499 -4.625352 C -2.47609 -4.364753 -1.928832 -3.999914 -1.459753 -3.530835 C -0.990674 -3.061756 -0.638865 -2.527528 -0.378266 -1.91512 C -0.130697 -1.302711 -0.000397152 -0.664243 -0.000397152 0.00028531 Z M -0.000397152 0.00028531 " transform="matrix(0.29979,0,0,0.29979,31.746213,48.953039)"/>
<path style="fill-rule:nonzero;fill:rgb(100%,79.998779%,79.998779%);fill-opacity:1;stroke-width:1;stroke-linecap:butt;stroke-linejoin:miter;stroke:rgb(0%,0%,0%);stroke-opacity:1;stroke-miterlimit:4;" d="M -0.00338548 -0.00584579 C -0.00338548 0.658682 -0.120655 1.297151 -0.381254 1.909559 C -0.628824 2.521967 -0.993663 3.069226 -1.462742 3.538305 C -1.93182 4.007383 -2.479079 4.372222 -3.091487 4.619792 C -3.703896 4.867361 -4.342364 4.997661 -4.993862 4.997661 C -5.65839 4.997661 -6.296859 4.867361 -6.909267 4.619792 C -7.521675 4.372222 -8.068934 4.007383 -8.538012 3.538305 C -9.007091 3.069226 -9.37193 2.521967 -9.6195 1.909559 C -9.867069 1.297151 -9.997369 0.658682 -9.997369 -0.00584579 C -9.997369 -0.657344 -9.867069 -1.295812 -9.6195 -1.908221 C -9.37193 -2.520629 -9.007091 -3.067888 -8.538012 -3.536966 C -8.068934 -4.006045 -7.521675 -4.370884 -6.909267 -4.618453 C -6.296859 -4.879053 -5.65839 -4.996322 -4.993862 -4.996322 C -4.342364 -4.996322 -3.703896 -4.879053 -3.091487 -4.618453 C -2.479079 -4.370884 -1.93182 -4.006045 -1.462742 -3.536966 C -0.993663 -3.067888 -0.628824 -2.520629 -0.381254 -1.908221 C -0.120655 -1.295812 -0.00338548 -0.657344 -0.00338548 -0.00584579 Z M -0.00338548 -0.00584579 " transform="matrix(0.29979,0,0,0.29979,13.758827,46.329878)"/>
<g clip-path="url(#clip10)" clip-rule="nonzero">
<path style=" stroke:none;fill-rule:nonzero;fill:rgb(39.99939%,69.799805%,100%);fill-opacity:1;" d="M 3.566406 29.542969 C 3.566406 29.742188 3.527344 29.933594 3.453125 30.113281 C 3.375 30.300781 3.265625 30.460938 3.125 30.601562 C 2.988281 30.742188 2.824219 30.851562 2.640625 30.925781 C 2.457031 31.003906 2.265625 31.039062 2.066406 31.039062 C 1.867188 31.039062 1.675781 31.003906 1.492188 30.925781 C 1.308594 30.851562 1.148438 30.742188 1.007812 30.601562 C 0.867188 30.460938 0.757812 30.300781 0.683594 30.113281 C 0.605469 29.933594 0.566406 29.742188 0.566406 29.542969 C 0.566406 29.34375 0.605469 29.152344 0.683594 28.96875 C 0.757812 28.785156 0.867188 28.621094 1.007812 28.480469 C 1.148438 28.339844 1.308594 28.234375 1.492188 28.15625 C 1.675781 28.082031 1.867188 28.042969 2.066406 28.042969 C 2.265625 28.042969 2.457031 28.082031 2.640625 28.15625 C 2.824219 28.234375 2.988281 28.339844 3.125 28.480469 C 3.265625 28.621094 3.375 28.785156 3.453125 28.96875 C 3.527344 29.152344 3.566406 29.34375 3.566406 29.542969 Z M 3.566406 29.542969 "/>
</g>
<g clip-path="url(#clip11)" clip-rule="nonzero">
<path style="fill:none;stroke-width:1;stroke-linecap:butt;stroke-linejoin:miter;stroke:rgb(0%,0%,0%);stroke-opacity:1;stroke-miterlimit:4;" d="M 0.00143613 0.00439506 C 0.00143613 0.668923 -0.128864 1.307392 -0.376433 1.90677 C -0.637032 2.532208 -1.001871 3.066437 -1.47095 3.535516 C -1.926999 4.004594 -2.474257 4.369433 -3.086666 4.617003 C -3.699074 4.877602 -4.337542 4.994872 -5.00207 4.994872 C -5.666599 4.994872 -6.305067 4.877602 -6.917475 4.617003 C -7.529884 4.369433 -8.064112 4.004594 -8.533191 3.535516 C -9.00227 3.066437 -9.367109 2.532208 -9.614678 1.90677 C -9.875277 1.307392 -10.005577 0.668923 -10.005577 0.00439506 C -10.005577 -0.660133 -9.875277 -1.298601 -9.614678 -1.91101 C -9.367109 -2.523418 -9.00227 -3.070677 -8.533191 -3.539755 C -8.064112 -4.008834 -7.529884 -4.360643 -6.917475 -4.621242 C -6.305067 -4.868812 -5.666599 -4.999111 -5.00207 -4.999111 C -4.337542 -4.999111 -3.699074 -4.868812 -3.086666 -4.621242 C -2.474257 -4.360643 -1.926999 -4.008834 -1.47095 -3.539755 C -1.001871 -3.070677 -0.637032 -2.523418 -0.376433 -1.91101 C -0.128864 -1.298601 0.00143613 -0.660133 0.00143613 0.00439506 Z M 0.00143613 0.00439506 " transform="matrix(0.29979,0,0,0.29979,3.565976,29.541651)"/>
</g>
<g clip-path="url(#clip12)" clip-rule="nonzero">
<path style="fill:none;stroke-width:1;stroke-linecap:butt;stroke-linejoin:miter;stroke:rgb(0%,0%,0%);stroke-opacity:1;stroke-miterlimit:10;" d="M -0.00621617 -0.00243543 L 3.537934 40.208036 " transform="matrix(0.29979,0,0,0.29979,1.00577,3.621824)"/>
</g>
<g clip-path="url(#clip13)" clip-rule="nonzero">
<path style="fill:none;stroke-width:1;stroke-linecap:butt;stroke-linejoin:miter;stroke:rgb(0%,0%,0%);stroke-opacity:1;stroke-miterlimit:10;" d="M 0.00362757 -0.00580551 L -43.998564 -15.993572 " transform="matrix(0.29979,0,0,0.29979,16.756725,7.357209)"/>
</g>
<g clip-path="url(#clip14)" clip-rule="nonzero">
<path style="fill:none;stroke-width:1;stroke-linecap:butt;stroke-linejoin:miter;stroke:rgb(0%,0%,0%);stroke-opacity:1;stroke-miterlimit:10;" d="M 0.00494264 0.00533073 L -6.45792 55.200262 " transform="matrix(0.29979,0,0,0.29979,5.064924,11.931996)"/>
</g>
<g clip-path="url(#clip15)" clip-rule="nonzero">
<path style="fill:none;stroke-width:1;stroke-linecap:butt;stroke-linejoin:miter;stroke:rgb(0%,0%,0%);stroke-opacity:1;stroke-miterlimit:10;" d="M -0.00207041 -0.00309589 L 6.669272 24.753837 " transform="matrix(0.29979,0,0,0.29979,2.067027,4.059522)"/>
</g>
<path style="fill:none;stroke-width:1;stroke-linecap:butt;stroke-linejoin:miter;stroke:rgb(0%,0%,0%);stroke-opacity:1;stroke-miterlimit:10;" d="M 0.00613797 -0.00552683 L 30.001117 34.002681 " transform="matrix(0.29979,0,0,0.29979,12.259879,28.642282)"/>
<path style="fill:none;stroke-width:1;stroke-linecap:butt;stroke-linejoin:miter;stroke:rgb(0%,0%,0%);stroke-opacity:1;stroke-miterlimit:10;" d="M -0.00207041 0.00504864 L -0.00207041 31.250904 " transform="matrix(0.29979,0,0,0.29979,2.067027,18.674268)"/>
<g clip-path="url(#clip16)" clip-rule="nonzero">
<path style="fill:none;stroke-width:1;stroke-linecap:butt;stroke-linejoin:miter;stroke:rgb(0%,0%,0%);stroke-opacity:1;stroke-miterlimit:10;" d="M -0.00114367 0.00128446 L 29.954746 -78.152445 " transform="matrix(0.29979,0,0,0.29979,36.99253,27.050396)"/>
</g>
<g clip-path="url(#clip17)" clip-rule="nonzero">
<path style="fill:none;stroke-width:1;stroke-linecap:butt;stroke-linejoin:miter;stroke:rgb(0%,0%,0%);stroke-opacity:1;stroke-miterlimit:10;" d="M -0.00506112 0.00586778 L -4.00526 -64.922447 " transform="matrix(0.29979,0,0,0.29979,47.173392,23.084178)"/>
</g>
<g clip-path="url(#clip18)" clip-rule="nonzero">
<path style="fill:none;stroke-width:1;stroke-linecap:butt;stroke-linejoin:miter;stroke:rgb(0%,0%,0%);stroke-opacity:1;stroke-miterlimit:10;" d="M -0.00175009 0.00307866 L 92.458881 -7.463091 " transform="matrix(0.29979,0,0,0.29979,19.316931,6.295952)"/>
</g>
<path style="fill:none;stroke-width:1;stroke-linecap:butt;stroke-linejoin:miter;stroke:rgb(0%,0%,0%);stroke-opacity:1;stroke-miterlimit:10;" d="M 0.00561979 0.00571013 L 4.996096 16.006507 " transform="matrix(0.29979,0,0,0.29979,28.748315,17.849851)"/>
<g clip-path="url(#clip19)" clip-rule="nonzero">
<path style="fill:none;stroke-width:1;stroke-linecap:butt;stroke-linejoin:miter;stroke:rgb(0%,0%,0%);stroke-opacity:1;stroke-miterlimit:10;" d="M -0.00272499 -0.00169999 L 12.923 45.003799 " transform="matrix(0.29979,0,0,0.29979,13.321129,47.391135)"/>
</g>
<path style="fill:none;stroke-width:1;stroke-linecap:butt;stroke-linejoin:miter;stroke:rgb(0%,0%,0%);stroke-opacity:1;stroke-miterlimit:10;" d="M -0.00238937 0.00618807 L -20.003385 19.994154 " transform="matrix(0.29979,0,0,0.29979,19.754623,40.334082)"/>
<g clip-path="url(#clip20)" clip-rule="nonzero">
<path style="fill:none;stroke-width:1;stroke-linecap:butt;stroke-linejoin:miter;stroke:rgb(0%,0%,0%);stroke-opacity:1;stroke-miterlimit:10;" d="M 0.00143613 0.00439506 L -1.45792 39.537308 " transform="matrix(0.29979,0,0,0.29979,3.565976,29.541651)"/>
</g>
<g clip-path="url(#clip21)" clip-rule="nonzero">
<path style="fill:none;stroke-width:1;stroke-linecap:butt;stroke-linejoin:miter;stroke:rgb(0%,0%,0%);stroke-opacity:1;stroke-miterlimit:10;" d="M 0.00199218 -0.00486636 L -25.458559 40.466205 " transform="matrix(0.29979,0,0,0.29979,11.198622,28.204584)"/>
</g>
<path style="fill:none;stroke-width:1;stroke-linecap:butt;stroke-linejoin:miter;stroke:rgb(0%,0%,0%);stroke-opacity:1;stroke-miterlimit:10;" d="M -0.00589588 0.00379185 L -0.00589588 26.246141 " transform="matrix(0.29979,0,0,0.29979,18.255674,50.451988)"/>
<path style="fill:none;stroke-width:1;stroke-linecap:butt;stroke-linejoin:miter;stroke:rgb(0%,0%,0%);stroke-opacity:1;stroke-miterlimit:10;" d="M 0.000756604 0.00431692 L -77.462385 10.845248 " transform="matrix(0.29979,0,0,0.29979,42.976336,44.393237)"/>
<path style="fill:none;stroke-width:1;stroke-linecap:butt;stroke-linejoin:miter;stroke:rgb(0%,0%,0%);stroke-opacity:1;stroke-miterlimit:10;" d="M -0.00390366 0.00268156 L 46.004902 9.996665 " transform="matrix(0.29979,0,0,0.29979,30.247264,38.835134)"/>
<path style="fill:none;stroke-width:1;stroke-linecap:butt;stroke-linejoin:miter;stroke:rgb(0%,0%,0%);stroke-opacity:1;stroke-miterlimit:10;" d="M 0.000242132 0.00115058 L -7.075029 36.915041 " transform="matrix(0.29979,0,0,0.29979,31.308521,25.206686)"/>
<path style="fill:none;stroke-width:1;stroke-linecap:butt;stroke-linejoin:miter;stroke:rgb(0%,0%,0%);stroke-opacity:1;stroke-miterlimit:10;" d="M 0.000598959 0.00207881 L 16.001396 3.624409 " transform="matrix(0.29979,0,0,0.29979,37.742008,28.456408)"/>
<path style="fill:none;stroke-width:1;stroke-linecap:butt;stroke-linejoin:miter;stroke:rgb(0%,0%,0%);stroke-opacity:1;stroke-miterlimit:10;" d="M 0.00462368 -0.00301643 L 20.00562 -0.00301643 " transform="matrix(0.29979,0,0,0.29979,22.75252,24.145436)"/>
<path style="fill:none;stroke-width:1;stroke-linecap:butt;stroke-linejoin:miter;stroke:rgb(0%,0%,0%);stroke-opacity:1;stroke-miterlimit:10;" d="M 0.00526293 0.00115058 L 0.00526293 46.922054 " transform="matrix(0.29979,0,0,0.29979,22.314828,25.206686)"/>
<path style="fill:none;stroke-width:1;stroke-linecap:butt;stroke-linejoin:miter;stroke:rgb(0%,0%,0%);stroke-opacity:1;stroke-miterlimit:10;" d="M 0.00211328 -0.00381329 L -14.995376 15.996984 " transform="matrix(0.29979,0,0,0.29979,27.249366,19.348799)"/>
<path style="fill:none;stroke-width:1;stroke-linecap:butt;stroke-linejoin:miter;stroke:rgb(0%,0%,0%);stroke-opacity:1;stroke-miterlimit:10;" d="M 0.000756604 -0.0044679 L -38.919748 26.003342 " transform="matrix(0.29979,0,0,0.29979,42.976336,30.602902)"/>
<path style="fill:none;stroke-width:1;stroke-linecap:butt;stroke-linejoin:miter;stroke:rgb(0%,0%,0%);stroke-opacity:1;stroke-miterlimit:10;" d="M -0.00238937 -0.00580551 L 25.002113 30.002204 " transform="matrix(0.29979,0,0,0.29979,19.754623,7.357209)"/>
<path style="fill:none;stroke-width:1;stroke-linecap:butt;stroke-linejoin:miter;stroke:rgb(0%,0%,0%);stroke-opacity:1;stroke-miterlimit:10;" d="M 0.00561979 0.00571013 L 22.495339 30.691277 " transform="matrix(0.29979,0,0,0.29979,28.748315,17.849851)"/>
<path style="fill:none;stroke-width:1;stroke-linecap:butt;stroke-linejoin:miter;stroke:rgb(0%,0%,0%);stroke-opacity:1;stroke-miterlimit:10;" d="M -0.000397152 -0.00301643 L 9.993586 14.382065 " transform="matrix(0.29979,0,0,0.29979,31.746213,24.145436)"/>
<path style="fill:none;stroke-width:1;stroke-linecap:butt;stroke-linejoin:miter;stroke:rgb(0%,0%,0%);stroke-opacity:1;stroke-miterlimit:10;" d="M -0.00091533 0.000490118 L -9.004621 13.004395 " transform="matrix(0.29979,0,0,0.29979,48.234649,25.644384)"/>
<path style="fill:none;stroke-width:1;stroke-linecap:butt;stroke-linejoin:miter;stroke:rgb(0%,0%,0%);stroke-opacity:1;stroke-miterlimit:10;" d="M 0.00526293 -0.0026961 L -13.545901 11.463673 " transform="matrix(0.29979,0,0,0.29979,22.314828,41.39534)"/>
<g clip-path="url(#clip22)" clip-rule="nonzero">
<path style="fill:none;stroke-width:1;stroke-linecap:butt;stroke-linejoin:miter;stroke:rgb(0%,0%,0%);stroke-opacity:1;stroke-miterlimit:10;" d="M 0.00613797 0.00367767 L -34.00207 -10.003335 " transform="matrix(0.29979,0,0,0.29979,12.259879,44.830929)"/>
</g>
<g clip-path="url(#clip23)" clip-rule="nonzero">
<path style="fill:none;stroke-width:1;stroke-linecap:butt;stroke-linejoin:miter;stroke:rgb(0%,0%,0%);stroke-opacity:1;stroke-miterlimit:10;" d="M 0.00494264 -0.0048094 L 28.996614 46.003997 L 48.997611 35.996984 " transform="matrix(0.29979,0,0,0.29979,5.064924,13.353004)"/>
</g>
<g clip-path="url(#clip24)" clip-rule="nonzero">
<path style="fill:none;stroke-width:1;stroke-linecap:butt;stroke-linejoin:miter;stroke:rgb(0%,0%,0%);stroke-opacity:1;stroke-miterlimit:10;" d="M 0.00494264 -0.00492359 L 54.001117 49.756512 " transform="matrix(0.29979,0,0,0.29979,5.064924,7.731945)"/>
</g>
<path style="fill:none;stroke-width:1;stroke-linecap:butt;stroke-linejoin:miter;stroke:rgb(0%,0%,0%);stroke-opacity:1;stroke-miterlimit:10;" d="M 0.00490236 -0.00333539 L -3.539248 -37.464484 " transform="matrix(0.29979,0,0,0.29979,44.037593,41.833031)"/>
<path style="fill:none;stroke-width:1;stroke-linecap:butt;stroke-linejoin:miter;stroke:rgb(0%,0%,0%);stroke-opacity:1;stroke-miterlimit:10;" d="M -0.00390366 0.00268156 L -40.005896 20.003678 " transform="matrix(0.29979,0,0,0.29979,30.247264,38.835134)"/>
<path style=" stroke:none;fill-rule:nonzero;fill:rgb(0%,31.399536%,93.699646%);fill-opacity:1;" d="M 5.066406 7.730469 L 6.5625 10.542969 L 5.066406 13.351562 L 3.566406 10.542969 Z M 5.066406 7.730469 "/>
<g clip-path="url(#clip25)" clip-rule="nonzero">
<path style="fill:none;stroke-width:1;stroke-linecap:butt;stroke-linejoin:miter;stroke:rgb(0%,0%,0%);stroke-opacity:1;stroke-miterlimit:10;" d="M 0.00494264 -0.00492359 L 4.995419 9.376651 L 0.00494264 18.745196 L -4.998564 9.376651 Z M 0.00494264 -0.00492359 " transform="matrix(0.29979,0,0,0.29979,5.064924,7.731945)"/>
</g>
<path style="fill-rule:nonzero;fill:rgb(89.7995%,7.798767%,0%);fill-opacity:1;stroke-width:1;stroke-linecap:butt;stroke-linejoin:miter;stroke:rgb(0%,0%,0%);stroke-opacity:1;stroke-miterlimit:10;" d="M -0.00589588 0.00367767 L 4.997611 9.385252 L -0.00589588 18.753797 L -4.996372 9.385252 Z M -0.00589588 0.00367767 " transform="matrix(0.29979,0,0,0.29979,18.255674,44.830929)"/>
<path style="fill-rule:nonzero;fill:rgb(0%,54.098511%,0%);fill-opacity:1;stroke-width:1;stroke-linecap:butt;stroke-linejoin:miter;stroke:rgb(0%,0%,0%);stroke-opacity:1;stroke-miterlimit:10;" d="M -0.00290755 0.000490118 L 5.000599 9.382065 L -0.00290755 18.75061 L -5.006414 9.382065 Z M -0.00290755 0.000490118 " transform="matrix(0.29979,0,0,0.29979,36.243059,25.644384)"/>
<path style=" stroke:none;fill-rule:nonzero;fill:rgb(17.999268%,20.399475%,21.199036%);fill-opacity:1;" d="M 10.863281 16.203125 L 10.390625 15.835938 L 10.757812 15.359375 L 11.230469 15.726562 M 8.96875 14.734375 L 8.496094 14.367188 L 8.863281 13.890625 L 9.335938 14.257812 M 7.070312 13.265625 L 6.597656 12.898438 L 6.964844 12.425781 L 7.4375 12.792969 "/>
<path style=" stroke:none;fill-rule:nonzero;fill:rgb(17.999268%,20.399475%,21.199036%);fill-opacity:1;" d="M 36.105469 24.804688 L 36.285156 24.234375 L 36.855469 24.410156 L 36.679688 24.984375 M 36.816406 22.515625 L 36.996094 21.941406 L 37.566406 22.121094 L 37.390625 22.691406 M 37.527344 20.226562 L 37.707031 19.652344 L 38.277344 19.832031 L 38.101562 20.402344 M 38.238281 17.933594 L 38.417969 17.363281 L 38.988281 17.539062 L 38.8125 18.113281 "/>
<path style=" stroke:none;fill-rule:nonzero;fill:rgb(17.999268%,20.399475%,21.199036%);fill-opacity:1;" d="M 29.007812 50.164062 L 28.410156 50.105469 L 28.46875 49.507812 L 29.0625 49.566406 M 26.621094 49.9375 L 26.023438 49.878906 L 26.078125 49.28125 L 26.675781 49.339844 M 24.234375 49.707031 L 23.636719 49.652344 L 23.691406 49.054688 L 24.289062 49.113281 M 21.84375 49.480469 L 21.25 49.425781 L 21.304688 48.828125 L 21.902344 48.886719 M 19.457031 49.253906 L 18.859375 49.199219 L 18.917969 48.601562 L 19.515625 48.65625 "/>
</g>
</svg>
